<?xml version="1.0" encoding="utf-8"?>
<!-- Generator: Adobe Illustrator 27.0.0, SVG Export Plug-In . SVG Version: 6.00 Build 0)  -->
<svg version="1.1" id="Layer_1" xmlns="http://www.w3.org/2000/svg" xmlns:xlink="http://www.w3.org/1999/xlink" x="0px" y="0px"
	 viewBox="0 0 25.9 24.1" style="enable-background:new 0 0 25.9 24.1;" xml:space="preserve">
<style type="text/css">
	.st0{fill:#DD997A;}
</style>
<path class="st0" d="M7.8,15.5c-0.4-0.7-0.6-1.5-0.6-2.4c0-2.4,1.4-4.6,3.7-5.6l0.3,0.6c-1.5,0.6-2.5,1.9-2.7,3.5
	c0,0.3,0,0.5,0.1,0.8c1-0.8,2.4-0.6,3.2,0.4c0.3,0.4,0.5,0.9,0.5,1.5c0,1.3-1,2.3-2.2,2.3c0,0,0,0-0.1,0C9.1,16.7,8.3,16.2,7.8,15.5
	z M14,15.5c-0.4-0.7-0.6-1.5-0.6-2.4c0-2.4,1.4-4.6,3.7-5.6l0.3,0.6c-1.5,0.6-2.6,1.9-2.7,3.5c0,0.3,0,0.5,0.1,0.8
	c1-0.8,2.4-0.6,3.2,0.4c0.3,0.4,0.5,0.9,0.5,1.5c0,1.3-1,2.3-2.2,2.3c0,0,0,0-0.1,0C15.2,16.6,14.4,16.2,14,15.5L14,15.5z"/>
</svg>
