<svg xmlns="http://www.w3.org/2000/svg" viewBox="0 0 41.46 41.46"><defs><style>.cls-1{fill:#a8a9ac;}</style></defs><g id="Layer_2" data-name="Layer 2"><g id="Layer_1-2" data-name="Layer 1"><path class="cls-1" d="M21,25.39a5,5,0,0,1-3.17-1.15l-6-5V26.8a.71.71,0,0,0,.71.71h17a.71.71,0,0,0,.71-.71V19.23l-6,5A5,5,0,0,1,21,25.39Z"/><path class="cls-1" d="M20.73,0A20.73,20.73,0,1,0,41.46,20.73,20.73,20.73,0,0,0,20.73,0ZM32.34,26.8a2.83,2.83,0,0,1-2.83,2.83h-17A2.82,2.82,0,0,1,9.71,26.8V15.49a2.83,2.83,0,0,1,2.83-2.83H26.68a4.24,4.24,0,0,0,.59,2.12H12.54a.71.71,0,0,0-.71.71v1l7.37,6.14a2.9,2.9,0,0,0,3.65,0l7-5.85a4.59,4.59,0,0,0,1.06.14,4.15,4.15,0,0,0,1.41-.26ZM30.93,15.49a2.83,2.83,0,1,1,2.82-2.83A2.83,2.83,0,0,1,30.93,15.49Z"/></g></g></svg>