<?xml version="1.0" encoding="UTF-8"?>
<svg id="Layer_1" xmlns="http://www.w3.org/2000/svg" version="1.1" viewBox="0 0 2442.7 2203.6">
  <!-- Generator: Adobe Illustrator 29.5.1, SVG Export Plug-In . SVG Version: 2.1.0 Build 141)  -->
  <defs>
    <style>
      .st0 {
        fill: #5ba8aa;
      }

      .st1 {
        fill: #dd997a;
      }

      .st2 {
        fill: #fff;
      }

      .st3 {
        fill: #3c728c;
      }
    </style>
  </defs>
  <g>
    <path class="st2" d="M1149.7,669.7l3.9,6.8c2.5,4.3,7.9,5.7,12.2,3.3h0c4.3-2.5,5.8-7.9,3.3-12.2l-3.9-6.8c-2.5-4.3-7.9-5.7-12.2-3.3h0c-4.3,2.5-5.8,7.9-3.3,12.2Z"/>
    <rect class="st2" x="1324.1" y="625.2" width="36.4" height="18" rx="9" ry="9"/>
    <path class="st2" d="M1218.1,509.9h0c-2.5-4.3-7.9-5.8-12.2-3.3l-6.8,4c-4.3,2.5-5.7,7.9-3.3,12.2h0c2.5,4.3,7.9,5.8,12.2,3.3l6.8-4c4.3-2.5,5.7-7.9,3.3-12.2h0Z"/>
    <path class="st2" d="M1059.4,477.4l-3.9-6.8c-2.5-4.3-7.9-5.7-12.2-3.3h0c-4.3,2.5-5.8,7.9-3.3,12.2l3.9,6.8c2.5,4.3,7.9,5.7,12.2,3.3h0c4.3-2.5,5.8-7.9,3.3-12.2Z"/>
    <path class="st2" d="M1018.2,583.9c2.1,20.6,11.3,39.1,25.2,53,3.3,3.3,6.8,6.3,10.6,9.1l-17,29.5c-2.5,4.3-1,9.8,3.3,12.2h0c4.3,2.5,9.8,1,12.2-3.3l17-29.5c8.3,3.7,17.4,6.2,26.9,7.2v32.5c0,5,4,9,9,9h0c5,0,9-4,9-9v-32.5c20.6-2.1,39.1-11.3,53-25.2,3.3-3.3,6.3-6.8,9.1-10.6l29.5,17c4.3,2.5,9.8,1,12.2-3.3h0c2.5-4.3,1-9.7-3.3-12.2l-29.5-17c3.8-8.3,6.2-17.4,7.2-26.9h181.5c5,0,9-4,9-9h0c0-5-4-9-9-9h-181.5c-2.1-20.6-11.3-39.1-25.2-53-3.3-3.3-6.8-6.3-10.6-9.1l17-29.5c2.5-4.3,1-9.8-3.3-12.2h0c-4.3-2.5-9.7-1-12.2,3.3l-17,29.5c-8.3-3.8-17.4-6.2-26.9-7.2v-45.9c0-5-4-9-9-9h0c-5,0-9,4-9,9v45.9c-20.6,2.1-39.1,11.3-53,25.2-3.3,3.3-6.3,6.8-9.1,10.6l-29.5-17c-4.3-2.5-9.8-1-12.2,3.3h0c-2.5,4.3-1,9.8,3.3,12.2l29.5,17c-3.8,8.3-6.2,17.4-7.2,26.9h-72.5c-3.8,5.9-7.4,11.9-10.8,18h83.4,0ZM1056.1,525.7c12.6-12.6,30-20.4,49.3-20.4s36.7,7.8,49.3,20.4,20.4,30,20.4,49.3-7.8,36.7-20.4,49.3c-12.6,12.6-30,20.4-49.3,20.4s-36.7-7.8-49.3-20.4-20.4-30-20.4-49.3,7.8-36.7,20.4-49.3Z"/>
    <rect class="st2" x="1288.8" y="625.2" width="18.9" height="18" rx="9" ry="9"/>
    <path class="st2" d="M1341.8,507.2h1c5,0,9,4,9,9h0c0,5-4,9-9,9h-1c-5,0-9-4-9-9h0c0-5,4-9,9-9Z"/>
    <path class="st2" d="M989.8,641.7h0c2.5,4.3,8,5.7,12.2,3.3l9.6-5.6c4.3-2.5,5.8-8,3.3-12.2h0c-2.5-4.3-8-5.7-12.2-3.3l-9.6,5.6c-4.3,2.5-5.8,8-3.3,12.2Z"/>
    <path class="st2" d="M949.7,513s0,0,0,0c0,0,0,0,0,0Z"/>
    <rect class="st2" x="1407.6" y="566" width="36.4" height="18" rx="9" ry="9"/>
    <path class="st2" d="M953.7,508.5c-.5.5-.9,1-1.3,1.5.4-.5.9-1,1.3-1.5Z"/>
    <path class="st2" d="M958.3,503.6c-.9,1-1.8,2-2.7,2.9.9-1,1.8-2,2.7-2.9Z"/>
    <path class="st2" d="M1389.7,624.8h90c5,0,9,4,9,9h0c0,5-4,9-9,9h-90c-5,0-9-4-9-9h0c0-5,4-9,9-9Z"/>
    <path class="st2" d="M1378.7,506.8h104c5,0,9,4,9,9h0c0,5-4,9-9,9h-104c-5,0-9-4-9-9h0c0-5,4-9,9-9Z"/>
  </g>
  <g>
    <g>
      <path class="st2" d="M1144.9,70.8c39.1,0,70.8-31.7,70.8-70.8,0,39.1,31.7,70.8,70.8,70.8-39.1,0-70.8,31.7-70.8,70.8,0-39.1-31.7-70.8-70.8-70.8Z"/>
      <path class="st2" d="M940.2,133.9c39.1,0,70.8-31.7,70.8-70.8,0,39.1,31.7,70.8,70.8,70.8-39.1,0-70.8,31.7-70.8,70.8,0-39.1-31.7-70.8-70.8-70.8Z"/>
      <path class="st2" d="M1491.2,133.9c-39.1,0-70.8-31.7-70.8-70.8,0,39.1-31.7,70.8-70.8,70.8,39.1,0,70.8,31.7,70.8,70.8,0-39.1,31.7-70.8,70.8-70.8Z"/>
    </g>
    <g>
      <path class="st2" d="M513.4,1258.9h-65c-4.2,0-7.6-3.4-7.6-7.6s3.4-7.6,7.6-7.6h65c4.2,0,7.6,3.4,7.6,7.6s-3.4,7.6-7.6,7.6Z"/>
      <path class="st2" d="M1983,1258.9h-64.9c-4.2,0-7.6-3.4-7.6-7.6s3.4-7.6,7.6-7.6h64.9c4.2,0,7.6,3.4,7.6,7.6s-3.4,7.6-7.6,7.6Z"/>
    </g>
  </g>
  <path class="st2" d="M1489.7,939.4v-25.2h-58.8v-182.8c0-7-5.6-12.6-12.6-12.6s-12.6,5.6-12.6,12.6v89.5h-81.4l-17.5,43.3s0,0,0,0l-20.2,49.9h-52v-121.6h107.8v-62.3h-240.8v62.3h107.8v121.6h-62l-20.2-49.9s0,0,0,0l-17.5-43.3h-81.4v-89.5c0-7-5.6-12.6-12.6-12.6s-12.6,5.6-12.6,12.6v182.8h-61.5v25.2h548,0ZM1341.3,846.1h64.4v10.5h-68.7l4.2-10.5h0ZM1326.9,881.8h78.8v32.4h-92l13.1-32.4ZM1126.8,767.4v-11.9h190.5v11.9h-190.5ZM1028.3,846.1h64.4l4.2,10.5h-68.7v-10.5h0ZM1028.3,881.8h78.8l13.1,32.4h-92v-32.4Z"/>
  <path class="st2" d="M1215.7,219.8c41.7,0,82.2,8.2,120.3,24.3,36.8,15.6,69.8,37.9,98.2,66.2,28.4,28.4,50.7,61.4,66.2,98.2,16.1,38.1,24.3,78.5,24.3,120.3v244c0,41.7-8.2,82.2-24.3,120.3-15.6,36.8-37.8,69.8-66.2,98.2-28.4,28.4-61.4,50.7-98.2,66.2-38.1,16.1-78.5,24.3-120.3,24.3s-82.2-8.2-120.3-24.3c-36.8-15.6-69.8-37.8-98.2-66.2-28.4-28.4-50.7-61.4-66.2-98.2-16.1-38.1-24.3-78.5-24.3-120.3v-244c0-41.7,8.2-82.2,24.3-120.3,15.6-36.8,37.8-69.8,66.2-98.2,28.4-28.4,61.4-50.7,98.2-66.2,38.1-16.1,78.5-24.3,120.3-24.3h0M1215.7,194.8h0c-184.5,0-334,149.5-334,334v244c0,184.5,149.5,334,334,334h0c184.5,0,334-149.5,334-334v-244c0-184.5-149.5-334-334-334h0Z"/>
  <path class="st2" d="M1364.8,993.3h-297.1c-6.9,0-12.5-5.6-12.5-12.5s5.6-12.5,12.5-12.5h297.1c6.9,0,12.5,5.6,12.5,12.5s-5.6,12.5-12.5,12.5Z"/>
  <path class="st2" d="M1280.2,1043.3h-127.5c-6.9,0-12.5-5.6-12.5-12.5s5.6-12.5,12.5-12.5h127.5c6.9,0,12.5,5.6,12.5,12.5s-5.6,12.5-12.5,12.5Z"/>
  <path class="st2" d="M1215.7,219.8c41.7,0,82.2,8.2,120.3,24.3,36.8,15.6,69.8,37.9,98.2,66.2,28.4,28.4,50.7,61.4,66.2,98.2,16.1,38.1,24.3,78.5,24.3,120.3v244c0,41.7-8.2,82.2-24.3,120.3-15.6,36.8-37.8,69.8-66.2,98.2-28.4,28.4-61.4,50.7-98.2,66.2-38.1,16.1-78.5,24.3-120.3,24.3s-82.2-8.2-120.3-24.3c-36.8-15.6-69.8-37.8-98.2-66.2-28.4-28.4-50.7-61.4-66.2-98.2-16.1-38.1-24.3-78.5-24.3-120.3v-244c0-41.7,8.2-82.2,24.3-120.3,15.6-36.8,37.8-69.8,66.2-98.2,28.4-28.4,61.4-50.7,98.2-66.2,38.1-16.1,78.5-24.3,120.3-24.3h0M1215.7,194.8h0c-184.5,0-334,149.5-334,334v244c0,184.5,149.5,334,334,334h0c184.5,0,334-149.5,334-334v-244c0-184.5-149.5-334-334-334h0Z"/>
  <path class="st2" d="M1416.5,328c-53.6-53.6-125-83.2-200.8-83.2s-147.2,29.5-200.8,83.2c-53.6,53.6-83.2,125-83.2,200.8v244c0,51.1,13.4,100.1,38.5,143h29.5c-28-42-43-91.4-43-143v-244c0-41.5,9.7-81.5,28-117.5,9.9,6.7,21.5,10.2,33.5,10.2,19.3,0,37.1-9.1,48.4-24.5,11.3,15.4,29.2,24.5,48.4,24.5s41.9-12,52.5-30.8c10.5,18.9,30.6,30.8,52.5,30.8s39.7-10.5,50.7-27.8c11,17.2,30,27.8,50.7,27.8s41.2-11.5,51.8-29.7c10.7,18.2,30.6,29.7,51.8,29.7s16.4-1.7,24-5h0c16.7,34.5,25.5,72.7,25.5,112.2v244c0,51.6-15,101-43,143h29.4c25.1-42.9,38.5-91.9,38.5-143v-244c0-75.9-29.5-147.2-83.2-200.8h0ZM1055.1,328.8v32.7c0,2.3.2,4.7.4,7.1-3.4,17.8-19,30.8-37.2,30.8s-1.7,0-2.5,0c0,0-.2,0-.3,0-.8,0-1.6-.1-2.4-.3-.1,0-.3,0-.4,0-.8-.1-1.5-.2-2.3-.4h-.4c-.8-.3-1.5-.5-2.3-.7,0,0-.2,0-.3,0-.8-.2-1.6-.5-2.3-.8,0,0,0,0,0,0-.8-.3-1.5-.6-2.3-1,0,0-.1,0-.2,0-.7-.3-1.5-.7-2.2-1.1-.1,0-.2-.1-.3-.2-.7-.4-1.4-.8-2-1.2,0,0-.1,0-.2-.1,10.3-16.6,22.6-32,36.5-45.9,6.5-6.5,13.5-12.8,20.7-18.6h0ZM1153,361.5c0,20.9-17,37.9-37.9,37.9s-33.8-12.9-37.2-30.8c.3-2.5.4-4.8.4-7.1v-49.4c23.1-14.7,48.2-25.5,74.7-32.1v81.5ZM1436.1,397.8c-.8.2-1.6.5-2.4.6-.2,0-.3,0-.4.1-.7.2-1.5.3-2.2.4-.1,0-.3,0-.4,0-.8.1-1.6.2-2.4.3-.2,0-.4,0-.6,0-.8,0-1.7,0-2.5,0-20.9,0-37.9-17-37.9-37.9v-23.4c3.4,3,6.7,6.2,9.9,9.4,15.1,15.1,28.3,32,39.2,50.3,0,0-.1,0-.2,0h0ZM1359.3,361.5c0,20.9-17,37.9-37.9,37.9s-37.9-17-37.9-37.9v-80.2c27.1,7.4,52.5,19.1,75.8,34.9v45.3h0ZM1258,361.5c0,20.9-17,37.9-37.9,37.9s-37.9-17-37.9-37.9v-87c11.1-1.4,22.4-2.2,33.5-2.2s28.4,1.2,42.3,3.4v85.8h0Z"/>
  <path class="st2" d="M1215.7,1107.2c-184,0-333.8-149.7-333.8-333.8v-244.6c0-184,149.7-333.8,333.8-333.8s333.8,149.7,333.8,333.8v244.6c0,184-149.7,333.8-333.8,333.8ZM1215.7,220.6c-170,0-308.3,138.3-308.3,308.3v244.6c0,170,138.3,308.3,308.3,308.3s308.3-138.3,308.3-308.3v-244.6c0-170-138.3-308.3-308.3-308.3h0Z"/>
  <g>
    <path class="st2" d="M1409.7,2120c-29.2,0-43.8-15.4-56.8-29-11.7-12.2-20.9-21.9-40.2-21.9s-28.5,9.7-40.2,21.9c-12.9,13.6-27.6,29-56.8,29s-43.8-15.4-56.8-29c-11.7-12.2-20.9-21.9-40.2-21.9s-28.5,9.7-40.2,21.9c-12.9,13.6-27.6,29-56.8,29s-43.8-15.4-56.8-29c-11.7-12.2-20.9-21.9-40.2-21.9s-11.5-5.1-11.5-11.5,5.1-11.5,11.5-11.5c29.2,0,43.8,15.4,56.8,29,11.7,12.2,20.9,21.9,40.2,21.9s28.5-9.7,40.2-21.9c12.9-13.6,27.6-29,56.8-29s43.8,15.4,56.8,29c11.7,12.2,20.9,21.9,40.2,21.9s28.5-9.7,40.2-21.9c12.9-13.6,27.6-29,56.8-29s43.8,15.4,56.8,29c11.7,12.2,20.9,21.9,40.2,21.9s28.6-9.7,40.2-21.9c12.9-13.6,27.6-29,56.8-29s11.5,5.1,11.5,11.5-5.1,11.5-11.5,11.5c-19.3,0-28.5,9.7-40.2,21.9-13,13.6-27.6,29-56.8,29h0Z"/>
    <path class="st2" d="M1409.7,2203.6c-29.2,0-43.8-15.4-56.8-29-11.7-12.2-20.9-21.9-40.2-21.9s-28.5,9.7-40.2,21.9c-12.9,13.6-27.6,29-56.8,29s-43.8-15.4-56.8-29c-11.7-12.2-20.9-21.9-40.2-21.9s-28.5,9.7-40.2,21.9c-12.9,13.6-27.6,29-56.8,29s-43.8-15.4-56.8-29c-11.7-12.2-20.9-21.9-40.2-21.9s-11.5-5.1-11.5-11.5,5.1-11.5,11.5-11.5c29.2,0,43.8,15.4,56.8,29,11.7,12.2,20.9,21.9,40.2,21.9s28.5-9.7,40.2-21.9c12.9-13.6,27.6-29,56.8-29s43.8,15.4,56.8,29c11.7,12.2,20.9,21.9,40.2,21.9s28.5-9.7,40.2-21.9c12.9-13.6,27.6-29,56.8-29s43.8,15.4,56.8,29c11.7,12.2,20.9,21.9,40.2,21.9s28.6-9.7,40.2-21.9c12.9-13.6,27.6-29,56.8-29s11.5,5.1,11.5,11.5-5.1,11.5-11.5,11.5c-19.3,0-28.5,9.7-40.2,21.9-13,13.6-27.6,29-56.8,29h0Z"/>
  </g>
  <g>
    <path class="st2" d="M420.2,2077.1c3.5,0,6.3-2.8,6.3-6.3s-2.8-6.3-6.3-6.3h-34.2c-3.6,0-6.5,2.9-6.5,6.5v50.2c0,3.6,2.9,6.5,6.5,6.5h34.2c3.5,0,6.3-2.8,6.3-6.3s-2.8-6.3-6.3-6.3h-27.8v-11h22.4c3.5,0,6.3-2.8,6.3-6.3s-2.8-6.3-6.3-6.3h-22.4v-14.6h27.8Z"/>
    <path class="st2" d="M480.8,2089.9l-1-.2c-7.4-1.3-10.9-2.1-10.9-5.9,0-1.7.6-3.2,1.9-4.5,1.4-1.4,4.3-3.1,9.9-3.1s10.3,1.4,15.8,4.4c.9.5,2,.8,3,.8,3.5,0,6.3-2.8,6.3-6.3s-1.3-4.4-3.3-5.6c-7.3-3.9-14.4-5.9-21.2-5.9-12.2,0-25.3,6.4-25.3,20.6,0,15.3,14.5,17.7,24.2,19.2h.4c8.7,1.5,12.9,2.4,13,6.2,0,1.3-.4,2.4-1.3,3.3-2.3,2.4-7.5,3.2-11.1,3.2s-10.4-1.6-16.7-4.8c-2-1-4.3-.9-6.1.2-1.9,1.2-3,3.2-3,5.4s1.2,4.4,3.2,5.5h0c7,3.9,15.2,6.1,22.2,6.1,11.9,0,25.8-5.1,25.8-19.4s-14.8-17.5-25.6-19.4h0Z"/>
    <path class="st2" d="M582.9,2064.6h-44.4c-3.5,0-6.3,2.8-6.3,6.3s2.8,6.3,6.3,6.3h15.7v44.2c0,3.6,2.9,6.5,6.5,6.5s6.5-2.9,6.5-6.5v-44.2h15.7c3.5,0,6.3-2.8,6.3-6.3s-2.8-6.3-6.3-6.3h0Z"/>
    <path class="st2" d="M640.8,2064.6h-19.3c-3.6,0-6.5,2.9-6.5,6.5v50.2c0,3.6,2.9,6.5,6.5,6.5h19.3c17.7,0,32-14.2,32-31.6s-14.4-31.6-32-31.6h0ZM640.8,2115.3h-12.8v-38.1h12.8c10.5,0,19.1,8.6,19.1,19.1s-8.5,19.1-19.1,19.1h0Z"/>
    <path class="st2" d="M1826.2,2115.7h-14.8c13.8-8.8,20.6-18.1,20.6-28.6,0-5.9-2-11-5.8-14.8-4.3-4.3-10.8-6.7-18.1-6.7-12.7,0-21.4,7.2-22.8,18.9-.2,1.7.4,3.4,1.5,4.6,1.1,1.3,2.8,2,4.4,2,3,0,5.5-2.2,5.9-5.2.7-5.4,4.4-8.1,10.9-8.1s6.9,1,8.8,2.9c1.6,1.6,2.3,3.7,2.3,6.5,0,10.7-15.3,22.3-30.4,29-2.3.9-3.8,3.2-3.8,5.6s2.7,6.1,6.1,6.1h35.1c3.4,0,6.1-2.7,6.1-6.1s-2.7-6.1-6.1-6.1h0Z"/>
    <path class="st2" d="M1885.8,2065.5c-15.9,0-25.8,12.1-25.8,31.6s9.9,31.6,25.8,31.6,25.8-12.1,25.8-31.6-9.9-31.6-25.8-31.6ZM1885.8,2116.5c-9.6,0-12.9-10-12.9-19.4s3.4-19.4,12.9-19.4,12.9,10,12.9,19.4-3.4,19.4-12.9,19.4Z"/>
    <path class="st2" d="M1952.5,2066.4h-9.8c-3.4,0-6.1,2.7-6.1,6.1s2.7,6.1,6.1,6.1h3.5v42.8c0,3.5,2.9,6.4,6.4,6.4s6.4-2.9,6.4-6.4v-48.6c0-3.5-2.9-6.4-6.4-6.4h0Z"/>
    <path class="st2" d="M2027.8,2096.6c3.8-3.2,5.8-7.6,5.8-13,0-11.2-8.7-18.1-22.6-18.1s-22.6,6.9-22.6,18.1,2,9.8,5.8,13c-4.4,3.2-6.7,8-6.7,13.7,0,11.4,9,18.4,23.5,18.4s23.5-7.1,23.5-18.4-2.3-10.5-6.7-13.7h0ZM2011,2077.7c4.7,0,9.8,1.7,9.8,6.4s-5.1,6.4-9.8,6.4-9.8-1.7-9.8-6.4,5.1-6.4,9.8-6.4ZM2011,2116.5c-5.2,0-10.7-1.8-10.7-7s5.5-7,10.7-7,10.7,1.8,10.7,7-5.5,7-10.7,7Z"/>
  </g>
  <g>
    <path class="st2" d="M765,1204.8c4.1,1.8,5.9,6.6,4.1,10.6l-33.2,74.7c-1.3,3-4.3,4.8-7.4,4.8s-6.1-1.8-7.4-4.8l-25.8-58.1-25.8,58.1c-1.3,3-4.3,4.8-7.4,4.8s-6.1-1.8-7.4-4.8l-33.2-74.7c-1.8-4.1,0-8.8,4.1-10.6s8.8,0,10.6,4.1l25.8,58.9,25.8-58.9c1.3-3,4.3-4.8,7.4-4.8h0c3.1,0,6.1,1.8,7.4,4.8l25.8,58.9,25.8-58.9c1.8-4.1,6.5-5.9,10.6-4.1h0Z"/>
    <path class="st2" d="M876.8,1286.5c0,4.3-3.5,7.7-7.7,7.7h-50.2c-4.5,0-8-3.6-8-8.1v-73.7c0-4.4,3.6-8.1,8-8.1h50.2c4.3,0,7.7,3.5,7.7,7.7s-3.5,7.7-7.7,7.7h-42.2v24.3h34.2c4.3,0,7.7,3.5,7.7,7.7s-3.5,7.7-7.7,7.7h-34.2v19.1h42.2c4.3,0,7.7,3.5,7.7,7.7h0Z"/>
    <path class="st2" d="M925.7,1286.7c-2.4-1.3-4-3.9-4-6.8,0-5.8,6.1-9.6,11.3-6.9,7.7,3.9,16.3,7.2,25.2,7.2s19.8-1.7,19.7-11c0-7-7.6-8.3-20.3-10.4-13.7-2.2-34.8-5.4-34.8-26.8,0-20.7,19.6-28.7,35.7-28.7s21.6,3.8,30.4,8.4c2.4,1.3,4.1,3.9,4.1,6.8,0,4.3-3.5,7.8-7.8,7.8s-2.6-.3-3.7-.9c-7-3.8-14.8-6.7-23.8-6.7-13.5,0-18.8,6.5-18.8,12.6,0,7.3,7.5,8.3,18.7,10.3,16.8,3,36.3,7.1,36.3,27.1s-23.2,26.9-36.3,26.9-22-3.3-31.9-8.8h0Z"/>
    <path class="st2" d="M1115.3,1212.2c0,4.3-3.5,7.7-7.7,7.7h-24.5v66.3c0,4.4-3.6,8.1-8.1,8.1s-8.1-3.6-8.1-8.1v-66.3h-24.5c-4.3,0-7.7-3.5-7.7-7.7s3.5-7.7,7.7-7.7h65.1c4.3,0,7.7,3.5,7.7,7.7h0Z"/>
    <path class="st2" d="M1250,1286.7c-2.4-1.3-4-3.9-4-6.8,0-5.8,6.1-9.6,11.3-6.9,7.7,3.9,16.3,7.2,25.2,7.2s19.8-1.7,19.7-11c0-7-7.6-8.3-20.3-10.4-13.7-2.2-34.8-5.4-34.8-26.8,0-20.7,19.6-28.7,35.7-28.7s21.6,3.8,30.4,8.4c2.4,1.3,4.1,3.9,4.1,6.8,0,4.3-3.5,7.8-7.8,7.8s-2.6-.3-3.7-.9c-7-3.8-14.8-6.7-23.8-6.7-13.5,0-18.8,6.5-18.8,12.6,0,7.3,7.5,8.3,18.7,10.3,16.8,3,36.3,7.1,36.3,27.1s-23.2,26.9-36.3,26.9-22-3.3-31.9-8.8h0Z"/>
    <path class="st2" d="M1446.2,1212.5v73.7c0,4.4-3.6,8.1-8.1,8.1s-8.1-3.6-8.1-8.1v-27.5h-50.9v27.4c0,4.4-3.6,8.1-8.1,8.1s-8.1-3.6-8.1-8.1v-73.7c0-4.4,3.6-8.1,8.1-8.1s8.1,3.6,8.1,8.1v30.1h50.9v-30.1c0-4.4,3.6-8.1,8.1-8.1s8.1,3.6,8.1,8.1h0Z"/>
    <path class="st2" d="M1489.8,1249.3c0-25.5,21-46.2,46.9-46.2s46.9,20.7,46.9,46.2-21,46.2-46.9,46.2-46.9-20.7-46.9-46.2ZM1567.4,1249.3c0-17-13.8-30.8-30.8-30.8s-30.8,13.8-30.8,30.8,13.8,30.8,30.8,30.8,30.8-13.8,30.8-30.8Z"/>
    <path class="st2" d="M1689.4,1282.3c2.3,3.8,1.2,8.7-2.6,11.1s-8.8,1.2-11.1-2.6l-15.3-24.8h-17.2v20.2c0,4.4-3.6,8.1-8.1,8.1s-8.1-3.6-8.1-8.1v-73.7c0-4.4,3.6-8.1,8.1-8.1h29.6c17.2,0,31,13.7,31,30.7s-7.4,23.2-18.1,28.1l11.8,19.1h0ZM1643.2,1250.5h21.5c8.3,0,14.9-6.8,14.9-15.3s-6.7-15.3-14.9-15.3h-21.5v30.6Z"/>
    <path class="st2" d="M1806.6,1286.5c0,4.3-3.5,7.7-7.7,7.7h-50.2c-4.4,0-8.1-3.6-8.1-8.1v-73.7c0-4.4,3.6-8.1,8.1-8.1h50.2c4.3,0,7.7,3.5,7.7,7.7s-3.5,7.7-7.7,7.7h-42.2v24.3h34.2c4.3,0,7.7,3.5,7.7,7.7s-3.5,7.7-7.7,7.7h-34.2v19.1h42.2c4.3,0,7.7,3.5,7.7,7.7h0Z"/>
  </g>
  <g>
    <path class="st2" d="M212.4,1679.8c27.4,25.3,34.4,55.8,34.4,83.5,0,75.8-49.5,128.1-128.3,128.1s-89.1-9.6-116-37.4c-5.1-21.2-2.5-64.8,7.9-95.5h6c-6.9,70.6,37.8,115.8,98.8,112.4,50-2.8,91.8-37.1,91.8-91.8s-9.8-47.9-26.9-63.8l-131.2-121.9c-27.7-25.3-37.1-58.4-37.1-84.9,0-57.7,42.3-115.8,120.4-115.8s40.6,3.1,58.8,7h27.1v84.1h-6.6c.2-43.8-34.4-70.5-77.1-70.5s-84.2,37-84.2,78.8,6,43.2,27.6,63.2l134.6,124.6h0Z"/>
    <path class="st2" d="M703.9,1881.8v-6.8h8.8c23.8,0,43.1-18.9,43.9-42.6v-177.4h-280.3v176.9c.5,23.9,19.9,43.1,43.9,43.1h8.7v6.8c.1,0-149.8,0-149.8,0v-6.8h8.8c24,0,43.4-19.2,43.9-43.1v-380c-.6-23.7-20-42.8-43.9-42.8h-8.7v-6.8c-.1,0,149.7,0,149.7,0v6.8h-8.8c-23.8,0-43.2,19-43.9,42.7v182.7h280.3v-183.2c-.9-23.5-20.2-42.2-43.8-42.2h-8.7v-6.8c-.1,0,149.7,0,149.7,0v6.8h-8.8c-24,0-43.4,19.2-43.9,43.1v379.7c.5,23.9,19.9,43.1,43.9,43.1h8.7v6.8c.1,0-149.8,0-149.8,0h0Z"/>
    <path class="st2" d="M1376.1,1831.8c13.8,30.5,39.2,43.1,60.2,43.1h5.7v6.8h-154.2v-6.8h6c17.7,0,36-15.6,26-43l-43.8-116.7h-184.5l-45.9,117.1c-9.7,27.2,8.6,42.6,26.2,42.6h6v6.8h-137.9v-6.8h6.2c20.8,0,46.2-12.6,60-43.1l155.3-368.6s25.4-55.5,25.4-70.6h6.2l183.1,439.1h0ZM1268.3,1694.8l-82.6-219.8-86.2,219.8h168.7Z"/>
    <path class="st2" d="M1759.6,1402.4c146.3,0,246,96,246,239.9s-99.7,239.5-246,239.5h-231.9v-6.8h8.8c23.9,0,43.4-19.2,43.9-43v-383.7c0-22-21-39.2-43.6-39.2h-8.7v-6.8c-.1,0,231.5,0,231.5,0h0ZM1624.9,1861h134.6c117.4,0,194.6-87.5,194.6-218.7s-77.9-219.4-194.6-219.4h-134.6v438.1Z"/>
    <path class="st2" d="M2402.9,1881.8h-284v-6.8h8.8c24,0,43.4-19.2,43.9-43.1v-383.6c-2.3-22.1-21-39.2-43.6-39.2h-8.7v-6.8c-.1,0,200.1,0,200.1,0,29.5-.3,69-7.1,81.7-12.5v86.5h-6.9v-12.3c0-21.7-16.9-39.5-38.4-40.8h-139.6v211.8h115.8c18.4-.3,33.1-15.3,33.1-33.7v-10.1h6.7c0,0,0,108.3,0,108.3h-6.7v-10.2c0-18.2-14.4-33-32.4-33.7h-116.5v205.2h98.2c72.6,0,100.5-37.5,121.6-89.7h6.9l-39.9,110.7h0Z"/>
  </g>
  <g>
    <path class="st1" d="M-1739.4,675l3.9,6.8c2.5,4.3,7.9,5.7,12.2,3.3h0c4.3-2.5,5.8-7.9,3.3-12.2l-3.9-6.8c-2.5-4.3-7.9-5.7-12.2-3.3h0c-4.3,2.5-5.8,7.9-3.3,12.2Z"/>
    <path class="st1" d="M-1556,630.5h18.5c5,0,9,4,9,9h0c0,5-4,9-9,9h-18.5c-5,0-9-4-9-9h0c0-5,4-9,9-9Z"/>
    <path class="st1" d="M-1671,515.3h0c-2.5-4.3-7.9-5.8-12.2-3.3l-6.8,4c-4.3,2.5-5.7,7.9-3.3,12.2h0c2.5,4.3,7.9,5.8,12.2,3.3l6.8-4c4.3-2.5,5.7-7.9,3.3-12.2h0Z"/>
    <path class="st1" d="M-1829.7,482.8l-3.9-6.8c-2.5-4.3-7.9-5.7-12.2-3.3h0c-4.3,2.5-5.8,7.9-3.3,12.2l3.9,6.8c2.5,4.3,7.9,5.7,12.2,3.3h0c4.3-2.5,5.8-7.9,3.3-12.2Z"/>
    <path class="st1" d="M-1870.9,589.3c2.1,20.6,11.3,39.1,25.2,53,3.3,3.3,6.8,6.3,10.6,9.1l-17,29.5c-2.5,4.3-1,9.8,3.3,12.2h0c4.3,2.5,9.8,1,12.2-3.3l17-29.5c8.3,3.7,17.4,6.2,26.9,7.2v32.5c0,5,4,9,9,9h0c5,0,9-4,9-9v-32.5c20.6-2.1,39.1-11.3,53-25.2,3.3-3.3,6.3-6.8,9.1-10.6l29.5,17c4.3,2.5,9.8,1,12.2-3.3h0c2.5-4.3,1-9.7-3.3-12.2l-29.5-17c3.8-8.3,6.2-17.4,7.2-26.9h181.5c5,0,9-4,9-9h0c0-5-4-9-9-9h-181.5c-2.1-20.6-11.3-39.1-25.2-53-3.3-3.3-6.8-6.3-10.6-9.1l17-29.5c2.5-4.3,1-9.8-3.3-12.2h0c-4.3-2.5-9.7-1-12.2,3.3l-17,29.5c-8.3-3.8-17.4-6.2-26.9-7.2v-45.9c0-5-4-9-9-9h0c-5,0-9,4-9,9v45.9c-20.6,2.1-39.1,11.3-53,25.2-3.3,3.3-6.3,6.8-9.1,10.6l-29.5-17c-4.3-2.5-9.8-1-12.2,3.3h0c-2.5,4.3-1,9.8,3.3,12.2l29.5,17c-3.8,8.3-6.2,17.4-7.2,26.9h-72.5c-3.8,5.9-7.4,11.9-10.8,18h83.4,0ZM-1833,531.1c12.6-12.6,30-20.4,49.3-20.4s36.7,7.8,49.3,20.4,20.4,30,20.4,49.3-7.8,36.7-20.4,49.3c-12.6,12.6-30,20.4-49.3,20.4s-36.7-7.8-49.3-20.4-20.4-30-20.4-49.3,7.8-36.7,20.4-49.3Z"/>
    <path class="st1" d="M-1591.3,630.5h1c5,0,9,4,9,9h0c0,5-4,9-9,9h-1c-5,0-9-4-9-9h0c0-5,4-9,9-9Z"/>
    <path class="st1" d="M-1547.3,512.5h1c5,0,9,4,9,9h0c0,5-4,9-9,9h-1c-5,0-9-4-9-9h0c0-5,4-9,9-9Z"/>
    <path class="st1" d="M-1899.3,647.1h0c2.5,4.3,8,5.7,12.2,3.3l9.6-5.6c4.3-2.5,5.8-8,3.3-12.2h0c-2.5-4.3-8-5.7-12.2-3.3l-9.6,5.6c-4.3,2.5-5.8,8-3.3,12.2Z"/>
    <path class="st1" d="M-1939.4,518.4s0,0,0,0c0,0,0,0,0,0Z"/>
    <path class="st1" d="M-1472.6,571.4h18.5c5,0,9,4,9,9h0c0,5-4,9-9,9h-18.5c-5,0-9-4-9-9h0c0-5,4-9,9-9Z"/>
    <path class="st1" d="M-1935.4,513.9c-.5.5-.9,1-1.3,1.5.4-.5.9-1,1.3-1.5Z"/>
    <path class="st1" d="M-1930.8,509c-.9,1-1.8,2-2.7,2.9.9-1,1.8-2,2.7-2.9Z"/>
    <path class="st1" d="M-1499.4,630.2h90c5,0,9,4,9,9h0c0,5-4,9-9,9h-90c-5,0-9-4-9-9h0c0-5,4-9,9-9Z"/>
    <path class="st1" d="M-1510.4,512.2h104c5,0,9,4,9,9h0c0,5-4,9-9,9h-104c-5,0-9-4-9-9h0c0-5,4-9,9-9Z"/>
  </g>
  <g>
    <g>
      <path class="st1" d="M-1744.2,76.2c39.1,0,70.8-31.7,70.8-70.8,0,39.1,31.7,70.8,70.8,70.8-39.1,0-70.8,31.7-70.8,70.8,0-39.1-31.7-70.8-70.8-70.8Z"/>
      <path class="st1" d="M-1948.9,139.3c39.1,0,70.8-31.7,70.8-70.8,0,39.1,31.7,70.8,70.8,70.8-39.1,0-70.8,31.7-70.8,70.8,0-39.1-31.7-70.8-70.8-70.8Z"/>
      <path class="st1" d="M-1397.9,139.3c-39.1,0-70.8-31.7-70.8-70.8,0,39.1-31.7,70.8-70.8,70.8,39.1,0,70.8,31.7,70.8,70.8,0-39.1,31.7-70.8,70.8-70.8Z"/>
    </g>
    <g>
      <path class="st1" d="M-2375.7,1264.3h-65c-4.2,0-7.6-3.4-7.6-7.6s3.4-7.6,7.6-7.6h65c4.2,0,7.6,3.4,7.6,7.6s-3.4,7.6-7.6,7.6Z"/>
      <path class="st1" d="M-906.1,1264.3h-64.9c-4.2,0-7.6-3.4-7.6-7.6s3.4-7.6,7.6-7.6h64.9c4.2,0,7.6,3.4,7.6,7.6s-3.4,7.6-7.6,7.6Z"/>
    </g>
  </g>
  <path class="st0" d="M-1399.4,944.8v-25.2h-58.8v-182.8c0-7-5.6-12.6-12.6-12.6s-12.6,5.6-12.6,12.6v89.5h-81.4l-17.5,43.3s0,0,0,0l-20.2,49.9h-52v-121.6h107.8v-62.3h-240.8v62.3h107.8v121.6h-62l-20.2-49.9s0,0,0,0l-17.5-43.3h-81.4v-89.5c0-7-5.6-12.6-12.6-12.6s-12.6,5.6-12.6,12.6v182.8h-61.5v25.2h548,0ZM-1547.8,851.5h64.4v10.5h-68.7l4.2-10.5h0ZM-1562.2,887.1h78.8v32.4h-92l13.1-32.4ZM-1762.3,772.8v-11.9h190.5v11.9h-190.5ZM-1860.8,851.5h64.4l4.2,10.5h-68.7v-10.5h0ZM-1860.8,887.1h78.8l13.1,32.4h-92v-32.4Z"/>
  <path class="st3" d="M-1673.4,225.2c41.7,0,82.2,8.2,120.3,24.3,36.8,15.6,69.8,37.9,98.2,66.2,28.4,28.4,50.7,61.4,66.2,98.2,16.1,38.1,24.3,78.5,24.3,120.3v244c0,41.7-8.2,82.2-24.3,120.3-15.6,36.8-37.8,69.8-66.2,98.2-28.4,28.4-61.4,50.7-98.2,66.2-38.1,16.1-78.5,24.3-120.3,24.3s-82.2-8.2-120.3-24.3c-36.8-15.6-69.8-37.8-98.2-66.2-28.4-28.4-50.7-61.4-66.2-98.2-16.1-38.1-24.3-78.5-24.3-120.3v-244c0-41.7,8.2-82.2,24.3-120.3,15.6-36.8,37.8-69.8,66.2-98.2,28.4-28.4,61.4-50.7,98.2-66.2,38.1-16.1,78.5-24.3,120.3-24.3h0M-1673.4,200.2h0c-184.5,0-334,149.5-334,334v244c0,184.5,149.5,334,334,334h0c184.5,0,334-149.5,334-334v-244c0-184.5-149.5-334-334-334h0Z"/>
  <path class="st0" d="M-1524.3,998.7h-297.1c-6.9,0-12.5-5.6-12.5-12.5s5.6-12.5,12.5-12.5h297.1c6.9,0,12.5,5.6,12.5,12.5s-5.6,12.5-12.5,12.5Z"/>
  <path class="st0" d="M-1608.9,1048.7h-127.5c-6.9,0-12.5-5.6-12.5-12.5s5.6-12.5,12.5-12.5h127.5c6.9,0,12.5,5.6,12.5,12.5s-5.6,12.5-12.5,12.5Z"/>
  <path class="st3" d="M-1673.4,225.2c41.7,0,82.2,8.2,120.3,24.3,36.8,15.6,69.8,37.9,98.2,66.2,28.4,28.4,50.7,61.4,66.2,98.2,16.1,38.1,24.3,78.5,24.3,120.3v244c0,41.7-8.2,82.2-24.3,120.3-15.6,36.8-37.8,69.8-66.2,98.2-28.4,28.4-61.4,50.7-98.2,66.2-38.1,16.1-78.5,24.3-120.3,24.3s-82.2-8.2-120.3-24.3c-36.8-15.6-69.8-37.8-98.2-66.2-28.4-28.4-50.7-61.4-66.2-98.2-16.1-38.1-24.3-78.5-24.3-120.3v-244c0-41.7,8.2-82.2,24.3-120.3,15.6-36.8,37.8-69.8,66.2-98.2,28.4-28.4,61.4-50.7,98.2-66.2,38.1-16.1,78.5-24.3,120.3-24.3h0M-1673.4,200.2h0c-184.5,0-334,149.5-334,334v244c0,184.5,149.5,334,334,334h0c184.5,0,334-149.5,334-334v-244c0-184.5-149.5-334-334-334h0Z"/>
  <path class="st0" d="M-1472.6,333.4c-53.6-53.6-125-83.2-200.8-83.2s-147.2,29.5-200.8,83.2c-53.6,53.6-83.2,125-83.2,200.8v244c0,51.1,13.4,100.1,38.5,143h29.5c-28-42-43-91.4-43-143v-244c0-41.5,9.7-81.5,28-117.5,9.9,6.7,21.5,10.2,33.5,10.2,19.3,0,37.1-9.1,48.4-24.5,11.3,15.4,29.2,24.5,48.4,24.5s41.9-12,52.5-30.8c10.5,18.9,30.6,30.8,52.5,30.8s39.7-10.5,50.7-27.8c11,17.2,30,27.8,50.7,27.8s41.2-11.5,51.8-29.7c10.7,18.2,30.6,29.7,51.8,29.7s16.4-1.7,24-5h0c16.7,34.5,25.5,72.7,25.5,112.2v244c0,51.6-15,101-43,143h29.4c25.1-42.9,38.5-91.9,38.5-143v-244c0-75.9-29.5-147.2-83.2-200.8h0ZM-1834,334.2v32.7c0,2.3.2,4.7.4,7.1-3.4,17.8-19,30.8-37.2,30.8s-1.7,0-2.5,0c0,0-.2,0-.3,0-.8,0-1.6-.1-2.4-.3-.1,0-.3,0-.4,0-.8-.1-1.5-.2-2.3-.4h-.4c-.8-.3-1.5-.5-2.3-.7,0,0-.2,0-.3,0-.8-.2-1.6-.5-2.3-.8,0,0,0,0,0,0-.8-.3-1.5-.6-2.3-1,0,0-.1,0-.2,0-.7-.3-1.5-.7-2.2-1.1-.1,0-.2-.1-.3-.2-.7-.4-1.4-.8-2-1.2,0,0-.1,0-.2-.1,10.3-16.6,22.6-32,36.5-45.9,6.5-6.5,13.5-12.8,20.7-18.6h0ZM-1736.1,366.9c0,20.9-17,37.9-37.9,37.9s-33.8-12.9-37.2-30.8c.3-2.5.4-4.8.4-7.1v-49.4c23.1-14.7,48.2-25.5,74.7-32.1v81.5ZM-1453,403.2c-.8.2-1.6.5-2.4.6-.2,0-.3,0-.4.1-.7.2-1.5.3-2.2.4-.1,0-.3,0-.4,0-.8.1-1.6.2-2.4.3-.2,0-.4,0-.6,0-.8,0-1.7,0-2.5,0-20.9,0-37.9-17-37.9-37.9v-23.4c3.4,3,6.7,6.2,9.9,9.4,15.1,15.1,28.3,32,39.2,50.3,0,0-.1,0-.2,0h0ZM-1529.8,366.9c0,20.9-17,37.9-37.9,37.9s-37.9-17-37.9-37.9v-80.2c27.1,7.4,52.5,19.1,75.8,34.9v45.3h0ZM-1631.1,366.9c0,20.9-17,37.9-37.9,37.9s-37.9-17-37.9-37.9v-87c11.1-1.4,22.4-2.2,33.5-2.2s28.4,1.2,42.3,3.4v85.8h0Z"/>
  <path class="st0" d="M-1673.4,1112.6c-184,0-333.8-149.7-333.8-333.8v-244.6c0-184,149.7-333.8,333.8-333.8s333.8,149.7,333.8,333.8v244.6c0,184-149.7,333.8-333.8,333.8ZM-1673.4,226c-170,0-308.3,138.3-308.3,308.3v244.6c0,170,138.3,308.3,308.3,308.3s308.3-138.3,308.3-308.3v-244.6c0-170-138.3-308.3-308.3-308.3h0Z"/>
  <g>
    <path class="st0" d="M-1479.4,2125.4c-29.2,0-43.8-15.4-56.8-29-11.7-12.2-20.9-21.9-40.2-21.9s-28.5,9.7-40.2,21.9c-12.9,13.6-27.6,29-56.8,29s-43.8-15.4-56.8-29c-11.7-12.2-20.9-21.9-40.2-21.9s-28.5,9.7-40.2,21.9c-12.9,13.6-27.6,29-56.8,29s-43.8-15.4-56.8-29c-11.7-12.2-20.9-21.9-40.2-21.9s-11.5-5.1-11.5-11.5,5.1-11.5,11.5-11.5c29.2,0,43.8,15.4,56.8,29,11.7,12.2,20.9,21.9,40.2,21.9s28.5-9.7,40.2-21.9c12.9-13.6,27.6-29,56.8-29s43.8,15.4,56.8,29c11.7,12.2,20.9,21.9,40.2,21.9s28.5-9.7,40.2-21.9c12.9-13.6,27.6-29,56.8-29s43.8,15.4,56.8,29c11.7,12.2,20.9,21.9,40.2,21.9s28.6-9.7,40.2-21.9c12.9-13.6,27.6-29,56.8-29s11.5,5.1,11.5,11.5-5.1,11.5-11.5,11.5c-19.3,0-28.5,9.7-40.2,21.9-13,13.6-27.6,29-56.8,29h0Z"/>
    <path class="st0" d="M-1479.4,2209c-29.2,0-43.8-15.4-56.8-29-11.7-12.2-20.9-21.9-40.2-21.9s-28.5,9.7-40.2,21.9c-12.9,13.6-27.6,29-56.8,29s-43.8-15.4-56.8-29c-11.7-12.2-20.9-21.9-40.2-21.9s-28.5,9.7-40.2,21.9c-12.9,13.6-27.6,29-56.8,29s-43.8-15.4-56.8-29c-11.7-12.2-20.9-21.9-40.2-21.9s-11.5-5.1-11.5-11.5,5.1-11.5,11.5-11.5c29.2,0,43.8,15.4,56.8,29,11.7,12.2,20.9,21.9,40.2,21.9s28.5-9.7,40.2-21.9c12.9-13.6,27.6-29,56.8-29s43.8,15.4,56.8,29c11.7,12.2,20.9,21.9,40.2,21.9s28.5-9.7,40.2-21.9c12.9-13.6,27.6-29,56.8-29s43.8,15.4,56.8,29c11.7,12.2,20.9,21.9,40.2,21.9s28.6-9.7,40.2-21.9c12.9-13.6,27.6-29,56.8-29s11.5,5.1,11.5,11.5-5.1,11.5-11.5,11.5c-19.3,0-28.5,9.7-40.2,21.9-13,13.6-27.6,29-56.8,29h0Z"/>
  </g>
  <g>
    <path class="st1" d="M-2468.9,2082.5c3.5,0,6.3-2.8,6.3-6.3s-2.8-6.3-6.3-6.3h-34.2c-3.6,0-6.5,2.9-6.5,6.5v50.2c0,3.6,2.9,6.5,6.5,6.5h34.2c3.5,0,6.3-2.8,6.3-6.3s-2.8-6.3-6.3-6.3h-27.8v-11h22.4c3.5,0,6.3-2.8,6.3-6.3s-2.8-6.3-6.3-6.3h-22.4v-14.6h27.8Z"/>
    <path class="st1" d="M-2408.3,2095.3l-1-.2c-7.4-1.3-10.9-2.1-10.9-5.9,0-1.7.6-3.2,1.9-4.5,1.4-1.4,4.3-3.1,9.9-3.1s10.3,1.4,15.8,4.4c.9.5,2,.8,3,.8,3.5,0,6.3-2.8,6.3-6.3s-1.3-4.4-3.3-5.6c-7.3-3.9-14.4-5.9-21.2-5.9-12.2,0-25.3,6.4-25.3,20.6,0,15.3,14.5,17.7,24.2,19.2h.4c8.7,1.5,12.9,2.4,13,6.2,0,1.3-.4,2.4-1.3,3.3-2.3,2.4-7.5,3.2-11.1,3.2s-10.4-1.6-16.7-4.8c-2-1-4.3-.9-6.1.2-1.9,1.2-3,3.2-3,5.4s1.2,4.4,3.2,5.5h0c7,3.9,15.2,6.1,22.2,6.1,11.9,0,25.8-5.1,25.8-19.4s-14.8-17.5-25.6-19.4h0Z"/>
    <path class="st1" d="M-2306.2,2070h-44.4c-3.5,0-6.3,2.8-6.3,6.3s2.8,6.3,6.3,6.3h15.7v44.2c0,3.6,2.9,6.5,6.5,6.5s6.5-2.9,6.5-6.5v-44.2h15.7c3.5,0,6.3-2.8,6.3-6.3s-2.8-6.3-6.3-6.3h0Z"/>
    <path class="st1" d="M-2248.3,2070h-19.3c-3.6,0-6.5,2.9-6.5,6.5v50.2c0,3.6,2.9,6.5,6.5,6.5h19.3c17.7,0,32-14.2,32-31.6s-14.4-31.6-32-31.6h0ZM-2248.3,2120.7h-12.8v-38.1h12.8c10.5,0,19.1,8.6,19.1,19.1s-8.5,19.1-19.1,19.1h0Z"/>
    <path class="st1" d="M-1062.9,2121.1h-14.8c13.8-8.8,20.6-18.1,20.6-28.6,0-5.9-2-11-5.8-14.8-4.3-4.3-10.8-6.7-18.1-6.7-12.7,0-21.4,7.2-22.8,18.9-.2,1.7.4,3.4,1.5,4.6,1.1,1.3,2.8,2,4.4,2,3,0,5.5-2.2,5.9-5.2.7-5.4,4.4-8.1,10.9-8.1s6.9,1,8.8,2.9c1.6,1.6,2.3,3.7,2.3,6.5,0,10.7-15.3,22.3-30.4,29-2.3.9-3.8,3.2-3.8,5.6s2.7,6.1,6.1,6.1h35.1c3.4,0,6.1-2.7,6.1-6.1s-2.7-6.1-6.1-6.1h0Z"/>
    <path class="st1" d="M-1003.3,2070.9c-15.9,0-25.8,12.1-25.8,31.6s9.9,31.6,25.8,31.6,25.8-12.1,25.8-31.6-9.9-31.6-25.8-31.6ZM-1003.3,2121.9c-9.6,0-12.9-10-12.9-19.4s3.4-19.4,12.9-19.4,12.9,10,12.9,19.4-3.4,19.4-12.9,19.4Z"/>
    <path class="st1" d="M-936.6,2071.8h-9.8c-3.4,0-6.1,2.7-6.1,6.1s2.7,6.1,6.1,6.1h3.5v42.8c0,3.5,2.9,6.4,6.4,6.4s6.4-2.9,6.4-6.4v-48.6c0-3.5-2.9-6.4-6.4-6.4h0Z"/>
    <path class="st1" d="M-861.3,2102c3.8-3.2,5.8-7.6,5.8-13,0-11.2-8.7-18.1-22.6-18.1s-22.6,6.9-22.6,18.1,2,9.8,5.8,13c-4.4,3.2-6.7,8-6.7,13.7,0,11.4,9,18.4,23.5,18.4s23.5-7.1,23.5-18.4-2.3-10.5-6.7-13.7h0ZM-878.1,2083.1c4.7,0,9.8,1.7,9.8,6.4s-5.1,6.4-9.8,6.4-9.8-1.7-9.8-6.4,5.1-6.4,9.8-6.4ZM-878.1,2121.9c-5.2,0-10.7-1.8-10.7-7s5.5-7,10.7-7,10.7,1.8,10.7,7-5.5,7-10.7,7Z"/>
  </g>
  <g>
    <path class="st1" d="M-2124.1,1210.2c4.1,1.8,5.9,6.6,4.1,10.6l-33.2,74.7c-1.3,3-4.3,4.8-7.4,4.8s-6.1-1.8-7.4-4.8l-25.8-58.1-25.8,58.1c-1.3,3-4.3,4.8-7.4,4.8s-6.1-1.8-7.4-4.8l-33.2-74.7c-1.8-4.1,0-8.8,4.1-10.6s8.8,0,10.6,4.1l25.8,58.9,25.8-58.9c1.3-3,4.3-4.8,7.4-4.8h0c3.1,0,6.1,1.8,7.4,4.8l25.8,58.9,25.8-58.9c1.8-4.1,6.5-5.9,10.6-4.1h0Z"/>
    <path class="st1" d="M-2012.3,1291.9c0,4.3-3.5,7.7-7.7,7.7h-50.2c-4.5,0-8-3.6-8-8.1v-73.7c0-4.4,3.6-8.1,8-8.1h50.2c4.3,0,7.7,3.5,7.7,7.7s-3.5,7.7-7.7,7.7h-42.2v24.3h34.2c4.3,0,7.7,3.5,7.7,7.7s-3.5,7.7-7.7,7.7h-34.2v19.1h42.2c4.3,0,7.7,3.5,7.7,7.7h0Z"/>
    <path class="st1" d="M-1963.4,1292.1c-2.4-1.3-4-3.9-4-6.8,0-5.8,6.1-9.6,11.3-6.9,7.7,3.9,16.3,7.2,25.2,7.2s19.8-1.7,19.7-11c0-7-7.6-8.3-20.3-10.4-13.7-2.2-34.8-5.4-34.8-26.8,0-20.7,19.6-28.7,35.7-28.7s21.6,3.8,30.4,8.4c2.4,1.3,4.1,3.9,4.1,6.8,0,4.3-3.5,7.8-7.8,7.8s-2.6-.3-3.7-.9c-7-3.8-14.8-6.7-23.8-6.7-13.5,0-18.8,6.5-18.8,12.6,0,7.3,7.5,8.3,18.7,10.3,16.8,3,36.3,7.1,36.3,27.1s-23.2,26.9-36.3,26.9-22-3.3-31.9-8.8h0Z"/>
    <path class="st1" d="M-1773.8,1217.5c0,4.3-3.5,7.7-7.7,7.7h-24.5v66.3c0,4.4-3.6,8.1-8.1,8.1s-8.1-3.6-8.1-8.1v-66.3h-24.5c-4.3,0-7.7-3.5-7.7-7.7s3.5-7.7,7.7-7.7h65.1c4.3,0,7.7,3.5,7.7,7.7h0Z"/>
    <path class="st1" d="M-1639.1,1292.1c-2.4-1.3-4-3.9-4-6.8,0-5.8,6.1-9.6,11.3-6.9,7.7,3.9,16.3,7.2,25.2,7.2s19.8-1.7,19.7-11c0-7-7.6-8.3-20.3-10.4-13.7-2.2-34.8-5.4-34.8-26.8,0-20.7,19.6-28.7,35.7-28.7s21.6,3.8,30.4,8.4c2.4,1.3,4.1,3.9,4.1,6.8,0,4.3-3.5,7.8-7.8,7.8s-2.6-.3-3.7-.9c-7-3.8-14.8-6.7-23.8-6.7-13.5,0-18.8,6.5-18.8,12.6,0,7.3,7.5,8.3,18.7,10.3,16.8,3,36.3,7.1,36.3,27.1s-23.2,26.9-36.3,26.9-22-3.3-31.9-8.8h0Z"/>
    <path class="st1" d="M-1442.9,1217.9v73.7c0,4.4-3.6,8.1-8.1,8.1s-8.1-3.6-8.1-8.1v-27.5h-50.9v27.4c0,4.4-3.6,8.1-8.1,8.1s-8.1-3.6-8.1-8.1v-73.7c0-4.4,3.6-8.1,8.1-8.1s8.1,3.6,8.1,8.1v30.1h50.9v-30.1c0-4.4,3.6-8.1,8.1-8.1s8.1,3.6,8.1,8.1h0Z"/>
    <path class="st1" d="M-1399.3,1254.7c0-25.5,21-46.2,46.9-46.2s46.9,20.7,46.9,46.2-21,46.2-46.9,46.2-46.9-20.7-46.9-46.2ZM-1321.7,1254.7c0-17-13.8-30.8-30.8-30.8s-30.8,13.8-30.8,30.8,13.8,30.8,30.8,30.8,30.8-13.8,30.8-30.8Z"/>
    <path class="st1" d="M-1199.7,1287.7c2.3,3.8,1.2,8.7-2.6,11.1s-8.8,1.2-11.1-2.6l-15.3-24.8h-17.2v20.2c0,4.4-3.6,8.1-8.1,8.1s-8.1-3.6-8.1-8.1v-73.7c0-4.4,3.6-8.1,8.1-8.1h29.6c17.2,0,31,13.7,31,30.7s-7.4,23.2-18.1,28.1l11.8,19.1h0ZM-1245.9,1255.9h21.5c8.3,0,14.9-6.8,14.9-15.3s-6.7-15.3-14.9-15.3h-21.5v30.6Z"/>
    <path class="st1" d="M-1082.5,1291.9c0,4.3-3.5,7.7-7.7,7.7h-50.2c-4.4,0-8.1-3.6-8.1-8.1v-73.7c0-4.4,3.6-8.1,8.1-8.1h50.2c4.3,0,7.7,3.5,7.7,7.7s-3.5,7.7-7.7,7.7h-42.2v24.3h34.2c4.3,0,7.7,3.5,7.7,7.7s-3.5,7.7-7.7,7.7h-34.2v19.1h42.2c4.3,0,7.7,3.5,7.7,7.7h0Z"/>
  </g>
  <g>
    <path class="st0" d="M-2676.7,1685.2c27.4,25.3,34.4,55.8,34.4,83.5,0,75.8-49.5,128.1-128.3,128.1s-89.1-9.6-116-37.4c-5.1-21.2-2.5-64.8,7.9-95.5h6c-6.9,70.6,37.8,115.8,98.8,112.4,50-2.8,91.8-37.1,91.8-91.8s-9.8-47.9-26.9-63.8l-131.2-121.9c-27.7-25.3-37.1-58.4-37.1-84.9,0-57.7,42.3-115.8,120.4-115.8s40.6,3.1,58.8,7h27.1v84.1h-6.6c.2-43.8-34.4-70.5-77.1-70.5s-84.2,37-84.2,78.8,6,43.2,27.6,63.2l134.6,124.6h0Z"/>
    <path class="st0" d="M-2185.2,1887.2v-6.8h8.8c23.8,0,43.1-18.9,43.9-42.6v-177.4h-280.3v176.9c.5,23.9,19.9,43.1,43.9,43.1h8.7v6.8c.1,0-149.8,0-149.8,0v-6.8h8.8c24,0,43.4-19.2,43.9-43.1v-380c-.6-23.7-20-42.8-43.9-42.8h-8.7v-6.8c-.1,0,149.7,0,149.7,0v6.8h-8.8c-23.8,0-43.2,19-43.9,42.7v182.7h280.3v-183.2c-.9-23.5-20.2-42.2-43.8-42.2h-8.7v-6.8c-.1,0,149.7,0,149.7,0v6.8h-8.8c-24,0-43.4,19.2-43.9,43.1v379.7c.5,23.9,19.9,43.1,43.9,43.1h8.7v6.8c.1,0-149.8,0-149.8,0h0Z"/>
    <path class="st0" d="M-1513,1837.2c13.8,30.5,39.2,43.1,60.2,43.1h5.7v6.8h-154.2v-6.8h6c17.7,0,36-15.6,26-43l-43.8-116.7h-184.5l-45.9,117.1c-9.7,27.2,8.6,42.6,26.2,42.6h6v6.8h-137.9v-6.8h6.2c20.8,0,46.2-12.6,60-43.1l155.3-368.6s25.4-55.5,25.4-70.6h6.2l183.1,439.1h0ZM-1620.8,1700.2l-82.6-219.8-86.2,219.8h168.7Z"/>
    <path class="st0" d="M-1129.5,1407.7c146.3,0,246,96,246,239.9s-99.7,239.5-246,239.5h-231.9v-6.8h8.8c23.9,0,43.4-19.2,43.9-43v-383.7c0-22-21-39.2-43.6-39.2h-8.7v-6.8c-.1,0,231.5,0,231.5,0h0ZM-1264.2,1866.4h134.6c117.4,0,194.6-87.5,194.6-218.7s-77.9-219.4-194.6-219.4h-134.6v438.1Z"/>
    <path class="st0" d="M-486.2,1887.2h-284v-6.8h8.8c24,0,43.4-19.2,43.9-43.1v-383.6c-2.3-22.1-21-39.2-43.6-39.2h-8.7v-6.8c-.1,0,200.1,0,200.1,0,29.5-.3,69-7.1,81.7-12.5v86.5h-6.9v-12.3c0-21.7-16.9-39.5-38.4-40.8h-139.6v211.8h115.8c18.4-.3,33.1-15.3,33.1-33.7v-10.1h6.7c0,0,0,108.3,0,108.3h-6.7v-10.2c0-18.2-14.4-33-32.4-33.7h-116.5v205.2h98.2c72.6,0,100.5-37.5,121.6-89.7h6.9l-39.9,110.7h0Z"/>
  </g>
</svg>