<?xml version="1.0" encoding="utf-8"?>
<!-- Generator: Adobe Illustrator 25.2.1, SVG Export Plug-In . SVG Version: 6.00 Build 0)  -->
<svg version="1.1" id="Layer_1" xmlns="http://www.w3.org/2000/svg" xmlns:xlink="http://www.w3.org/1999/xlink" x="0px" y="0px"
	 viewBox="0 0 41.5 41.5" style="enable-background:new 0 0 41.5 41.5;" xml:space="preserve">
<style type="text/css">
	.st0{fill:#FFFFFF;}
</style>
<g id="Layer_2_1_">
	<g id="Layer_1-2">
		<path class="st0" d="M20.7,0C9.3,0,0,9.3,0,20.7s9.3,20.7,20.7,20.7s20.7-9.3,20.7-20.7S32.2,0,20.7,0C20.7,0,20.7,0,20.7,0z
			 M26.8,13.2H25c-1.1-0.2-2.1,0.6-2.3,1.6c0,0.2,0,0.4,0,0.6v2.7h3.9L26,22.1h-3.3V32h-4.4v-9.9h-3.6V18h3.6v-3.1
			c0-3.6,2.1-5.5,5.4-5.5c1.1,0,2.1,0.1,3.2,0.3L26.8,13.2z"/>
	</g>
</g>
</svg>
