<svg xmlns="http://www.w3.org/2000/svg" viewBox="0 0 41.46 41.46"><defs><style>.cls-1{fill:#a8a9ac;}</style></defs><g id="Layer_2" data-name="Layer 2"><g id="Layer_1-2" data-name="Layer 1"><path class="cls-1" d="M20.73,16.93A3.3,3.3,0,1,0,24,20.23,3.3,3.3,0,0,0,20.73,16.93Z"/><path class="cls-1" d="M28.46,14.39a3.33,3.33,0,0,0-1.89-1.88c-1.3-.51-4.4-.4-5.84-.4s-4.53-.12-5.84.4A3.37,3.37,0,0,0,13,14.39c-.51,1.3-.4,4.4-.4,5.84s-.12,4.54.4,5.84A3.34,3.34,0,0,0,14.89,28c1.3.52,4.4.4,5.84.4s4.54.12,5.84-.4a3.36,3.36,0,0,0,1.89-1.88c.51-1.3.39-4.4.39-5.84S29,15.7,28.46,14.39ZM20.73,25.31a5.08,5.08,0,1,1,5.08-5.08A5.07,5.07,0,0,1,20.73,25.31ZM26,16.13a1.19,1.19,0,0,1,0-2.37,1.19,1.19,0,1,1,0,2.37Z"/><path class="cls-1" d="M20.73,0A20.73,20.73,0,1,0,41.46,20.73,20.73,20.73,0,0,0,20.73,0Zm9.84,24.32A5.91,5.91,0,0,1,29,28.47a5.89,5.89,0,0,1-4.15,1.6c-1.64.09-6.54.09-8.17,0a5.93,5.93,0,0,1-4.16-1.6,5.91,5.91,0,0,1-1.6-4.15c-.09-1.64-.09-6.54,0-8.18A5.91,5.91,0,0,1,12.49,12a5.88,5.88,0,0,1,4.16-1.59c1.63-.1,6.53-.1,8.17,0A5.89,5.89,0,0,1,29,12a5.89,5.89,0,0,1,1.6,4.15C30.66,17.78,30.66,22.68,30.57,24.32Z"/></g></g></svg>