<svg id="Layer_1" data-name="Layer 1" xmlns="http://www.w3.org/2000/svg" viewBox="0 0 90 90"><defs><style>.cls-1{fill:#fff;}</style></defs><polygon class="cls-1" points="88.41 0 90 1.59 90 0 88.41 0"/><polygon class="cls-1" points="65.91 0 90 24.09 90 20.91 69.09 0 65.91 0"/><polygon class="cls-1" points="43.41 0 90 46.59 90 43.41 46.59 0 43.41 0"/><polygon class="cls-1" points="20.91 0 90 69.09 90 65.91 24.09 0 20.91 0"/><polygon class="cls-1" points="0 90 1.59 90 0 88.41 0 90"/><polygon class="cls-1" points="0 69.09 20.91 90 24.09 90 0 65.91 0 69.09"/><polygon class="cls-1" points="0 46.59 43.41 90 46.59 90 0 43.41 0 46.59"/><polygon class="cls-1" points="0 24.09 65.91 90 69.09 90 0 20.91 0 24.09"/><polygon class="cls-1" points="0 0 0 1.59 88.41 90 90 90 90 88.41 1.59 0 0 0"/></svg>