<?xml version="1.0" encoding="UTF-8"?>
<svg id="Layer_1" xmlns="http://www.w3.org/2000/svg" xmlns:xlink="http://www.w3.org/1999/xlink" version="1.1" viewBox="0 0 460.9 200.5">
  <!-- Generator: Adobe Illustrator 29.5.1, SVG Export Plug-In . SVG Version: 2.1.0 Build 141)  -->
  <defs>
    <style>
      .st0 {
        fill: none;
      }

      .st1, .st2, .st3 {
        fill: #1fbdc1;
      }

      .st2, .st4, .st5 {
        fill-rule: evenodd;
      }

      .st6 {
        isolation: isolate;
      }

      .st7 {
        clip-path: url(#clippath-1);
      }

      .st8 {
        clip-path: url(#clippath-3);
      }

      .st9 {
        clip-path: url(#clippath-4);
      }

      .st10 {
        clip-path: url(#clippath-2);
      }

      .st11 {
        clip-path: url(#clippath-7);
      }

      .st12 {
        clip-path: url(#clippath-6);
      }

      .st13 {
        clip-path: url(#clippath-5);
      }

      .st14 {
        fill: #fff;
      }

      .st3 {
        clip-rule: evenodd;
      }

      .st5 {
        fill: url(#linear-gradient);
      }

      .st15 {
        fill: #023435;
        font-family: MADETOMMY-Black, 'MADE TOMMY';
        font-size: 22.7px;
        font-weight: 800;
        letter-spacing: .7em;
      }

      .st16 {
        clip-path: url(#clippath);
      }
    </style>
    <linearGradient id="linear-gradient" x1="17.6" y1="133.4" x2="446.8" y2="133.4" gradientUnits="userSpaceOnUse">
      <stop offset="0" stop-color="#33b580"/>
      <stop offset="1" stop-color="#1a90cc"/>
    </linearGradient>
    <clipPath id="clippath">
      <path class="st1" d="M45.1,77.9h27.3c3.2,0,6.2-.7,9-1.7,2.8-1.2,5.2-3,7.4-5.2,2.4-2.2,4.2-5,5.8-8.4,1.4-3.5,2.6-7.4,3.4-11.9.6-4.5.8-8.4.2-11.9-.4-3.5-1.4-6.2-3-8.4-1.4-2.2-3.4-4-5.8-5.2-2.6-1-5.4-1.7-8.6-1.7h-42.6l-13.3,85.1h15.3l4.9-30.6ZM51.2,37.9h20.5c3.2,0,5.9,1,7.7,3,1.8,1.8,2.4,5.3,1.8,9.8-.8,4.5-2.4,7.8-4.9,9.8-2.4,2-5.5,3-8.7,3h-20.5l4.1-25.5Z"/>
    </clipPath>
    <clipPath id="clippath-1">
      <path class="st3" d="M114,60.9h2c1,0,1.8.2,2.4.7.6.2,1.2.7,1.4,1.5.4.5.4,1.2.6,2,0,.7,0,1.2-.2,1.7v.9h13.5l.6-4.5c.2-1.5.2-3.3,0-5.3-.2-1.8-.6-3.5-1.6-5-1-1.8-2.2-3-4.1-4-1.6-1-3.9-1.5-6.5-1.5h-19.7l-9.6,61.3h13.8l7.4-47.7Z"/>
    </clipPath>
    <clipPath id="clippath-2">
      <path class="st1" d="M336.4,95.8h-14c-1.6,0-2.8-.3-3.8-.8-.8-.8-1.4-1.5-1.8-2.3-.4-1-.6-2-.6-3s0-2,.2-2.8l6.1-39.7h-13.7l-6.5,43c-.6,3.3-.4,6.1.2,8.4.6,2.3,1.6,4.3,3.1,5.9,1.4,1.5,3.1,2.8,5.1,3.6,1.8.8,3.7,1.3,5.5,1.3h32l9.6-62.1h-13.8l-7.5,48.5Z"/>
    </clipPath>
    <clipPath id="clippath-3">
      <path class="st1" d="M412.5,83.8h22c2.6,0,5.1-.5,7.3-1.3,2-1,3.9-2.3,5.5-3.8,1.6-1.8,3-3.8,4.1-6,1-2.3,1.8-4.8,2.2-7.3.8-5.5.2-9.8-2-13.3-2.2-3.3-6.1-5-11.2-5h-35.9l-6.1,39.4c-.6,4-.6,7.5.2,10.3.8,2.8,1.8,5,3.5,6.8,1.4,1.5,3.3,2.8,5.3,3.5,2,.8,4.1,1.3,5.9,1.3h34l1.9-12.8h-30.2c-1.8,0-3-.2-4.1-.7-1-.7-1.6-1.2-2.2-2.2-.6-.7-.8-1.9-.8-2.9-.2-1.2,0-2.4.2-3.4l.4-2.7ZM415.8,59.2h17.8c.8,0,1.7.3,2.5.3.8.3,1.4.5,2.1,1s1,1,1.4,1.8c.2.8.2,2,0,3.3-.2,1.3-.6,2.3-1,3.3-.6.8-1.2,1.3-2.1,1.8-.6.5-1.4.8-2.3,1-.8,0-1.7.3-2.7.3h-17.6l1.9-12.8Z"/>
    </clipPath>
    <clipPath id="clippath-4">
      <path class="st3" d="M376,60.9h2c1,0,1.8.2,2.4.7.6.2,1.2.7,1.4,1.5.4.5.6,1.2.6,2v1.1l-.2,1.5h13.5l.6-4.5c.2-1.5.4-3.3.2-5.3-.2-1.8-.8-3.5-1.8-5-.8-1.8-2.2-3-3.9-4-1.8-1-4.1-1.5-6.7-1.5h-19.2l-9.6,61.3h13.3l7.4-47.7Z"/>
    </clipPath>
    <clipPath id="clippath-5">
      <path class="st1" d="M203.1,84.7h14.4c1,0,1.7,0,2.5.2.8,0,1.3.2,1.9.7.6.5,1.2,1,1.3,1.9.2.7.4,1.7.2,2.9-.2,1.5-.6,2.4-1.2,3.2-.6.7-1.2,1.5-1.7,1.9-.8.2-1.5.5-2.3.7-1,.2-1.7.2-2.5.2h-30.6l-2.1,12.8h35.9c5,0,9.3-1.8,12.7-5.4,3.2-3.3,5.2-7.9,6.1-13.5.4-2.5.4-5.1.2-7.4-.4-2.3-1.2-4.3-2.2-5.9-1.2-1.8-2.6-3.1-4.4-3.8-1.8-1-4-1.5-6.7-1.5h-14.5c-.8,0-1.7,0-2.5-.3-.8,0-1.7-.3-2.3-.8-.6-.5-1-1-1.2-1.8-.4-1-.4-2.1-.2-3.4s.6-2.6,1.2-3.4c.4-.8,1-1.3,1.9-1.8.8-.5,1.7-.8,2.5-1,.8,0,1.9-.3,2.7-.3h27.5l1.8-11.9h-32.8c-2.6,0-5.1.5-7.1,1.3-2.2,1-4.1,2.3-5.7,3.8-1.6,1.8-2.8,3.8-4.1,6.2-1,2.3-1.6,4.6-2.2,7.4-.8,5.4,0,10,2.2,13.3,2.2,3.6,5.9,5.4,11.2,5.4h0Z"/>
    </clipPath>
    <clipPath id="clippath-6">
      <path class="st1" d="M147.7,83.8h20.5c2.4,0,4.6-.5,6.6-1.3,1.8-1,3.5-2.3,4.9-3.8,1.5-1.8,2.7-3.8,3.6-6,.9-2.3,1.6-4.8,2-7.3.7-5.5.2-9.8-1.8-13.3-2-3.3-5.5-5-10-5h-33l-5.5,40c-.6,4.1-.6,7.6.2,10.4.7,2.8,1.7,5.1,3.1,6.9,1.3,1.5,3,2.8,4.8,3.6,1.8.8,3.7,1.3,5.4,1.3h31.2l1.7-12.8h-27.5c-1.7,0-2.8-.3-4-.8-.9-.8-1.5-1.3-2.1-2.3-.6-.8-.8-2.1-.8-3.1-.2-1.3,0-2.6.2-3.6l.4-2.9ZM151.1,59.2h16c.7,0,1.5.3,2.2.3.7.3,1.3.5,1.9,1s.9,1,1.3,1.8c.2.8.2,2,0,3.3-.2,1.3-.6,2.3-.9,3.3-.6.8-1.1,1.3-1.9,1.8-.6.5-1.3.8-2,1-.7,0-1.5.3-2.4.3h-15.8l1.7-12.8Z"/>
    </clipPath>
    <clipPath id="clippath-7">
      <path class="st1" d="M262.6,84.7h14.3c1,0,1.8,0,2.7.3.8,0,1.4.3,2.1.8.6.5,1.2,1,1.4,2.1.2.8.4,1.8.2,3.1-.2,1.6-.6,2.6-1.2,3.4-.6.8-1.2,1.6-1.8,2.1-.8.3-1.6.5-2.5.8-1,.3-1.8.3-2.7.3h-30.4l-1.9,11.9h35.9c5,0,9.2-1.8,12.6-5.4,3.2-3.3,5.2-7.9,6-13.5.4-2.5.4-5.1.2-7.4-.4-2.3-1.2-4.3-2.2-5.9-1.2-1.8-2.6-3.1-4.4-3.8-1.8-1-4-1.5-6.6-1.5h-14.5c-.8,0-1.6,0-2.5-.3-.8,0-1.6-.3-2.3-.8-.6-.5-1-1-1.2-1.8-.4-1-.4-2.1-.2-3.4s.6-2.6,1.2-3.4c.4-.8,1-1.3,1.8-1.8.8-.5,1.6-.8,2.5-1,.8,0,1.8-.3,2.7-.3h27.6l1.8-11.9h-32.8c-2.6,0-5.1.5-7.1,1.3-2.2,1-4,2.3-5.7,3.8-1.6,1.8-2.8,3.8-4,6.2-1,2.3-1.6,4.6-2.2,7.4-.8,5.4,0,10,2.2,13.3,2.2,3.6,5.9,5.4,11.1,5.4h0Z"/>
    </clipPath>
  </defs>
  <path class="st4" d="M1815.1,89.5h-433.7c-6.5,13.1-23.6,47.2-36.7,69.1h464c1.7-18.9,4-43.3,6.4-69.1Z"/>
  <polygon points="1481.8 243.5 1581.2 276 1569.2 305.4 1588 277 1637.7 262.5 1582.8 316.7 1564.1 316.7 1481.8 243.5"/>
  <polygon points="1431.7 272.3 1483.1 278 1533.4 316.7 1484 316.7 1431.7 272.3"/>
  <g>
    <polygon points="1320.1 326.5 1378.8 326.5 1424 281.9 1476.3 326.5 1545.7 326.5 1539.2 321.4 1481.8 321.4 1424 272.3 1370.5 324.1 1320.1 326.5"/>
    <path d="M1548.3,327.4h-72.3l-51.9-44.3-44.9,44.3h-59.1v-1.8s50-2.4,50-2.4l53.9-52.1,58.1,49.3h57.4l8.7,7ZM1476.6,325.6h66.5l-4.2-3.4h-57.5l-57.4-48.7-53.2,51.5-12.7.6h20.3l45.5-45,52.7,45Z"/>
  </g>
  <g>
    <polygon points="1441.1 269.5 1449.2 269.5 1470.5 248.9 1557.9 326.5 1588 326.5 1647 270 1697.1 326.5 1725.8 326.5 1700.9 321.4 1647.3 260 1585.4 321.4 1561.5 321.4 1469.2 239.8 1441.1 269.5"/>
    <path d="M1734.6,327.4h-37.9l-49.7-56.1-58.6,56.1h-30.7l-.3-.2-86.8-77.1-21,20.3h-10.5l30.1-31.8.7.6,92.1,81.3h23.2l62.4-61.8,54,61.9,33.2,6.9ZM1697.5,325.6h19.5l-16.6-3.4-53.1-60.9-61.5,61h-24.6l-.3-.2-91.7-81-26,27.5h5.6l21.6-21,87.8,78h29.3l59.5-56.9,50.4,56.9Z"/>
  </g>
  <g>
    <path d="M1424.3,304.2h-4.7c-3.5,0-6.3,2.3-6.3,5.1v3.4h11v-8.5Z"/>
    <path d="M1431.5,304.2h-4.6v8.5h11v-3.3c0-2.8-2.9-5.1-6.4-5.1Z"/>
  </g>
  <g>
    <rect x="1413.3" y="314.7" width="11" height="8.5"/>
    <rect x="1426.9" y="314.7" width="11" height="8.5"/>
  </g>
  <g>
    <path d="M1641.1,305.2h-4.7c-3.5,0-6.3,2.3-6.3,5.1v3.4h11v-8.5Z"/>
    <path d="M1648.3,305.2h-4.6v8.5h11v-3.3c0-2.8-2.9-5.1-6.4-5.1Z"/>
  </g>
  <g>
    <rect x="1630" y="315.7" width="11" height="8.5"/>
    <rect x="1643.6" y="315.7" width="11" height="8.5"/>
  </g>
  <g>
    <rect x="1320.1" y="321.2" width="56.7" height="5.3"/>
    <path d="M1377.7,327.4h-58.5v-7.1h58.5v7.1ZM1321,325.6h54.9v-3.5h-54.9v3.5Z"/>
  </g>
  <polygon points="1736.6 320.4 1697.6 321.2 1697.6 326.5 1735.8 327.3 1736.6 320.4"/>
  <polygon points="1736 325.8 1698.4 325.8 1698.4 322 1736.4 322 1736.6 320.4 1696.8 320.4 1696.8 327.3 1735.8 327.3 1736 325.8"/>
  <path class="st5" d="M446.8,116.2l-423.5,1.7c-2.1,11.5,0,0-5.7,32.5l45.9.2h378.1c1.4-9.4,3.3-21.6,5.3-34.4Z"/>
  <text class="st15" transform="translate(38.2 142.8)"><tspan x="0" y="0">WASHING CLEAN</tspan></text>
  <g>
    <path class="st1" d="M45.1,77.9h27.3c3.2,0,6.2-.7,9-1.7,2.8-1.2,5.2-3,7.4-5.2,2.4-2.2,4.2-5,5.8-8.4,1.4-3.5,2.6-7.4,3.4-11.9.6-4.5.8-8.4.2-11.9-.4-3.5-1.4-6.2-3-8.4-1.4-2.2-3.4-4-5.8-5.2-2.6-1-5.4-1.7-8.6-1.7h-42.6l-13.3,85.1h15.3l4.9-30.6ZM51.2,37.9h20.5c3.2,0,5.9,1,7.7,3,1.8,1.8,2.4,5.3,1.8,9.8-.8,4.5-2.4,7.8-4.9,9.8-2.4,2-5.5,3-8.7,3h-20.5l4.1-25.5Z"/>
    <g class="st16">
      <polygon class="st1" points="99.5 24.3 99.3 30.5 28.3 26.3 28.5 20.1 99.5 24.3"/>
      <polygon class="st1" points="99 30.3 99 30.8 27.8 26.5 28 26 99 30.3"/>
      <polygon class="st1" points="99.8 30.5 99.8 31 28.3 26.8 28.3 26.3 99.8 30.5"/>
      <polygon class="st1" points="99.8 30.8 99.8 31.3 28.3 27 28.3 26.5 99.8 30.8"/>
      <polygon class="st1" points="99.8 31 99.8 31.5 28.3 27.3 28.3 26.8 99.8 31"/>
      <polygon class="st1" points="99.8 31.3 99.8 31.8 28.3 27.5 28.3 27 99.8 31.3"/>
      <polygon class="st1" points="99.8 31.5 99.8 32 28.3 27.8 28.3 27.3 99.8 31.5"/>
      <polygon class="st1" points="99.8 31.8 99.8 32.3 28.3 28 28.3 27.5 99.8 31.8"/>
      <polygon class="st1" points="99.8 32 99.8 32.5 28.3 28.3 28.3 27.8 99.8 32"/>
      <polygon class="st1" points="99.8 32.3 99.8 32.8 28.3 28.5 28.3 28 99.8 32.3"/>
      <polygon class="st1" points="99.8 32.5 99.8 33 28.3 28.8 28.3 28.3 99.8 32.5"/>
      <polygon class="st1" points="99.8 32.8 99.8 33.3 28.3 29 28.3 28.5 99.8 32.8"/>
      <polygon class="st1" points="99.8 33 99.8 33.5 28.3 29.3 28.3 28.8 99.8 33"/>
      <polygon class="st1" points="99.8 33.3 99.8 33.8 28.3 29.5 28.3 29 99.8 33.3"/>
      <polygon class="st1" points="99.8 33.5 99.8 34 28.3 29.8 28.3 29.3 99.8 33.5"/>
      <polygon class="st1" points="99.8 33.8 99.8 34.3 28.3 30 28.3 29.5 99.8 33.8"/>
      <polygon class="st1" points="99.5 34 99.3 34.5 28.3 30.3 28.3 29.8 99.5 34"/>
      <polygon class="st1" points="99 34.2 99 34.7 28.3 30.5 28.3 30 99 34.2"/>
      <polygon class="st1" points="99 34.5 99 35 28.3 30.8 28.3 30.3 99 34.5"/>
      <polygon class="st1" points="99 34.7 99 35.2 28.3 31 28.3 30.5 99 34.7"/>
      <polygon class="st1" points="99 35 99 35.5 28.3 31.3 28.3 30.8 99 35"/>
      <polygon class="st1" points="99 35.2 99 35.7 27.8 31.5 28 31 99 35.2"/>
      <polygon class="st1" points="99 35.5 99 36 27.8 31.8 28 31.3 99 35.5"/>
      <polygon class="st1" points="99 35.7 99 36.2 27.5 32 27.5 31.5 99 35.7"/>
      <polygon class="st1" points="99 36 99 36.5 27.5 32.2 27.5 31.7 99 36"/>
      <polygon class="st1" points="99 36.2 99 36.7 27.5 32.5 27.5 32 99 36.2"/>
      <polygon class="st1" points="99 36.5 99 37 27.5 32.7 27.5 32.2 99 36.5"/>
      <polygon class="st1" points="99 36.7 99 37.2 27.5 33 27.5 32.5 99 36.7"/>
      <polygon class="st1" points="99 37 99 37.5 27.5 33.2 27.5 32.7 99 37"/>
      <polygon class="st1" points="99 37.2 99 37.7 27.5 33.5 27.5 33 99 37.2"/>
      <polygon class="st1" points="99 37.5 99 38 27.5 33.7 27.5 33.2 99 37.5"/>
      <polygon class="st1" points="99 37.7 99 38.2 27.5 34 27.5 33.5 99 37.7"/>
      <polygon class="st1" points="99 38 99 38.5 27.5 34.2 27.5 33.7 99 38"/>
      <polygon class="st1" points="99 38.2 99 38.7 27.5 34.5 27.5 34 99 38.2"/>
      <polygon class="st1" points="99 38.5 99 39 27.5 34.7 27.5 34.2 99 38.5"/>
      <polygon class="st1" points="99 38.7 99 39.2 27.5 35 27.5 34.5 99 38.7"/>
      <polygon class="st1" points="99.5 39 99.3 39.5 28.3 35.2 28.3 34.7 99.5 39"/>
      <polygon class="st1" points="99.5 39.2 99.3 39.7 28.3 35.5 28.3 35 99.5 39.2"/>
      <polygon class="st1" points="99 39.5 99 40 28.3 35.7 28.3 35.3 99 39.5"/>
      <polygon class="st1" points="99 39.7 99 40.2 28.3 36 28.3 35.5 99 39.7"/>
      <polygon class="st1" points="99 40 99 40.5 28.3 36.2 28.3 35.7 99 40"/>
      <polygon class="st1" points="99 40.2 99 40.7 28.3 36.5 28.3 36 99 40.2"/>
      <polygon class="st1" points="99 40.5 99 41 27.8 36.7 28 36.2 99 40.5"/>
      <polygon class="st1" points="99 40.7 99 41.2 27.5 37 27.5 36.5 99 40.7"/>
      <polygon class="st1" points="99 41 99 41.5 27.5 37.2 27.5 36.7 99 41"/>
      <polygon class="st1" points="99 41.2 99 41.7 27.5 37.5 27.5 37 99 41.2"/>
      <polygon class="st1" points="99 41.5 99 42 27.5 37.7 27.5 37.2 99 41.5"/>
      <polygon class="st1" points="99 41.7 99 42.2 27.5 38 27.5 37.5 99 41.7"/>
      <polygon class="st1" points="99 42 99 42.5 27.5 38.2 27.5 37.7 99 42"/>
      <polygon class="st1" points="99 42.2 99 42.7 27.5 38.5 27.5 38 99 42.2"/>
      <polygon class="st1" points="99 42.5 99 43 27.5 38.7 27.5 38.2 99 42.5"/>
      <polygon class="st1" points="99 42.7 99 43.2 27.5 39 27.5 38.5 99 42.7"/>
      <polygon class="st1" points="99 43 99 43.5 27.5 39.2 27.5 38.7 99 43"/>
      <polygon class="st1" points="99 43.2 99 43.7 27.5 39.5 27.5 39 99 43.2"/>
      <polygon class="st1" points="99 43.5 99 44 27.5 39.7 27.5 39.2 99 43.5"/>
      <polygon class="st1" points="99 43.7 99 44.2 27.5 40 27.5 39.5 99 43.7"/>
      <polygon class="st1" points="99 44 99 44.5 27.5 40.2 27.5 39.7 99 44"/>
      <polygon class="st1" points="98.6 44.2 98.4 44.7 27.5 40.5 27.5 40 98.6 44.2"/>
      <polygon class="st1" points="98.1 44.4 98.1 44.9 27.5 40.7 27.5 40.2 98.1 44.4"/>
      <polygon class="st1" points="98.1 44.7 98.1 45.2 27.5 41 27.5 40.5 98.1 44.7"/>
      <polygon class="st1" points="98.1 44.9 98.1 45.4 27.5 41.2 27.5 40.7 98.1 44.9"/>
      <polygon class="st1" points="98.1 45.2 98.1 45.7 27.5 41.5 27.5 41 98.1 45.2"/>
      <polygon class="st1" points="99 45.4 99 45.9 27.8 41.7 28 41.2 99 45.4"/>
      <polygon class="st1" points="99 45.7 99 46.2 27.8 42 28 41.5 99 45.7"/>
      <polygon class="st1" points="99 46 99 46.5 27.5 42.2 27.5 41.7 99 46"/>
      <polygon class="st1" points="99 46.2 99 46.7 27.5 42.5 27.5 42 99 46.2"/>
      <polygon class="st1" points="99 46.5 99 47 27.5 42.7 27.5 42.2 99 46.5"/>
      <polygon class="st1" points="99 46.7 99 47.2 27.5 42.9 27.5 42.4 99 46.7"/>
      <polygon class="st1" points="99 46.9 99 47.4 27.5 43.2 27.5 42.7 99 46.9"/>
      <polygon class="st1" points="99 47.2 99 47.7 27.5 43.4 27.5 42.9 99 47.2"/>
      <polygon class="st1" points="99 47.4 99 47.9 27.5 43.7 27.5 43.2 99 47.4"/>
      <polygon class="st1" points="99 47.7 99 48.2 27.5 43.9 27.5 43.4 99 47.7"/>
      <polygon class="st1" points="99 47.9 99 48.4 27.5 44.2 27.5 43.7 99 47.9"/>
      <polygon class="st1" points="99 48.2 99 48.7 27.5 44.4 27.5 43.9 99 48.2"/>
      <polygon class="st1" points="99 48.4 99 48.9 27.5 44.7 27.5 44.2 99 48.4"/>
      <polygon class="st1" points="99 48.7 99 49.2 27.5 44.9 27.5 44.4 99 48.7"/>
      <polygon class="st1" points="99 48.9 99 49.4 27.5 45.2 27.5 44.7 99 48.9"/>
      <polygon class="st1" points="98.6 49.2 98.4 49.7 27.5 45.4 27.5 44.9 98.6 49.2"/>
      <polygon class="st1" points="98.6 49.4 98.4 49.9 27.5 45.7 27.5 45.2 98.6 49.4"/>
      <polygon class="st1" points="98.1 49.7 98.1 50.2 27.5 46 27.5 45.5 98.1 49.7"/>
      <polygon class="st1" points="98.1 49.9 98.1 50.4 27.5 46.2 27.5 45.7 98.1 49.9"/>
      <polygon class="st1" points="98.1 50.2 98.1 50.7 27.5 46.5 27.5 46 98.1 50.2"/>
      <polygon class="st1" points="98.1 50.4 98.1 50.9 27.5 46.7 27.5 46.2 98.1 50.4"/>
      <polygon class="st1" points="98.1 50.7 98.1 51.2 26.9 46.9 27.1 46.4 98.1 50.7"/>
      <polygon class="st1" points="99 50.9 99 51.4 27.5 47.2 27.5 46.7 99 50.9"/>
      <polygon class="st1" points="99 51.2 99 51.7 27.5 47.4 27.5 46.9 99 51.2"/>
      <polygon class="st1" points="99 51.4 99 51.9 27.5 47.7 27.5 47.2 99 51.4"/>
      <polygon class="st1" points="99 51.7 99 52.2 27.5 47.9 27.5 47.4 99 51.7"/>
      <polygon class="st1" points="99 51.9 99 52.4 27.5 48.2 27.5 47.7 99 51.9"/>
      <polygon class="st1" points="99 52.2 99 52.7 27.5 48.4 27.5 47.9 99 52.2"/>
      <polygon class="st1" points="99 52.4 99 52.9 27.5 48.7 27.5 48.2 99 52.4"/>
      <polygon class="st1" points="99 52.7 99 53.2 27.5 48.9 27.5 48.4 99 52.7"/>
      <polygon class="st1" points="99 52.9 99 53.4 27.5 49.2 27.5 48.7 99 52.9"/>
      <polygon class="st1" points="99 53.2 99 53.7 27.5 49.4 27.5 48.9 99 53.2"/>
      <polygon class="st1" points="99 53.4 99 53.9 27.5 49.7 27.5 49.2 99 53.4"/>
      <polygon class="st1" points="99 53.7 99 54.2 27.5 49.9 27.5 49.4 99 53.7"/>
      <polygon class="st1" points="99 53.9 99 54.4 27.5 50.2 27.5 49.7 99 53.9"/>
      <polygon class="st1" points="99 54.2 99 54.7 27.5 50.4 27.5 49.9 99 54.2"/>
      <polygon class="st1" points="98.6 54.4 98.4 54.9 27.5 50.7 27.5 50.2 98.6 54.4"/>
      <polygon class="st1" points="98.1 54.6 98.1 55.1 27.5 50.9 27.5 50.4 98.1 54.6"/>
      <polygon class="st1" points="98.1 54.9 98.1 55.4 27.5 51.2 27.5 50.7 98.1 54.9"/>
      <polygon class="st1" points="98.1 55.1 98.1 55.6 27.5 51.4 27.5 50.9 98.1 55.1"/>
      <polygon class="st1" points="98.1 55.4 98.1 55.9 27.5 51.7 27.5 51.2 98.1 55.4"/>
      <polygon class="st1" points="98.1 55.7 98.1 56.2 26.9 51.9 27.1 51.4 98.1 55.7"/>
      <polygon class="st1" points="98.1 55.9 98.1 56.4 26.9 52.2 27.1 51.7 98.1 55.9"/>
      <polygon class="st1" points="98.1 56.2 98.1 56.7 26.6 52.4 26.6 51.9 98.1 56.2"/>
      <polygon class="st1" points="98.1 56.4 98.1 56.9 26.6 52.7 26.6 52.2 98.1 56.4"/>
      <polygon class="st1" points="98.1 56.7 98.1 57.2 26.6 52.9 26.6 52.4 98.1 56.7"/>
      <polygon class="st1" points="98.1 56.9 98.1 57.4 26.6 53.2 26.6 52.7 98.1 56.9"/>
      <polygon class="st1" points="98.1 57.2 98.1 57.7 26.6 53.4 26.6 52.9 98.1 57.2"/>
      <polygon class="st1" points="98.1 57.4 98.1 57.9 26.6 53.7 26.6 53.2 98.1 57.4"/>
      <polygon class="st1" points="98.1 57.7 98.1 58.2 26.6 53.9 26.6 53.4 98.1 57.7"/>
      <polygon class="st1" points="98.1 57.9 98.1 58.4 26.6 54.2 26.6 53.7 98.1 57.9"/>
      <polygon class="st1" points="98.1 58.2 98.1 58.7 26.6 54.4 26.6 53.9 98.1 58.2"/>
      <polygon class="st1" points="98.1 58.4 98.1 58.9 26.6 54.6 26.6 54.1 98.1 58.4"/>
      <polygon class="st1" points="98.1 58.7 98.1 59.2 26.6 54.9 26.6 54.4 98.1 58.7"/>
      <polygon class="st1" points="98.1 58.9 98.1 59.4 26.6 55.1 26.6 54.6 98.1 58.9"/>
      <polygon class="st1" points="98.1 59.1 98.1 59.6 26.6 55.4 26.6 54.9 98.1 59.1"/>
      <polygon class="st1" points="98.6 59.4 98.4 59.9 27.5 55.7 27.5 55.2 98.6 59.4"/>
      <polygon class="st1" points="98.6 59.6 98.4 60.1 27.5 55.9 27.5 55.4 98.6 59.6"/>
      <polygon class="st1" points="98.1 59.9 98.1 60.4 27.5 56.2 27.5 55.7 98.1 59.9"/>
      <polygon class="st1" points="98.1 60.1 98.1 60.6 27.5 56.4 27.5 55.9 98.1 60.1"/>
      <polygon class="st1" points="98.1 60.4 98.1 60.9 27.5 56.7 27.5 56.2 98.1 60.4"/>
      <polygon class="st1" points="98.1 60.6 98.1 61.1 27.5 56.9 27.5 56.4 98.1 60.6"/>
      <polygon class="st1" points="98.1 60.9 98.1 61.4 26.9 57.1 27.1 56.7 98.1 60.9"/>
      <polygon class="st1" points="98.1 61.1 98.1 61.6 26.6 57.4 26.6 56.9 98.1 61.1"/>
      <polygon class="st1" points="98.1 61.4 98.1 61.9 26.6 57.6 26.6 57.1 98.1 61.4"/>
      <polygon class="st1" points="98.1 61.6 98.1 62.1 26.6 57.9 26.6 57.4 98.1 61.6"/>
      <polygon class="st1" points="98.1 61.9 98.1 62.4 26.6 58.1 26.6 57.6 98.1 61.9"/>
      <polygon class="st1" points="98.1 62.1 98.1 62.6 26.6 58.4 26.6 57.9 98.1 62.1"/>
      <polygon class="st1" points="98.1 62.4 98.1 62.9 26.6 58.6 26.6 58.1 98.1 62.4"/>
      <polygon class="st1" points="98.1 62.6 98.1 63.1 26.6 58.9 26.6 58.4 98.1 62.6"/>
      <polygon class="st1" points="98.1 62.9 98.1 63.4 26.6 59.1 26.6 58.6 98.1 62.9"/>
      <polygon class="st1" points="98.1 63.1 98.1 63.6 26.6 59.4 26.6 58.9 98.1 63.1"/>
      <polygon class="st1" points="98.1 63.4 98.1 63.9 26.6 59.6 26.6 59.1 98.1 63.4"/>
      <polygon class="st1" points="98.1 63.6 98.1 64.1 26.6 59.9 26.6 59.4 98.1 63.6"/>
      <polygon class="st1" points="98.1 63.9 98.1 64.4 26.6 60.1 26.6 59.6 98.1 63.9"/>
      <polygon class="st1" points="98.1 64.1 98.1 64.6 26.6 60.4 26.6 59.9 98.1 64.1"/>
      <polygon class="st1" points="98.1 64.4 98.1 64.9 26.6 60.6 26.6 60.1 98.1 64.4"/>
      <polygon class="st1" points="97.8 64.6 97.6 65.1 26.6 60.9 26.6 60.4 97.8 64.6"/>
      <polygon class="st1" points="98.1 64.9 98.1 65.4 27.5 61.1 27.5 60.6 98.1 64.9"/>
      <polygon class="st1" points="98.1 65.1 98.1 65.6 27.5 61.4 27.5 60.9 98.1 65.1"/>
      <polygon class="st1" points="98.1 65.4 98.1 65.9 27.5 61.6 27.5 61.1 98.1 65.4"/>
      <polygon class="st1" points="98.1 65.6 98.1 66.1 27.5 61.9 27.5 61.4 98.1 65.6"/>
      <polygon class="st1" points="98.1 65.9 98.1 66.4 26.9 62.1 27.1 61.6 98.1 65.9"/>
      <polygon class="st1" points="98.1 66.1 98.1 66.6 26.9 62.4 27.1 61.9 98.1 66.1"/>
      <polygon class="st1" points="98.1 66.4 98.1 66.9 26.6 62.6 26.6 62.1 98.1 66.4"/>
      <polygon class="st1" points="98.1 66.6 98.1 67.1 26.6 62.9 26.6 62.4 98.1 66.6"/>
      <polygon class="st1" points="98.1 66.9 98.1 67.4 26.6 63.1 26.6 62.6 98.1 66.9"/>
      <polygon class="st1" points="98.1 67.1 98.1 67.6 26.6 63.4 26.6 62.9 98.1 67.1"/>
      <polygon class="st1" points="98.1 67.4 98.1 67.9 26.6 63.6 26.6 63.1 98.1 67.4"/>
      <polygon class="st1" points="98.1 67.6 98.1 68.1 26.6 63.9 26.6 63.4 98.1 67.6"/>
      <polygon class="st1" points="98.1 67.9 98.1 68.4 26.6 64.1 26.6 63.6 98.1 67.9"/>
      <polygon class="st1" points="98.1 68.1 98.1 68.6 26.6 64.4 26.6 63.9 98.1 68.1"/>
      <polygon class="st1" points="98.1 68.4 98.1 68.9 26.6 64.6 26.6 64.1 98.1 68.4"/>
      <polygon class="st1" points="98.1 68.6 98.1 69.1 26.6 64.9 26.6 64.4 98.1 68.6"/>
      <polygon class="st1" points="98.1 68.9 98.1 69.4 26.6 65.1 26.6 64.6 98.1 68.9"/>
      <polygon class="st1" points="98.1 69.1 98.1 69.6 26.6 65.4 26.6 64.9 98.1 69.1"/>
      <polygon class="st1" points="98.1 69.4 98.1 69.9 26.6 65.6 26.6 65.1 98.1 69.4"/>
      <polygon class="st1" points="97.8 69.6 97.6 70.1 26.6 65.9 26.6 65.4 97.8 69.6"/>
      <polygon class="st1" points="97.8 69.8 97.6 70.3 26.6 66.1 26.6 65.6 97.8 69.8"/>
      <polygon class="st1" points="97.3 70.1 97.3 70.6 26.6 66.4 26.6 65.9 97.3 70.1"/>
      <polygon class="st1" points="97.3 70.3 97.3 70.8 26.6 66.6 26.6 66.1 97.3 70.3"/>
      <polygon class="st1" points="97.3 70.6 97.3 71.1 26.6 66.9 26.6 66.4 97.3 70.6"/>
      <polygon class="st1" points="97.3 70.8 97.3 71.3 26.6 67.1 26.6 66.6 97.3 70.8"/>
      <polygon class="st1" points="97.3 71.1 97.3 71.6 26.1 67.4 26.3 66.9 97.3 71.1"/>
      <polygon class="st1" points="98.1 71.3 98.1 71.8 26.6 67.6 26.6 67.1 98.1 71.3"/>
      <polygon class="st1" points="98.1 71.6 98.1 72.1 26.6 67.8 26.6 67.3 98.1 71.6"/>
      <polygon class="st1" points="98.1 71.8 98.1 72.3 26.6 68.1 26.6 67.6 98.1 71.8"/>
      <polygon class="st1" points="98.1 72.1 98.1 72.6 26.6 68.3 26.6 67.8 98.1 72.1"/>
      <polygon class="st1" points="98.1 72.3 98.1 72.8 26.6 68.6 26.6 68.1 98.1 72.3"/>
      <polygon class="st1" points="98.1 72.6 98.1 73.1 26.6 68.8 26.6 68.3 98.1 72.6"/>
      <polygon class="st1" points="98.1 72.8 98.1 73.3 26.6 69.1 26.6 68.6 98.1 72.8"/>
      <polygon class="st1" points="98.1 73.1 98.1 73.6 26.6 69.3 26.6 68.8 98.1 73.1"/>
      <polygon class="st1" points="98.1 73.3 98.1 73.8 26.6 69.6 26.6 69.1 98.1 73.3"/>
      <polygon class="st1" points="98.1 73.6 98.1 74.1 26.6 69.8 26.6 69.3 98.1 73.6"/>
      <polygon class="st1" points="98.1 73.8 98.1 74.3 26.6 70.1 26.6 69.6 98.1 73.8"/>
      <polygon class="st1" points="98.1 74.1 98.1 74.6 26.6 70.3 26.6 69.8 98.1 74.1"/>
      <polygon class="st1" points="98.1 74.3 98.1 74.8 26.6 70.6 26.6 70.1 98.1 74.3"/>
      <polygon class="st1" points="98.1 74.6 98.1 75.1 26.6 70.8 26.6 70.3 98.1 74.6"/>
      <polygon class="st1" points="97.8 74.8 97.6 75.3 26.6 71.1 26.6 70.6 97.8 74.8"/>
      <polygon class="st1" points="97.3 75.1 97.3 75.6 26.6 71.3 26.6 70.9 97.3 75.1"/>
      <polygon class="st1" points="97.3 75.3 97.3 75.8 26.6 71.6 26.6 71.1 97.3 75.3"/>
      <polygon class="st1" points="97.3 75.6 97.3 76.1 26.6 71.8 26.6 71.3 97.3 75.6"/>
      <polygon class="st1" points="97.3 75.8 97.3 76.3 26.6 72.1 26.6 71.6 97.3 75.8"/>
      <polygon class="st1" points="97.3 76.1 97.3 76.6 26.1 72.3 26.3 71.8 97.3 76.1"/>
      <polygon class="st1" points="97.3 76.3 97.3 76.8 26.1 72.6 26.3 72.1 97.3 76.3"/>
      <polygon class="st1" points="97.3 76.6 97.3 77.1 25.8 72.8 25.8 72.3 97.3 76.6"/>
      <polygon class="st1" points="97.3 76.8 97.3 77.3 25.8 73.1 25.8 72.6 97.3 76.8"/>
      <polygon class="st1" points="97.3 77.1 97.3 77.6 25.8 73.3 25.8 72.8 97.3 77.1"/>
      <polygon class="st1" points="97.3 77.3 97.3 77.8 25.8 73.6 25.8 73.1 97.3 77.3"/>
      <polygon class="st1" points="97.3 77.6 97.3 78.1 25.8 73.8 25.8 73.3 97.3 77.6"/>
      <polygon class="st1" points="97.3 77.8 97.3 78.3 25.8 74.1 25.8 73.6 97.3 77.8"/>
      <polygon class="st1" points="97.3 78.1 97.3 78.6 25.8 74.3 25.8 73.8 97.3 78.1"/>
      <polygon class="st1" points="97.3 78.3 97.3 78.8 25.8 74.6 25.8 74.1 97.3 78.3"/>
      <polygon class="st1" points="97.3 78.6 97.3 79.1 25.8 74.8 25.8 74.3 97.3 78.6"/>
      <polygon class="st1" points="97.3 78.8 97.3 79.3 25.8 75.1 25.8 74.6 97.3 78.8"/>
      <polygon class="st1" points="97.3 79.1 97.3 79.6 25.8 75.3 25.8 74.8 97.3 79.1"/>
      <polygon class="st1" points="97.3 79.3 97.3 79.8 25.8 75.6 25.8 75.1 97.3 79.3"/>
      <polygon class="st1" points="97.3 79.6 97.3 80.1 25.8 75.8 25.8 75.3 97.3 79.6"/>
      <polygon class="st1" points="97.8 79.8 97.6 80.3 26.6 76.1 26.6 75.6 97.8 79.8"/>
      <polygon class="st1" points="97.8 80.1 97.6 80.6 26.6 76.3 26.6 75.8 97.8 80.1"/>
      <polygon class="st1" points="97.3 80.3 97.3 80.8 26.6 76.6 26.6 76.1 97.3 80.3"/>
      <polygon class="st1" points="97.3 80.5 97.3 81 26.6 76.8 26.6 76.3 97.3 80.5"/>
      <polygon class="st1" points="97.3 80.8 97.3 81.3 26.6 77.1 26.6 76.6 97.3 80.8"/>
      <polygon class="st1" points="97.3 81 97.3 81.5 26.6 77.3 26.6 76.8 97.3 81"/>
      <polygon class="st1" points="97.3 81.3 97.3 81.8 26.1 77.6 26.3 77.1 97.3 81.3"/>
      <polygon class="st1" points="97.3 81.6 97.3 82.1 25.8 77.8 25.8 77.3 97.3 81.6"/>
      <polygon class="st1" points="97.3 81.8 97.3 82.3 25.8 78.1 25.8 77.6 97.3 81.8"/>
      <polygon class="st1" points="97.3 82.1 97.3 82.6 25.8 78.3 25.8 77.8 97.3 82.1"/>
      <polygon class="st1" points="97.3 82.3 97.3 82.8 25.8 78.6 25.8 78.1 97.3 82.3"/>
      <polygon class="st1" points="97.3 82.6 97.3 83.1 25.8 78.8 25.8 78.3 97.3 82.6"/>
      <polygon class="st1" points="97.3 82.8 97.3 83.3 25.8 79 25.8 78.5 97.3 82.8"/>
      <polygon class="st1" points="97.3 83 97.3 83.5 25.8 79.3 25.8 78.8 97.3 83"/>
      <polygon class="st1" points="97.3 83.3 97.3 83.8 25.8 79.5 25.8 79 97.3 83.3"/>
      <polygon class="st1" points="97.3 83.5 97.3 84 25.8 79.8 25.8 79.3 97.3 83.5"/>
      <polygon class="st1" points="97.3 83.8 97.3 84.3 25.8 80 25.8 79.5 97.3 83.8"/>
      <polygon class="st1" points="97.3 84 97.3 84.5 25.8 80.3 25.8 79.8 97.3 84"/>
      <polygon class="st1" points="97.3 84.3 97.3 84.8 25.8 80.5 25.8 80 97.3 84.3"/>
      <polygon class="st1" points="97.3 84.5 97.3 85 25.8 80.8 25.8 80.3 97.3 84.5"/>
      <polygon class="st1" points="97.3 84.8 97.3 85.3 25.8 81 25.8 80.5 97.3 84.8"/>
      <polygon class="st1" points="96.9 85 96.7 85.5 25.8 81.3 25.8 80.8 96.9 85"/>
      <polygon class="st1" points="97.3 85.3 97.3 85.8 26.6 81.6 26.6 81.1 97.3 85.3"/>
      <polygon class="st1" points="97.3 85.5 97.3 86 26.6 81.8 26.6 81.3 97.3 85.5"/>
      <polygon class="st1" points="97.3 85.8 97.3 86.3 26.6 82.1 26.6 81.6 97.3 85.8"/>
      <polygon class="st1" points="97.3 86 97.3 86.5 26.6 82.3 26.6 81.8 97.3 86"/>
      <polygon class="st1" points="97.3 86.3 97.3 86.8 26.1 82.5 26.3 82 97.3 86.3"/>
      <polygon class="st1" points="97.3 86.5 97.3 87 26.1 82.8 26.3 82.3 97.3 86.5"/>
      <polygon class="st1" points="97.1 86.8 96.1 112.7 24.9 108.4 25.9 82.5 97.1 86.8"/>
    </g>
  </g>
  <g>
    <path class="st2" d="M114,60.9h2c1,0,1.8.2,2.4.7.6.2,1.2.7,1.4,1.5.4.5.4,1.2.6,2,0,.7,0,1.2-.2,1.7v.9h13.5l.6-4.5c.2-1.5.2-3.3,0-5.3-.2-1.8-.6-3.5-1.6-5-1-1.8-2.2-3-4.1-4-1.6-1-3.9-1.5-6.5-1.5h-19.7l-9.6,61.3h13.8l7.4-47.7Z"/>
    <g class="st7">
      <polygon class="st2" points="134.5 48.4 134.3 48.9 95.6 45.9 95.6 45.4 134.5 48.4"/>
      <polygon class="st2" points="134.7 48.9 134.7 49.2 96.4 46.2 96.4 46 134.7 48.9"/>
      <polygon class="st2" points="134.7 49.2 134.7 49.4 96.4 46.5 96.4 46.2 134.7 49.2"/>
      <polygon class="st2" points="134.7 49.4 134.7 49.7 96.4 46.7 96.4 46.5 134.7 49.4"/>
      <polygon class="st2" points="134.7 49.7 134.7 49.9 96.4 47 96.4 46.7 134.7 49.7"/>
      <polygon class="st2" points="134.7 49.9 134.7 50.2 96.4 47.2 96.4 47 134.7 49.9"/>
      <polygon class="st2" points="134.7 50.2 134.7 50.4 96.4 47.5 96.4 47.2 134.7 50.2"/>
      <polygon class="st2" points="134.7 50.4 134.7 50.7 96.4 47.7 96.4 47.5 134.7 50.4"/>
      <polygon class="st2" points="134.7 50.7 134.7 50.9 96.4 48 96.4 47.7 134.7 50.7"/>
      <polygon class="st2" points="134.7 50.9 134.7 51.2 96.4 48.2 96.4 48 134.7 50.9"/>
      <polygon class="st2" points="134.7 51.2 134.7 51.4 96.4 48.4 96.4 48.2 134.7 51.2"/>
      <polygon class="st2" points="134.7 51.4 134.7 51.7 96.4 48.7 96.4 48.5 134.7 51.4"/>
      <polygon class="st2" points="134.7 51.7 134.7 51.9 95.8 48.9 96 48.7 134.7 51.7"/>
      <polygon class="st2" points="134.7 51.9 134.7 52.2 95.8 49.2 96 48.9 134.7 51.9"/>
      <polygon class="st2" points="134.5 52.2 134.3 52.4 95.6 49.4 95.6 49.2 134.5 52.2"/>
      <polygon class="st2" points="134.5 52.4 134.3 52.7 95.6 49.7 95.6 49.4 134.5 52.4"/>
      <polygon class="st2" points="133.9 52.7 133.9 52.9 95.6 49.9 95.6 49.7 133.9 52.7"/>
      <polygon class="st2" points="133.9 52.9 133.9 53.1 95.6 50.2 95.6 49.9 133.9 52.9"/>
      <polygon class="st2" points="133.9 53.2 133.9 53.4 95.6 50.4 95.6 50.2 133.9 53.2"/>
      <polygon class="st2" points="133.9 53.4 133.9 53.6 95.6 50.7 95.6 50.4 133.9 53.4"/>
      <polygon class="st2" points="133.9 53.6 133.9 53.9 95.6 50.9 95.6 50.7 133.9 53.6"/>
      <polygon class="st2" points="133.9 53.9 133.9 54.1 95.6 51.2 95.6 50.9 133.9 53.9"/>
      <polygon class="st2" points="133.9 54.1 133.9 54.4 95.6 51.4 95.6 51.2 133.9 54.1"/>
      <polygon class="st2" points="133.9 54.4 133.9 54.6 95.6 51.7 95.6 51.4 133.9 54.4"/>
      <polygon class="st2" points="133.9 54.6 133.9 54.9 95.6 51.9 95.6 51.7 133.9 54.6"/>
      <polygon class="st2" points="133.9 54.9 133.9 55.1 95.6 52.2 95.6 51.9 133.9 54.9"/>
      <polygon class="st2" points="133.9 55.1 133.9 55.4 95.6 52.4 95.6 52.2 133.9 55.1"/>
      <polygon class="st2" points="133.9 55.4 133.9 55.6 95.6 52.7 95.6 52.4 133.9 55.4"/>
      <polygon class="st2" points="134.7 55.7 134.7 55.9 95.8 52.9 96 52.7 134.7 55.7"/>
      <polygon class="st2" points="134.7 55.9 134.7 56.2 95.8 53.2 96 52.9 134.7 55.9"/>
      <polygon class="st2" points="134.5 56.2 134.3 56.4 95.6 53.4 95.6 53.2 134.5 56.2"/>
      <polygon class="st2" points="134.5 56.4 134.3 56.7 95.6 53.7 95.6 53.4 134.5 56.4"/>
      <polygon class="st2" points="133.9 56.6 133.9 56.9 95.6 53.9 95.6 53.7 133.9 56.6"/>
      <polygon class="st2" points="133.9 56.9 133.9 57.1 95.6 54.2 95.6 53.9 133.9 56.9"/>
      <polygon class="st2" points="133.9 57.1 133.9 57.4 95.6 54.4 95.6 54.2 133.9 57.1"/>
      <polygon class="st2" points="133.9 57.4 133.9 57.6 95.6 54.7 95.6 54.4 133.9 57.4"/>
      <polygon class="st2" points="133.9 57.6 133.9 57.9 95.6 54.9 95.6 54.7 133.9 57.6"/>
      <polygon class="st2" points="133.9 57.9 133.9 58.1 95.6 55.2 95.6 54.9 133.9 57.9"/>
      <polygon class="st2" points="133.9 58.1 133.9 58.4 95.6 55.4 95.6 55.2 133.9 58.1"/>
      <polygon class="st2" points="133.9 58.4 133.9 58.6 95.6 55.7 95.6 55.4 133.9 58.4"/>
      <polygon class="st2" points="133.9 58.6 133.9 58.9 95.6 55.9 95.6 55.7 133.9 58.6"/>
      <polygon class="st2" points="133.9 58.9 133.9 59.1 95.6 56.2 95.6 55.9 133.9 58.9"/>
      <polygon class="st2" points="133.9 59.1 133.9 59.4 95.6 56.4 95.6 56.2 133.9 59.1"/>
      <polygon class="st2" points="133.9 59.4 133.9 59.6 95.6 56.7 95.6 56.4 133.9 59.4"/>
      <polygon class="st2" points="133.9 59.6 133.9 59.9 95 56.9 95.2 56.7 133.9 59.6"/>
      <polygon class="st2" points="133.9 59.9 133.9 60.1 95 57.1 95.2 56.9 133.9 59.9"/>
      <polygon class="st2" points="134.7 60.1 134.7 60.4 95.6 57.4 95.6 57.1 134.7 60.1"/>
      <polygon class="st2" points="134.5 60.4 134.3 60.6 95.6 57.6 95.6 57.4 134.5 60.4"/>
      <polygon class="st2" points="133.9 60.6 133.9 60.9 95.6 57.9 95.6 57.7 133.9 60.6"/>
      <polygon class="st2" points="133.9 60.9 133.9 61.1 95.6 58.2 95.6 57.9 133.9 60.9"/>
      <polygon class="st2" points="133.9 61.1 133.9 61.4 95.6 58.4 95.6 58.2 133.9 61.1"/>
      <polygon class="st2" points="133.9 61.4 133.9 61.6 95.6 58.7 95.6 58.4 133.9 61.4"/>
      <polygon class="st2" points="133.9 61.6 133.9 61.9 95.6 58.9 95.6 58.7 133.9 61.6"/>
      <polygon class="st2" points="133.9 61.9 133.9 62.1 95.6 59.2 95.6 58.9 133.9 61.9"/>
      <polygon class="st2" points="133.9 62.1 133.9 62.4 95.6 59.4 95.6 59.2 133.9 62.1"/>
      <polygon class="st2" points="133.9 62.4 133.9 62.6 95.6 59.7 95.6 59.4 133.9 62.4"/>
      <polygon class="st2" points="133.9 62.6 133.9 62.9 95.6 59.9 95.6 59.7 133.9 62.6"/>
      <polygon class="st2" points="133.9 62.9 133.9 63.1 95.6 60.2 95.6 59.9 133.9 62.9"/>
      <polygon class="st2" points="133.9 63.1 133.9 63.4 95.6 60.4 95.6 60.2 133.9 63.1"/>
      <polygon class="st2" points="133.9 63.4 133.9 63.6 95.6 60.6 95.6 60.4 133.9 63.4"/>
      <polygon class="st2" points="133.9 63.6 133.9 63.9 95 60.9 95.2 60.6 133.9 63.6"/>
      <polygon class="st2" points="133.9 63.9 133.9 64.1 95 61.1 95.2 60.9 133.9 63.9"/>
      <polygon class="st2" points="133.9 64.1 133.9 64.4 94.7 61.4 94.7 61.1 133.9 64.1"/>
      <polygon class="st2" points="133.6 64.4 133.4 64.6 94.7 61.6 94.7 61.4 133.6 64.4"/>
      <polygon class="st2" points="133.9 64.6 133.9 64.8 95.6 61.9 95.6 61.6 133.9 64.6"/>
      <polygon class="st2" points="133.9 64.9 133.9 65.1 95.6 62.1 95.6 61.9 133.9 64.9"/>
      <polygon class="st2" points="133.9 65.1 133.9 65.3 95.6 62.4 95.6 62.1 133.9 65.1"/>
      <polygon class="st2" points="133.9 65.3 133.9 65.6 95.6 62.6 95.6 62.4 133.9 65.3"/>
      <polygon class="st2" points="133.9 65.6 133.9 65.8 95.6 62.9 95.6 62.6 133.9 65.6"/>
      <polygon class="st2" points="133.9 65.8 133.9 66.1 95.6 63.1 95.6 62.9 133.9 65.8"/>
      <polygon class="st2" points="133.9 66.1 133.9 66.3 95.6 63.4 95.6 63.1 133.9 66.1"/>
      <polygon class="st2" points="133.9 66.3 133.9 66.6 95.6 63.6 95.6 63.4 133.9 66.3"/>
      <polygon class="st2" points="133.9 66.6 133.9 66.8 95.6 63.9 95.6 63.6 133.9 66.6"/>
      <polygon class="st2" points="133.9 66.8 133.9 67.1 95.6 64.1 95.6 63.9 133.9 66.8"/>
      <polygon class="st2" points="133.9 67.1 133.9 67.3 95.6 64.4 95.6 64.1 133.9 67.1"/>
      <polygon class="st2" points="133.9 67.3 133.9 67.6 95.6 64.6 95.6 64.4 133.9 67.3"/>
      <polygon class="st2" points="133.9 67.6 133.9 67.9 95 64.9 95.2 64.6 133.9 67.6"/>
      <polygon class="st2" points="133.9 67.9 133.9 68.1 95 65.1 95.2 64.9 133.9 67.9"/>
      <polygon class="st2" points="133.9 68.1 133.9 68.4 94.7 65.4 94.7 65.1 133.9 68.1"/>
      <polygon class="st2" points="133.6 68.4 133.4 68.6 94.7 65.6 94.7 65.4 133.6 68.4"/>
      <polygon class="st2" points="133 68.6 133 68.8 94.7 65.9 94.7 65.6 133 68.6"/>
      <polygon class="st2" points="133 68.8 133 69.1 94.7 66.1 94.7 65.9 133 68.8"/>
      <polygon class="st2" points="133 69.1 133 69.3 94.7 66.4 94.7 66.1 133 69.1"/>
      <polygon class="st2" points="133 69.3 133 69.6 94.7 66.6 94.7 66.4 133 69.3"/>
      <polygon class="st2" points="133 69.6 133 69.8 94.7 66.9 94.7 66.6 133 69.6"/>
      <polygon class="st2" points="133 69.8 133 70.1 94.7 67.1 94.7 66.9 133 69.8"/>
      <polygon class="st2" points="133 70.1 133 70.3 94.7 67.4 94.7 67.1 133 70.1"/>
      <polygon class="st2" points="133 70.3 133 70.6 94.7 67.6 94.7 67.4 133 70.3"/>
      <polygon class="st2" points="133 70.6 133 70.8 94.7 67.9 94.7 67.6 133 70.6"/>
      <polygon class="st2" points="133 70.8 133 71.1 94.7 68.1 94.7 67.9 133 70.8"/>
      <polygon class="st2" points="133 71.1 133 71.3 94.7 68.4 94.7 68.1 133 71.1"/>
      <polygon class="st2" points="133 71.3 133 71.6 94.7 68.6 94.7 68.4 133 71.3"/>
      <polygon class="st2" points="133.9 71.6 133.9 71.8 95 68.8 95.2 68.6 133.9 71.6"/>
      <polygon class="st2" points="133.9 71.8 133.9 72.1 95 69.1 95.2 68.8 133.9 71.8"/>
      <polygon class="st2" points="133.9 72.1 133.9 72.3 94.7 69.3 94.7 69.1 133.9 72.1"/>
      <polygon class="st2" points="133.6 72.3 133.4 72.6 94.7 69.6 94.7 69.3 133.6 72.3"/>
      <polygon class="st2" points="133 72.6 133 72.8 94.7 69.9 94.7 69.6 133 72.6"/>
      <polygon class="st2" points="133 72.8 133 73.1 94.7 70.1 94.7 69.9 133 72.8"/>
      <polygon class="st2" points="133 73.1 133 73.3 94.7 70.4 94.7 70.1 133 73.1"/>
      <polygon class="st2" points="133 73.3 133 73.6 94.7 70.6 94.7 70.4 133 73.3"/>
      <polygon class="st2" points="133 73.6 133 73.8 94.7 70.9 94.7 70.6 133 73.6"/>
      <polygon class="st2" points="133 73.8 133 74.1 94.7 71.1 94.7 70.9 133 73.8"/>
      <polygon class="st2" points="133 73.8 133 74.3 94.7 71.4 94.7 70.9 133 73.8"/>
      <polygon class="st2" points="133 74.1 133 74.6 94.7 71.6 94.7 71.1 133 74.1"/>
      <polygon class="st2" points="133 74.3 133 74.8 94.7 71.8 94.7 71.4 133 74.3"/>
      <polygon class="st2" points="133 74.6 133 75.1 94.7 72.1 94.7 71.6 133 74.6"/>
      <polygon class="st2" points="133 74.8 133 75.3 94.7 72.3 94.7 71.9 133 74.8"/>
      <polygon class="st2" points="133 75.1 133 75.6 94.7 72.6 94.7 72.1 133 75.1"/>
      <polygon class="st2" points="133 75.3 133 75.8 94.1 72.8 94.3 72.3 133 75.3"/>
      <polygon class="st2" points="133 75.6 133 76.1 94.1 73.1 94.3 72.6 133 75.6"/>
      <polygon class="st2" points="133.9 75.8 133.9 76.3 94.7 73.3 94.7 72.8 133.9 75.8"/>
      <polygon class="st2" points="133.6 76.1 133.4 76.6 94.7 73.6 94.7 73.1 133.6 76.1"/>
      <polygon class="st2" points="133 76.3 133 76.8 94.7 73.8 94.7 73.3 133 76.3"/>
      <polygon class="st2" points="133 76.6 133 77 94.7 74.1 94.7 73.6 133 76.6"/>
      <polygon class="st2" points="133 76.8 133 77.3 94.7 74.3 94.7 73.8 133 76.8"/>
      <polygon class="st2" points="133 77.1 133 77.5 94.7 74.6 94.7 74.1 133 77.1"/>
      <polygon class="st2" points="133 77.3 133 77.8 94.7 74.8 94.7 74.3 133 77.3"/>
      <polygon class="st2" points="133 77.5 133 78 94.7 75.1 94.7 74.6 133 77.5"/>
      <polygon class="st2" points="133 77.8 133 78.3 94.7 75.3 94.7 74.8 133 77.8"/>
      <polygon class="st2" points="133 78 133 78.5 94.7 75.6 94.7 75.1 133 78"/>
      <polygon class="st2" points="133 78.3 133 78.8 94.7 75.8 94.7 75.3 133 78.3"/>
      <polygon class="st2" points="133 78.5 133 79 94.7 76.1 94.7 75.6 133 78.5"/>
      <polygon class="st2" points="133 78.8 133 79.3 94.7 76.3 94.7 75.8 133 78.8"/>
      <polygon class="st2" points="133 79 133 79.5 94.7 76.6 94.7 76.1 133 79"/>
      <polygon class="st2" points="133 79.3 133 79.8 94.1 76.8 94.3 76.3 133 79.3"/>
      <polygon class="st2" points="133 79.6 133 80.1 94.1 77.1 94.3 76.6 133 79.6"/>
      <polygon class="st2" points="133 79.8 133 80.3 93.9 77.3 93.9 76.8 133 79.8"/>
      <polygon class="st2" points="132.8 80.1 132.6 80.6 93.9 77.6 93.9 77.1 132.8 80.1"/>
      <polygon class="st2" points="133 80.3 133 80.8 94.7 77.8 94.7 77.3 133 80.3"/>
      <polygon class="st2" points="133 80.5 133 81 94.7 78.1 94.7 77.6 133 80.5"/>
      <polygon class="st2" points="133 80.8 133 81.3 94.7 78.3 94.7 77.8 133 80.8"/>
      <polygon class="st2" points="133 81 133 81.5 94.7 78.6 94.7 78.1 133 81"/>
      <polygon class="st2" points="133 81.3 133 81.8 94.7 78.8 94.7 78.3 133 81.3"/>
      <polygon class="st2" points="133 81.5 133 82 94.7 79.1 94.7 78.6 133 81.5"/>
      <polygon class="st2" points="133 81.8 133 82.3 94.7 79.3 94.7 78.8 133 81.8"/>
      <polygon class="st2" points="133 82 133 82.5 94.7 79.6 94.7 79.1 133 82"/>
      <polygon class="st2" points="133 82.3 133 82.8 94.7 79.8 94.7 79.3 133 82.3"/>
      <polygon class="st2" points="133 82.5 133 83 94.7 80.1 94.7 79.6 133 82.5"/>
      <polygon class="st2" points="133 82.8 133 83.3 94.7 80.3 94.7 79.8 133 82.8"/>
      <polygon class="st2" points="133 83 133 83.5 94.7 80.6 94.7 80.1 133 83"/>
      <polygon class="st2" points="133 83.3 133 83.8 94.1 80.8 94.3 80.3 133 83.3"/>
      <polygon class="st2" points="133 83.5 133 84 94.1 81 94.3 80.6 133 83.5"/>
      <polygon class="st2" points="133 83.8 133 84.3 93.9 81.3 93.9 80.8 133 83.8"/>
      <polygon class="st2" points="132.8 84 132.6 84.5 93.9 81.5 93.9 81 132.8 84"/>
      <polygon class="st2" points="132.2 84.3 132.2 84.8 93.9 81.8 93.9 81.3 132.2 84.3"/>
      <polygon class="st2" points="132.2 84.5 132.2 85 93.9 82.1 93.9 81.6 132.2 84.5"/>
      <polygon class="st2" points="132.2 84.8 132.2 85.3 93.9 82.3 93.9 81.8 132.2 84.8"/>
      <polygon class="st2" points="132.2 85 132.2 85.5 93.9 82.6 93.9 82.1 132.2 85"/>
      <polygon class="st2" points="132.2 85.3 132.2 85.8 93.9 82.8 93.9 82.3 132.2 85.3"/>
      <polygon class="st2" points="132.2 85.5 132.2 86 93.9 83.1 93.9 82.6 132.2 85.5"/>
      <polygon class="st2" points="132.2 85.8 132.2 86.3 93.9 83.3 93.9 82.8 132.2 85.8"/>
      <polygon class="st2" points="132.2 86 132.2 86.5 93.9 83.6 93.9 83.1 132.2 86"/>
      <polygon class="st2" points="132.2 86.3 132.2 86.8 93.9 83.8 93.9 83.3 132.2 86.3"/>
      <polygon class="st2" points="132.2 86.5 132.2 87 93.9 84 93.9 83.6 132.2 86.5"/>
      <polygon class="st2" points="132.2 86.8 132.2 87.3 93.9 84.3 93.9 83.8 132.2 86.8"/>
      <polygon class="st2" points="132.2 87 132.2 87.5 93.9 84.5 93.9 84.1 132.2 87"/>
      <polygon class="st2" points="132.2 87.3 132.2 87.8 93.9 84.8 93.9 84.3 132.2 87.3"/>
      <polygon class="st2" points="133 87.5 133 88 94.1 85 94.3 84.5 133 87.5"/>
      <polygon class="st2" points="133 87.8 133 88.3 93.9 85.3 93.9 84.8 133 87.8"/>
      <polygon class="st2" points="132.8 88 132.6 88.5 93.9 85.5 93.9 85 132.8 88"/>
      <polygon class="st2" points="132.2 88.3 132.2 88.7 93.9 85.8 93.9 85.3 132.2 88.3"/>
      <polygon class="st2" points="132.2 88.5 132.2 89 93.9 86 93.9 85.5 132.2 88.5"/>
      <polygon class="st2" points="132.2 88.8 132.2 89.2 93.9 86.3 93.9 85.8 132.2 88.8"/>
      <polygon class="st2" points="132.2 89 132.2 89.5 93.9 86.5 93.9 86 132.2 89"/>
      <polygon class="st2" points="132.2 89.3 132.2 89.7 93.9 86.8 93.9 86.3 132.2 89.3"/>
      <polygon class="st2" points="132.2 89.5 132.2 90 93.9 87 93.9 86.5 132.2 89.5"/>
      <polygon class="st2" points="132.2 89.7 132.2 90.2 93.9 87.3 93.9 86.8 132.2 89.7"/>
      <polygon class="st2" points="132.2 90 132.2 90.5 93.9 87.5 93.9 87 132.2 90"/>
      <polygon class="st2" points="132.2 90.2 132.2 90.7 93.9 87.8 93.9 87.3 132.2 90.2"/>
      <polygon class="st2" points="132.2 90.5 132.2 91 93.9 88 93.9 87.5 132.2 90.5"/>
      <polygon class="st2" points="132.2 90.7 132.2 91.2 93.9 88.3 93.9 87.8 132.2 90.7"/>
      <polygon class="st2" points="132.2 91 132.2 91.5 93.9 88.5 93.9 88 132.2 91"/>
      <polygon class="st2" points="132.2 91.2 132.2 91.7 93.9 88.8 93.9 88.3 132.2 91.2"/>
      <polygon class="st2" points="132.2 91.5 132.2 92 93.3 89 93.5 88.5 132.2 91.5"/>
      <polygon class="st2" points="133 91.8 133 92.3 93.9 89.3 93.9 88.8 133 91.8"/>
      <polygon class="st2" points="132.8 92 132.6 92.5 93.9 89.5 93.9 89 132.8 92"/>
      <polygon class="st2" points="132.2 92.2 132.2 92.7 93.9 89.8 93.9 89.3 132.2 92.2"/>
      <polygon class="st2" points="132.2 92.5 132.2 93 93.9 90 93.9 89.5 132.2 92.5"/>
      <polygon class="st2" points="132.2 92.7 132.2 93.2 93.9 90.3 93.9 89.8 132.2 92.7"/>
      <polygon class="st2" points="132.2 93 132.2 93.5 93.9 90.5 93.9 90 132.2 93"/>
      <polygon class="st2" points="132.2 93.2 132.2 93.7 93.9 90.8 93.9 90.3 132.2 93.2"/>
      <polygon class="st2" points="132.2 93.5 132.2 94 93.9 91 93.9 90.5 132.2 93.5"/>
      <polygon class="st2" points="132.2 93.7 132.2 94.2 93.9 91.3 93.9 90.8 132.2 93.7"/>
      <polygon class="st2" points="132.2 94 132.2 94.5 93.9 91.5 93.9 91 132.2 94"/>
      <polygon class="st2" points="132.2 94.2 132.2 94.7 93.9 91.8 93.9 91.3 132.2 94.2"/>
      <polygon class="st2" points="132.2 94.5 132.2 95 93.9 92 93.9 91.5 132.2 94.5"/>
      <polygon class="st2" points="132.2 94.7 132.2 95.2 93.9 92.3 93.9 91.8 132.2 94.7"/>
      <polygon class="st2" points="132.2 95 132.2 95.5 93.9 92.5 93.9 92 132.2 95"/>
      <polygon class="st2" points="132.2 95.2 132.2 95.7 93.9 92.8 93.9 92.3 132.2 95.2"/>
      <polygon class="st2" points="132.2 95.5 132.2 96 93.3 93 93.5 92.5 132.2 95.5"/>
      <polygon class="st2" points="132.2 95.7 132.2 96.2 93 93.2 93 92.7 132.2 95.7"/>
      <polygon class="st2" points="132.8 96 132.6 96.5 93.9 93.5 93.9 93 132.8 96"/>
      <polygon class="st2" points="132.2 96.2 132.2 96.7 93.9 93.8 93.9 93.3 132.2 96.2"/>
      <polygon class="st2" points="132.2 96.5 132.2 97 93.9 94 93.9 93.5 132.2 96.5"/>
      <polygon class="st2" points="132.2 96.7 132.2 97.2 93.9 94.3 93.9 93.8 132.2 96.7"/>
      <polygon class="st2" points="132.2 97 132.2 97.5 93.9 94.5 93.9 94 132.2 97"/>
      <polygon class="st2" points="132.2 97.2 132.2 97.7 93.9 94.8 93.9 94.3 132.2 97.2"/>
      <polygon class="st2" points="132.2 97.5 132.2 98 93.9 95 93.9 94.5 132.2 97.5"/>
      <polygon class="st2" points="132.2 97.7 132.2 98.2 93.9 95.3 93.9 94.8 132.2 97.7"/>
      <polygon class="st2" points="132.2 98 132.2 98.5 93.9 95.5 93.9 95 132.2 98"/>
      <polygon class="st2" points="132.2 98.2 132.2 98.7 93.9 95.8 93.9 95.3 132.2 98.2"/>
      <polygon class="st2" points="132.2 98.5 132.2 99 93.9 96 93.9 95.5 132.2 98.5"/>
      <polygon class="st2" points="132.2 98.7 132.2 99.2 93.9 96.2 93.9 95.8 132.2 98.7"/>
      <polygon class="st2" points="132.2 99 132.2 99.5 93.9 96.5 93.9 96 132.2 99"/>
      <polygon class="st2" points="132.2 99.2 132.2 99.7 93.9 96.7 93.9 96.3 132.2 99.2"/>
      <polygon class="st2" points="132.2 99.5 132.2 100 93.3 97 93.5 96.5 132.2 99.5"/>
      <polygon class="st2" points="132.2 99.7 132.2 100.2 93 97.2 93 96.7 132.2 99.7"/>
      <polygon class="st2" points="131.9 100 131.7 100.5 93 97.5 93 97 131.9 100"/>
      <polygon class="st2" points="131.9 100.2 131.7 100.7 93 97.7 93 97.2 131.9 100.2"/>
      <polygon class="st2" points="132.2 100.5 132.2 100.9 93.9 98 93.9 97.5 132.2 100.5"/>
      <polygon class="st2" points="132.2 100.7 132.2 101.2 93.9 98.2 93.9 97.7 132.2 100.7"/>
      <polygon class="st2" points="132.2 101 132.2 101.4 93.9 98.5 93.9 98 132.2 101"/>
      <polygon class="st2" points="132.2 101.2 132.2 101.7 93.9 98.7 93.9 98.2 132.2 101.2"/>
      <polygon class="st2" points="132.2 101.4 132.2 101.9 93.9 99 93.9 98.5 132.2 101.4"/>
      <polygon class="st2" points="132.2 101.7 132.2 102.2 93.9 99.2 93.9 98.7 132.2 101.7"/>
      <polygon class="st2" points="132.2 101.9 132.2 102.4 93.9 99.5 93.9 99 132.2 101.9"/>
      <polygon class="st2" points="132.2 102.2 132.2 102.7 93.9 99.7 93.9 99.2 132.2 102.2"/>
      <polygon class="st2" points="132.2 102.4 132.2 102.9 93.9 100 93.9 99.5 132.2 102.4"/>
      <polygon class="st2" points="132.2 102.7 132.2 103.2 93.9 100.2 93.9 99.7 132.2 102.7"/>
      <polygon class="st2" points="132.2 102.9 132.2 103.4 93.9 100.5 93.9 100 132.2 102.9"/>
      <polygon class="st2" points="132 103.2 131.6 111.4 92.8 108.4 93.2 100.2 132 103.2"/>
    </g>
  </g>
  <g>
    <path class="st1" d="M336.4,95.8h-14c-1.6,0-2.8-.3-3.8-.8-.8-.8-1.4-1.5-1.8-2.3-.4-1-.6-2-.6-3s0-2,.2-2.8l6.1-39.7h-13.7l-6.5,43c-.6,3.3-.4,6.1.2,8.4.6,2.3,1.6,4.3,3.1,5.9,1.4,1.5,3.1,2.8,5.1,3.6,1.8.8,3.7,1.3,5.5,1.3h32l9.6-62.1h-13.8l-7.5,48.5Z"/>
    <g class="st10">
      <path class="st1" d="M301.9,109.4h55.4-55.4Z"/>
      <rect class="st1" x="302.4" y="108.5" width="55.3" height=".9"/>
      <rect class="st1" x="302.4" y="107.7" width="55.3" height=".9"/>
      <rect class="st1" x="302.4" y="106.8" width="55.3" height=".9"/>
      <rect class="st1" x="302.4" y="106" width="55.3" height=".9"/>
      <rect class="st1" x="302.4" y="105.1" width="55.3" height=".9"/>
      <rect class="st1" x="302.4" y="104.3" width="55.3" height=".9"/>
      <rect class="st1" x="302.4" y="103.4" width="55.3" height=".9"/>
      <rect class="st1" x="302.4" y="103.4" width="55.3" height=".9"/>
      <rect class="st1" x="302.4" y="102.6" width="55.3" height=".9"/>
      <rect class="st1" x="302.4" y="101.7" width="55.3" height=".9"/>
      <rect class="st1" x="302.4" y="100.9" width="55.3" height=".9"/>
      <rect class="st1" x="302.4" y="100" width="55.3" height=".9"/>
      <rect class="st1" x="302.4" y="99.2" width="55.3" height=".9"/>
      <rect class="st1" x="302.4" y="98.3" width="55.3" height=".9"/>
      <rect class="st1" x="302.4" y="97.5" width="55.3" height=".9"/>
      <rect class="st1" x="302.4" y="97.5" width="55.3" height=".9"/>
      <rect class="st1" x="302.4" y="96.6" width="55.3" height=".9"/>
      <rect class="st1" x="302.4" y="95.8" width="55.3" height=".9"/>
      <rect class="st1" x="302.4" y="94.9" width="55.3" height=".9"/>
      <rect class="st1" x="302.4" y="94.1" width="55.3" height=".9"/>
      <rect class="st1" x="302.4" y="93.2" width="55.3" height=".9"/>
      <rect class="st1" x="302.4" y="92.4" width="55.3" height=".9"/>
      <rect class="st1" x="302.4" y="91.5" width="55.3" height=".9"/>
      <rect class="st1" x="302.4" y="90.7" width="55.3" height=".9"/>
      <rect class="st1" x="302.4" y="90.7" width="55.3" height=".9"/>
      <rect class="st1" x="302.4" y="89.8" width="55.3" height=".9"/>
      <rect class="st1" x="302.4" y="89" width="55.3" height=".9"/>
      <rect class="st1" x="302.4" y="88.1" width="55.3" height=".9"/>
      <rect class="st1" x="302.4" y="87.3" width="55.3" height=".9"/>
      <rect class="st1" x="302.4" y="86.4" width="55.3" height=".9"/>
      <rect class="st1" x="302.4" y="85.6" width="55.3" height=".9"/>
      <rect class="st1" x="302.4" y="84.7" width="55.3" height=".9"/>
      <rect class="st1" x="302.4" y="84.7" width="55.3" height=".9"/>
      <rect class="st1" x="302.4" y="83.8" width="55.3" height=".9"/>
      <rect class="st1" x="302.4" y="83" width="55.3" height=".9"/>
      <rect class="st1" x="302.4" y="82.1" width="55.3" height=".9"/>
      <rect class="st1" x="302.4" y="81.3" width="55.3" height=".9"/>
      <rect class="st1" x="302.4" y="80.4" width="55.3" height=".9"/>
      <rect class="st1" x="302.4" y="79.6" width="55.3" height=".9"/>
      <rect class="st1" x="302.4" y="78.7" width="55.3" height=".9"/>
      <rect class="st1" x="302.4" y="78.7" width="55.3" height=".9"/>
      <rect class="st1" x="302.4" y="77.9" width="55.3" height=".9"/>
      <rect class="st1" x="302.4" y="77" width="55.3" height=".9"/>
      <rect class="st1" x="302.4" y="76.2" width="55.3" height=".9"/>
      <rect class="st1" x="302.4" y="75.3" width="55.3" height=".9"/>
      <rect class="st1" x="302.4" y="74.5" width="55.3" height=".9"/>
      <rect class="st1" x="302.4" y="73.6" width="55.3" height=".9"/>
      <rect class="st1" x="302.4" y="72.8" width="55.3" height=".9"/>
      <rect class="st1" x="302.4" y="72.8" width="55.3" height=".9"/>
      <rect class="st1" x="302.4" y="71.9" width="55.3" height=".9"/>
      <rect class="st1" x="302.4" y="71.1" width="55.3" height=".9"/>
      <rect class="st1" x="302.4" y="70.2" width="55.3" height=".9"/>
      <rect class="st1" x="302.4" y="69.4" width="55.3" height=".9"/>
      <rect class="st1" x="302.4" y="68.5" width="55.3" height=".9"/>
      <rect class="st1" x="302.4" y="67.7" width="55.3" height=".9"/>
      <rect class="st1" x="302.4" y="66.8" width="55.3" height=".9"/>
      <rect class="st1" x="302.4" y="66" width="55.3" height=".9"/>
      <rect class="st1" x="302.4" y="66" width="55.3" height=".9"/>
      <rect class="st1" x="302.4" y="65.1" width="55.3" height=".9"/>
      <rect class="st1" x="302.4" y="64.3" width="55.3" height=".9"/>
      <rect class="st1" x="302.4" y="63.4" width="55.3" height=".9"/>
      <rect class="st1" x="302.4" y="62.6" width="55.3" height=".9"/>
      <rect class="st1" x="302.4" y="61.7" width="55.3" height=".9"/>
      <rect class="st1" x="302.4" y="60.9" width="55.3" height=".9"/>
      <rect class="st1" x="302.4" y="60" width="55.3" height=".9"/>
      <rect class="st1" x="302.4" y="60" width="55.3" height=".9"/>
      <rect class="st1" x="302.4" y="59.2" width="55.3" height=".9"/>
      <rect class="st1" x="302.4" y="58.3" width="55.3" height=".9"/>
      <rect class="st1" x="302.4" y="57.5" width="55.3" height=".9"/>
      <rect class="st1" x="302.4" y="56.6" width="55.3" height=".9"/>
      <rect class="st1" x="302.4" y="55.8" width="55.3" height=".9"/>
      <rect class="st1" x="302.4" y="54.9" width="55.3" height=".9"/>
      <rect class="st1" x="302.4" y="54.1" width="55.3" height=".9"/>
      <rect class="st1" x="302.4" y="54.1" width="55.3" height=".9"/>
      <rect class="st1" x="302.4" y="53.2" width="55.3" height=".9"/>
      <rect class="st1" x="302.4" y="52.4" width="55.3" height=".9"/>
      <rect class="st1" x="302.4" y="51.5" width="55.3" height=".9"/>
      <rect class="st1" x="302.4" y="50.7" width="55.3" height=".9"/>
      <rect class="st1" x="302.4" y="49.8" width="55.3" height=".9"/>
      <rect class="st1" x="302.4" y="49" width="55.3" height=".9"/>
      <rect class="st1" x="302.4" y="48.1" width="55.3" height=".9"/>
      <rect class="st1" x="302.4" y="48.1" width="55.3" height=".9"/>
      <rect class="st1" x="302.4" y="47.3" width="55.3" height=".9"/>
    </g>
  </g>
  <g>
    <path class="st1" d="M412.5,83.8h22c2.6,0,5.1-.5,7.3-1.3,2-1,3.9-2.3,5.5-3.8,1.6-1.8,3-3.8,4.1-6,1-2.3,1.8-4.8,2.2-7.3.8-5.5.2-9.8-2-13.3-2.2-3.3-6.1-5-11.2-5h-35.9l-6.1,39.4c-.6,4-.6,7.5.2,10.3.8,2.8,1.8,5,3.5,6.8,1.4,1.5,3.3,2.8,5.3,3.5,2,.8,4.1,1.3,5.9,1.3h34l1.9-12.8h-30.2c-1.8,0-3-.2-4.1-.7-1-.7-1.6-1.2-2.2-2.2-.6-.7-.8-1.9-.8-2.9-.2-1.2,0-2.4.2-3.4l.4-2.7ZM415.8,59.2h17.8c.8,0,1.7.3,2.5.3.8.3,1.4.5,2.1,1s1,1,1.4,1.8c.2.8.2,2,0,3.3-.2,1.3-.6,2.3-1,3.3-.6.8-1.2,1.3-2.1,1.8-.6.5-1.4.8-2.3,1-.8,0-1.7.3-2.7.3h-17.6l1.9-12.8Z"/>
    <g class="st8">
      <rect class="st1" x="413.9" y="71.1" width="25.5" height=".9"/>
      <rect class="st1" x="413.9" y="70.2" width="25.5" height=".9"/>
      <rect class="st1" x="413.9" y="70.2" width="25.5" height=".9"/>
      <rect class="st1" x="413.9" y="69.4" width="25.5" height=".9"/>
      <rect class="st1" x="413.9" y="68.5" width="25.5" height=".9"/>
      <rect class="st1" x="413.9" y="67.7" width="25.5" height=".9"/>
      <rect class="st1" x="413.9" y="66.8" width="25.5" height=".9"/>
      <rect class="st1" x="413.9" y="66" width="25.5" height=".9"/>
      <rect class="st1" x="413.9" y="65.1" width="25.5" height=".9"/>
      <rect class="st1" x="413.9" y="65.1" width="25.5" height=".9"/>
      <rect class="st1" x="413.9" y="64.3" width="25.5" height=".9"/>
      <rect class="st1" x="413.9" y="63.4" width="25.5" height=".9"/>
      <rect class="st1" x="413.9" y="62.6" width="25.5" height=".9"/>
      <rect class="st1" x="413.9" y="61.7" width="25.5" height=".9"/>
      <rect class="st1" x="413.9" y="60.9" width="25.5" height=".9"/>
      <rect class="st1" x="413.9" y="60" width="25.5" height=".9"/>
      <rect class="st1" x="413.9" y="59.2" width="25.5" height=".9"/>
      <path class="st1" d="M397.9,108.5h56.5-56.5Z"/>
      <rect class="st1" x="397.7" y="107.7" width="56.2" height=".9"/>
      <rect class="st1" x="397.7" y="106.8" width="56.2" height=".9"/>
      <rect class="st1" x="397.7" y="106" width="56.2" height=".9"/>
      <rect class="st1" x="397.7" y="105.1" width="56.2" height=".9"/>
      <rect class="st1" x="397.7" y="104.3" width="56.2" height=".9"/>
      <rect class="st1" x="397.7" y="104.3" width="56.2" height=".9"/>
      <rect class="st1" x="397.7" y="103.4" width="56.2" height=".9"/>
      <rect class="st1" x="397.7" y="102.6" width="56.2" height=".9"/>
      <rect class="st1" x="397.7" y="101.7" width="56.2" height=".9"/>
      <rect class="st1" x="397.7" y="100.9" width="56.2" height=".9"/>
      <rect class="st1" x="397.7" y="100" width="56.2" height=".9"/>
      <rect class="st1" x="397.7" y="99.2" width="56.2" height=".9"/>
      <rect class="st1" x="397.7" y="99.2" width="56.2" height=".9"/>
      <rect class="st1" x="397.7" y="98.3" width="56.2" height=".9"/>
      <rect class="st1" x="397.7" y="97.5" width="56.2" height=".9"/>
      <rect class="st1" x="397.7" y="96.6" width="56.2" height=".9"/>
      <rect class="st1" x="397.7" y="95.8" width="56.2" height=".9"/>
      <rect class="st1" x="397.7" y="94.9" width="56.2" height=".9"/>
      <rect class="st1" x="397.7" y="94.1" width="56.2" height=".9"/>
      <rect class="st1" x="397.7" y="93.2" width="56.2" height=".9"/>
      <rect class="st1" x="397.7" y="93.2" width="56.2" height=".9"/>
      <rect class="st1" x="397.7" y="92.4" width="56.2" height=".9"/>
      <rect class="st1" x="397.7" y="91.5" width="56.2" height=".9"/>
      <rect class="st1" x="397.7" y="90.7" width="56.2" height=".9"/>
      <rect class="st1" x="397.7" y="89.8" width="56.2" height=".9"/>
      <rect class="st1" x="397.7" y="89" width="56.2" height=".9"/>
      <rect class="st1" x="397.7" y="88.1" width="56.2" height=".9"/>
      <rect class="st1" x="397.7" y="87.3" width="56.2" height=".9"/>
      <rect class="st1" x="397.7" y="87.3" width="56.2" height=".9"/>
      <rect class="st1" x="397.7" y="86.4" width="56.2" height=".9"/>
      <rect class="st1" x="397.7" y="85.6" width="56.2" height=".9"/>
      <rect class="st1" x="397.7" y="84.7" width="56.2" height=".9"/>
      <rect class="st1" x="397.7" y="83.8" width="56.2" height=".9"/>
      <rect class="st1" x="397.7" y="83" width="56.2" height=".9"/>
      <rect class="st1" x="397.7" y="82.1" width="56.2" height=".9"/>
      <rect class="st1" x="397.7" y="82.1" width="56.2" height=".9"/>
      <rect class="st1" x="397.7" y="81.3" width="56.2" height=".9"/>
      <rect class="st1" x="397.7" y="80.4" width="56.2" height=".9"/>
      <rect class="st1" x="397.7" y="79.6" width="56.2" height=".9"/>
      <rect class="st1" x="397.7" y="78.7" width="56.2" height=".9"/>
      <rect class="st1" x="397.7" y="77.9" width="56.2" height=".9"/>
      <rect class="st1" x="397.7" y="77" width="56.2" height=".9"/>
      <rect class="st1" x="397.7" y="76.2" width="56.2" height=".9"/>
      <rect class="st1" x="397.7" y="76.2" width="56.2" height=".9"/>
      <rect class="st1" x="397.7" y="75.3" width="56.2" height=".9"/>
      <rect class="st1" x="397.7" y="74.5" width="56.2" height=".9"/>
      <rect class="st1" x="397.7" y="73.6" width="56.2" height=".9"/>
      <rect class="st1" x="397.7" y="72.8" width="56.2" height=".9"/>
      <rect class="st1" x="397.7" y="71.9" width="56.2" height=".9"/>
      <rect class="st1" x="397.7" y="71.1" width="56.2" height=".9"/>
      <rect class="st1" x="397.7" y="70.2" width="56.2" height=".9"/>
      <rect class="st1" x="397.7" y="70.2" width="56.2" height=".9"/>
      <rect class="st1" x="397.7" y="69.4" width="56.2" height=".9"/>
      <rect class="st1" x="397.7" y="68.5" width="56.2" height=".9"/>
      <rect class="st1" x="397.7" y="67.7" width="56.2" height=".9"/>
      <rect class="st1" x="397.7" y="66.8" width="56.2" height=".9"/>
      <rect class="st1" x="397.7" y="66" width="56.2" height=".9"/>
      <rect class="st1" x="397.7" y="65.1" width="56.2" height=".9"/>
      <rect class="st1" x="397.7" y="65.1" width="56.2" height=".9"/>
      <rect class="st1" x="397.7" y="64.3" width="56.2" height=".9"/>
      <rect class="st1" x="397.7" y="63.4" width="56.2" height=".9"/>
      <rect class="st1" x="397.7" y="62.6" width="56.2" height=".9"/>
      <rect class="st1" x="397.7" y="61.7" width="56.2" height=".9"/>
      <rect class="st1" x="397.7" y="60.9" width="56.2" height=".9"/>
      <rect class="st1" x="397.7" y="60" width="56.2" height=".9"/>
      <rect class="st1" x="397.7" y="59.2" width="56.2" height=".9"/>
      <rect class="st1" x="397.7" y="59.2" width="56.2" height=".9"/>
      <rect class="st1" x="397.7" y="58.3" width="56.2" height=".9"/>
      <rect class="st1" x="397.7" y="57.5" width="56.2" height=".9"/>
      <rect class="st1" x="397.7" y="56.6" width="56.2" height=".9"/>
      <rect class="st1" x="397.7" y="55.8" width="56.2" height=".9"/>
      <rect class="st1" x="397.7" y="54.9" width="56.2" height=".9"/>
      <rect class="st1" x="397.7" y="54.1" width="56.2" height=".9"/>
      <rect class="st1" x="397.7" y="53.2" width="56.2" height=".9"/>
      <rect class="st1" x="397.7" y="53.2" width="56.2" height=".9"/>
      <rect class="st1" x="397.7" y="52.4" width="56.2" height=".9"/>
      <rect class="st1" x="397.7" y="51.5" width="56.2" height=".9"/>
      <rect class="st1" x="397.7" y="50.7" width="56.2" height=".9"/>
      <rect class="st1" x="397.7" y="49.8" width="56.2" height=".9"/>
      <rect class="st1" x="397.7" y="49" width="56.2" height=".9"/>
      <rect class="st1" x="397.7" y="48.1" width="56.2" height=".9"/>
      <rect class="st1" x="397.7" y="48.1" width="56.2" height=".9"/>
      <rect class="st1" x="397.7" y="47.3" width="56.2" height=".9"/>
    </g>
  </g>
  <g>
    <path class="st2" d="M376,60.9h2c1,0,1.8.2,2.4.7.6.2,1.2.7,1.4,1.5.4.5.6,1.2.6,2v1.1l-.2,1.5h13.5l.6-4.5c.2-1.5.4-3.3.2-5.3-.2-1.8-.8-3.5-1.8-5-.8-1.8-2.2-3-3.9-4-1.8-1-4.1-1.5-6.7-1.5h-19.2l-9.6,61.3h13.3l7.4-47.7Z"/>
    <g class="st9">
      <path class="st1" d="M355.4,108.5h41.3-41.3Z"/>
      <rect class="st1" x="355.2" y="107.7" width="41.7" height=".9"/>
      <rect class="st1" x="355.2" y="106.8" width="41.7" height=".9"/>
      <rect class="st1" x="355.2" y="106" width="41.7" height=".9"/>
      <rect class="st1" x="355.2" y="105.1" width="41.7" height=".9"/>
      <rect class="st1" x="355.2" y="104.3" width="41.7" height=".9"/>
      <rect class="st1" x="355.2" y="104.3" width="41.7" height=".9"/>
      <rect class="st1" x="355.2" y="103.4" width="41.7" height=".9"/>
      <rect class="st1" x="355.2" y="102.6" width="41.7" height=".9"/>
      <rect class="st1" x="355.2" y="101.7" width="41.7" height=".9"/>
      <rect class="st1" x="355.2" y="100.9" width="41.7" height=".9"/>
      <rect class="st1" x="355.2" y="100" width="41.7" height=".9"/>
      <rect class="st1" x="355.2" y="99.2" width="41.7" height=".9"/>
      <rect class="st1" x="355.2" y="99.2" width="41.7" height=".9"/>
      <rect class="st1" x="355.2" y="98.3" width="41.7" height=".9"/>
      <rect class="st1" x="355.2" y="97.5" width="41.7" height=".9"/>
      <rect class="st1" x="355.2" y="96.6" width="41.7" height=".9"/>
      <rect class="st1" x="355.2" y="95.8" width="41.7" height=".9"/>
      <rect class="st1" x="355.2" y="94.9" width="41.7" height=".9"/>
      <rect class="st1" x="355.2" y="94.1" width="41.7" height=".9"/>
      <rect class="st1" x="355.2" y="93.2" width="41.7" height=".9"/>
      <rect class="st1" x="355.2" y="93.2" width="41.7" height=".9"/>
      <rect class="st1" x="355.2" y="92.4" width="41.7" height=".9"/>
      <rect class="st1" x="355.2" y="91.5" width="41.7" height=".9"/>
      <rect class="st1" x="355.2" y="90.7" width="41.7" height=".9"/>
      <rect class="st1" x="355.2" y="89.8" width="41.7" height=".9"/>
      <rect class="st1" x="355.2" y="89" width="41.7" height=".9"/>
      <rect class="st1" x="355.2" y="88.1" width="41.7" height=".9"/>
      <rect class="st1" x="355.2" y="87.3" width="41.7" height=".9"/>
      <rect class="st1" x="355.2" y="87.3" width="41.7" height=".9"/>
      <rect class="st1" x="355.2" y="86.4" width="41.7" height=".9"/>
      <rect class="st1" x="355.2" y="85.6" width="41.7" height=".9"/>
      <rect class="st1" x="355.2" y="84.7" width="41.7" height=".9"/>
      <rect class="st1" x="355.2" y="83.8" width="41.7" height=".9"/>
      <rect class="st1" x="355.2" y="83" width="41.7" height=".9"/>
      <rect class="st1" x="355.2" y="82.1" width="41.7" height=".9"/>
      <rect class="st1" x="355.2" y="82.1" width="41.7" height=".9"/>
      <rect class="st1" x="355.2" y="81.3" width="41.7" height=".9"/>
      <rect class="st1" x="355.2" y="80.4" width="41.7" height=".9"/>
      <rect class="st1" x="355.2" y="79.6" width="41.7" height=".9"/>
      <rect class="st1" x="355.2" y="78.7" width="41.7" height=".9"/>
      <rect class="st1" x="355.2" y="77.9" width="41.7" height=".9"/>
      <rect class="st1" x="355.2" y="77" width="41.7" height=".9"/>
      <rect class="st1" x="355.2" y="76.2" width="41.7" height=".9"/>
      <rect class="st1" x="355.2" y="76.2" width="41.7" height=".9"/>
      <rect class="st1" x="355.2" y="75.3" width="41.7" height=".9"/>
      <rect class="st1" x="355.2" y="74.5" width="41.7" height=".9"/>
      <rect class="st1" x="355.2" y="73.6" width="41.7" height=".9"/>
      <rect class="st1" x="355.2" y="72.8" width="41.7" height=".9"/>
      <rect class="st1" x="355.2" y="71.9" width="41.7" height=".9"/>
      <rect class="st1" x="355.2" y="71.1" width="41.7" height=".9"/>
      <rect class="st1" x="355.2" y="70.2" width="41.7" height=".9"/>
      <rect class="st1" x="355.2" y="70.2" width="41.7" height=".9"/>
      <rect class="st1" x="355.2" y="69.4" width="41.7" height=".9"/>
      <rect class="st1" x="355.2" y="68.5" width="41.7" height=".9"/>
      <rect class="st1" x="355.2" y="67.7" width="41.7" height=".9"/>
      <rect class="st1" x="355.2" y="66.8" width="41.7" height=".9"/>
      <rect class="st1" x="355.2" y="66" width="41.7" height=".9"/>
      <rect class="st1" x="355.2" y="65.1" width="41.7" height=".9"/>
      <rect class="st1" x="355.2" y="65.1" width="41.7" height=".9"/>
      <rect class="st1" x="355.2" y="64.3" width="41.7" height=".9"/>
      <rect class="st1" x="355.2" y="63.4" width="41.7" height=".9"/>
      <rect class="st1" x="355.2" y="62.6" width="41.7" height=".9"/>
      <rect class="st1" x="355.2" y="61.7" width="41.7" height=".9"/>
      <rect class="st1" x="355.2" y="60.9" width="41.7" height=".9"/>
      <rect class="st1" x="355.2" y="60" width="41.7" height=".9"/>
      <rect class="st1" x="355.2" y="59.2" width="41.7" height=".9"/>
      <rect class="st1" x="355.2" y="59.2" width="41.7" height=".9"/>
      <rect class="st1" x="355.2" y="58.3" width="41.7" height=".9"/>
      <rect class="st1" x="355.2" y="57.5" width="41.7" height=".9"/>
      <rect class="st1" x="355.2" y="56.6" width="41.7" height=".9"/>
      <rect class="st1" x="355.2" y="55.8" width="41.7" height=".9"/>
      <rect class="st1" x="355.2" y="54.9" width="41.7" height=".9"/>
      <rect class="st1" x="355.2" y="54.1" width="41.7" height=".9"/>
      <rect class="st1" x="355.2" y="53.2" width="41.7" height=".9"/>
      <rect class="st1" x="355.2" y="53.2" width="41.7" height=".9"/>
      <rect class="st1" x="355.2" y="52.4" width="41.7" height=".9"/>
      <rect class="st1" x="355.2" y="51.5" width="41.7" height=".9"/>
      <rect class="st1" x="355.2" y="50.7" width="41.7" height=".9"/>
      <rect class="st1" x="355.2" y="49.8" width="41.7" height=".9"/>
      <rect class="st1" x="355.2" y="49" width="41.7" height=".9"/>
      <rect class="st1" x="355.2" y="48.1" width="41.7" height=".9"/>
      <rect class="st1" x="355.2" y="48.1" width="41.7" height=".9"/>
      <rect class="st1" x="355.2" y="47.3" width="41.7" height=".9"/>
    </g>
  </g>
  <g>
    <path class="st1" d="M203.1,84.7h14.4c1,0,1.7,0,2.5.2.8,0,1.3.2,1.9.7.6.5,1.2,1,1.3,1.9.2.7.4,1.7.2,2.9-.2,1.5-.6,2.4-1.2,3.2-.6.7-1.2,1.5-1.7,1.9-.8.2-1.5.5-2.3.7-1,.2-1.7.2-2.5.2h-30.6l-2.1,12.8h35.9c5,0,9.3-1.8,12.7-5.4,3.2-3.3,5.2-7.9,6.1-13.5.4-2.5.4-5.1.2-7.4-.4-2.3-1.2-4.3-2.2-5.9-1.2-1.8-2.6-3.1-4.4-3.8-1.8-1-4-1.5-6.7-1.5h-14.5c-.8,0-1.7,0-2.5-.3-.8,0-1.7-.3-2.3-.8-.6-.5-1-1-1.2-1.8-.4-1-.4-2.1-.2-3.4s.6-2.6,1.2-3.4c.4-.8,1-1.3,1.9-1.8.8-.5,1.7-.8,2.5-1,.8,0,1.9-.3,2.7-.3h27.5l1.8-11.9h-32.8c-2.6,0-5.1.5-7.1,1.3-2.2,1-4.1,2.3-5.7,3.8-1.6,1.8-2.8,3.8-4.1,6.2-1,2.3-1.6,4.6-2.2,7.4-.8,5.4,0,10,2.2,13.3,2.2,3.6,5.9,5.4,11.2,5.4h0Z"/>
    <g class="st13">
      <path class="st1" d="M183.1,109.4h58.5-58.5Z"/>
      <rect class="st1" x="183.2" y="108.5" width="58.7" height=".9"/>
      <rect class="st1" x="183.2" y="107.7" width="58.7" height=".9"/>
      <rect class="st1" x="183.2" y="106.8" width="58.7" height=".9"/>
      <rect class="st1" x="183.2" y="106" width="58.7" height=".9"/>
      <rect class="st1" x="183.2" y="105.1" width="58.7" height=".9"/>
      <rect class="st1" x="183.2" y="104.3" width="58.7" height=".9"/>
      <rect class="st1" x="183.2" y="104.3" width="58.7" height=".9"/>
      <rect class="st1" x="183.2" y="103.4" width="58.7" height=".9"/>
      <rect class="st1" x="183.2" y="102.6" width="58.7" height=".9"/>
      <rect class="st1" x="183.2" y="101.7" width="58.7" height=".9"/>
      <rect class="st1" x="183.2" y="100.9" width="58.7" height=".9"/>
      <rect class="st1" x="183.2" y="100" width="58.7" height=".9"/>
      <rect class="st1" x="183.2" y="99.2" width="58.7" height=".9"/>
      <rect class="st1" x="183.2" y="98.3" width="58.7" height=".9"/>
      <rect class="st1" x="183.2" y="97.5" width="58.7" height=".9"/>
      <rect class="st1" x="183.2" y="97.5" width="58.7" height=".9"/>
      <rect class="st1" x="183.2" y="96.6" width="58.7" height=".9"/>
      <rect class="st1" x="183.2" y="95.8" width="58.7" height=".9"/>
      <polygon class="st1" points="183.2 94.9 198.4 94.9 228.2 94.9 242 94.9 242 95.8 206.7 95.8 183.4 95.8 183.2 95.8 183.2 94.9"/>
      <rect class="st1" x="183.2" y="94.1" width="58.7" height=".9"/>
      <rect class="st1" x="183.2" y="93.2" width="58.7" height=".9"/>
      <rect class="st1" x="183.2" y="92.4" width="58.7" height=".9"/>
      <rect class="st1" x="183.2" y="91.5" width="58.7" height=".9"/>
      <rect class="st1" x="183.2" y="90.7" width="58.7" height=".9"/>
      <rect class="st1" x="183.2" y="90.7" width="58.7" height=".9"/>
      <rect class="st1" x="183.2" y="89.8" width="58.7" height=".9"/>
      <rect class="st1" x="183.2" y="89" width="58.7" height=".9"/>
      <rect class="st1" x="183.2" y="88.1" width="58.7" height=".9"/>
      <rect class="st1" x="183.2" y="87.3" width="58.7" height=".9"/>
      <rect class="st1" x="183.2" y="86.4" width="58.7" height=".9"/>
      <rect class="st1" x="183.2" y="85.6" width="58.7" height=".9"/>
      <rect class="st1" x="183.2" y="84.7" width="58.7" height=".9"/>
      <rect class="st1" x="183.2" y="83.8" width="58.7" height=".9"/>
      <rect class="st1" x="183.2" y="83.8" width="58.7" height=".9"/>
      <rect class="st1" x="183.2" y="83" width="58.7" height=".9"/>
      <rect class="st1" x="183.2" y="82.1" width="58.7" height=".9"/>
      <rect class="st1" x="183.2" y="81.3" width="58.7" height=".9"/>
      <rect class="st1" x="183.2" y="80.4" width="58.7" height=".9"/>
      <rect class="st1" x="183.2" y="79.6" width="58.7" height=".9"/>
      <rect class="st1" x="183.2" y="78.7" width="58.7" height=".9"/>
      <rect class="st1" x="183.2" y="77.9" width="58.7" height=".9"/>
      <rect class="st1" x="183.2" y="77" width="58.7" height=".9"/>
      <rect class="st1" x="183.2" y="77" width="58.7" height=".9"/>
      <rect class="st1" x="183.2" y="76.2" width="58.7" height=".9"/>
      <rect class="st1" x="183.2" y="75.3" width="58.7" height=".9"/>
      <rect class="st1" x="183.2" y="74.5" width="58.7" height=".9"/>
      <rect class="st1" x="183.2" y="73.6" width="58.7" height=".9"/>
      <rect class="st1" x="183.2" y="72.8" width="58.7" height=".9"/>
      <rect class="st1" x="183.2" y="71.9" width="58.7" height=".9"/>
      <rect class="st1" x="183.2" y="71.1" width="58.7" height=".9"/>
      <rect class="st1" x="183.2" y="70.2" width="58.7" height=".9"/>
      <rect class="st1" x="183.2" y="70.2" width="58.7" height=".9"/>
      <rect class="st1" x="183.2" y="69.4" width="58.7" height=".9"/>
      <rect class="st1" x="183.2" y="68.5" width="58.7" height=".9"/>
      <rect class="st1" x="183.2" y="67.7" width="58.7" height=".9"/>
      <rect class="st1" x="183.2" y="66.8" width="58.7" height=".9"/>
      <rect class="st1" x="183.2" y="66" width="58.7" height=".9"/>
      <rect class="st1" x="183.2" y="65.1" width="58.7" height=".9"/>
      <rect class="st1" x="183.2" y="64.3" width="58.7" height=".9"/>
      <rect class="st1" x="183.2" y="63.4" width="58.7" height=".9"/>
      <rect class="st1" x="183.2" y="63.4" width="58.7" height=".9"/>
      <rect class="st1" x="183.2" y="62.6" width="58.7" height=".9"/>
      <rect class="st1" x="183.2" y="61.7" width="58.7" height=".9"/>
      <rect class="st1" x="183.2" y="60.9" width="58.7" height=".9"/>
      <rect class="st1" x="183.2" y="60" width="58.7" height=".9"/>
      <rect class="st1" x="183.2" y="59.2" width="58.7" height=".9"/>
      <rect class="st1" x="183.2" y="58.3" width="58.7" height=".9"/>
      <rect class="st1" x="183.2" y="57.5" width="58.7" height=".9"/>
      <rect class="st1" x="183.2" y="56.6" width="58.7" height=".9"/>
      <rect class="st1" x="183.2" y="56.6" width="58.7" height=".9"/>
      <rect class="st1" x="183.2" y="55.8" width="58.7" height=".9"/>
      <rect class="st1" x="183.2" y="54.9" width="58.7" height=".9"/>
      <rect class="st1" x="183.2" y="54.1" width="58.7" height=".9"/>
      <rect class="st1" x="183.2" y="53.2" width="58.7" height=".9"/>
      <rect class="st1" x="183.2" y="52.4" width="58.7" height=".9"/>
      <rect class="st1" x="183.2" y="51.5" width="58.7" height=".9"/>
      <rect class="st1" x="183.2" y="50.7" width="58.7" height=".9"/>
      <rect class="st1" x="183.2" y="49.8" width="58.7" height=".9"/>
      <rect class="st1" x="183.2" y="49.8" width="58.7" height=".9"/>
      <rect class="st1" x="183.2" y="49" width="58.7" height=".9"/>
      <rect class="st1" x="183.2" y="48.1" width="58.7" height=".9"/>
      <rect class="st1" x="183.2" y="47.3" width="58.7" height=".9"/>
      <rect class="st1" x="183.2" y="46.4" width="58.7" height=".9"/>
    </g>
  </g>
  <g>
    <path class="st1" d="M147.7,83.8h20.5c2.4,0,4.6-.5,6.6-1.3,1.8-1,3.5-2.3,4.9-3.8,1.5-1.8,2.7-3.8,3.6-6,.9-2.3,1.6-4.8,2-7.3.7-5.5.2-9.8-1.8-13.3-2-3.3-5.5-5-10-5h-33l-5.5,40c-.6,4.1-.6,7.6.2,10.4.7,2.8,1.7,5.1,3.1,6.9,1.3,1.5,3,2.8,4.8,3.6,1.8.8,3.7,1.3,5.4,1.3h31.2l1.7-12.8h-27.5c-1.7,0-2.8-.3-4-.8-.9-.8-1.5-1.3-2.1-2.3-.6-.8-.8-2.1-.8-3.1-.2-1.3,0-2.6.2-3.6l.4-2.9ZM151.1,59.2h16c.7,0,1.5.3,2.2.3.7.3,1.3.5,1.9,1s.9,1,1.3,1.8c.2.8.2,2,0,3.3-.2,1.3-.6,2.3-.9,3.3-.6.8-1.1,1.3-1.9,1.8-.6.5-1.3.8-2,1-.7,0-1.5.3-2.4.3h-15.8l1.7-12.8Z"/>
    <g class="st12">
      <rect class="st1" x="149.2" y="71.1" width="23" height=".9"/>
      <rect class="st1" x="149.2" y="71.1" width="23" height=".9"/>
      <rect class="st1" x="149.2" y="70.2" width="23" height=".9"/>
      <rect class="st1" x="149.2" y="69.4" width="23" height=".9"/>
      <rect class="st1" x="149.2" y="68.5" width="23" height=".9"/>
      <rect class="st1" x="149.2" y="67.7" width="23" height=".9"/>
      <rect class="st1" x="149.2" y="66.8" width="23" height=".9"/>
      <rect class="st1" x="149.2" y="66" width="23" height=".9"/>
      <rect class="st1" x="149.2" y="65.1" width="23" height=".9"/>
      <rect class="st1" x="149.2" y="64.3" width="23" height=".9"/>
      <rect class="st1" x="149.2" y="64.3" width="23" height=".9"/>
      <rect class="st1" x="149.2" y="63.4" width="23" height=".9"/>
      <rect class="st1" x="149.2" y="62.6" width="23" height=".9"/>
      <rect class="st1" x="149.2" y="61.7" width="23" height=".9"/>
      <rect class="st1" x="149.2" y="60.9" width="23" height=".9"/>
      <rect class="st1" x="149.2" y="60" width="23" height=".9"/>
      <rect class="st1" x="149.2" y="59.2" width="23" height=".9"/>
      <path class="st1" d="M134.5,109.4h51.8-51.8Z"/>
      <rect class="st1" x="134.7" y="108.5" width="51.9" height=".9"/>
      <rect class="st1" x="134.7" y="107.7" width="51.9" height=".9"/>
      <rect class="st1" x="134.7" y="106.8" width="51.9" height=".9"/>
      <rect class="st1" x="134.7" y="106" width="51.9" height=".9"/>
      <rect class="st1" x="134.7" y="105.1" width="51.9" height=".9"/>
      <rect class="st1" x="134.7" y="105.1" width="51.9" height=".9"/>
      <rect class="st1" x="134.7" y="104.3" width="51.9" height=".9"/>
      <rect class="st1" x="134.7" y="103.4" width="51.9" height=".9"/>
      <rect class="st1" x="134.7" y="102.6" width="51.9" height=".9"/>
      <rect class="st1" x="134.7" y="101.7" width="51.9" height=".9"/>
      <rect class="st1" x="134.7" y="100.9" width="51.9" height=".9"/>
      <rect class="st1" x="134.7" y="100" width="51.9" height=".9"/>
      <rect class="st1" x="134.7" y="99.2" width="51.9" height=".9"/>
      <rect class="st1" x="134.7" y="98.3" width="51.9" height=".9"/>
      <rect class="st1" x="134.7" y="98.3" width="51.9" height=".9"/>
      <rect class="st1" x="134.7" y="97.5" width="51.9" height=".9"/>
      <rect class="st1" x="134.7" y="96.6" width="51.9" height=".9"/>
      <rect class="st1" x="134.7" y="95.8" width="51.9" height=".9"/>
      <rect class="st1" x="134.7" y="94.9" width="51.9" height=".9"/>
      <rect class="st1" x="134.7" y="94.1" width="51.9" height=".9"/>
      <rect class="st1" x="134.7" y="93.2" width="51.9" height=".9"/>
      <rect class="st1" x="134.7" y="92.4" width="51.9" height=".9"/>
      <rect class="st1" x="134.7" y="91.5" width="51.9" height=".9"/>
      <rect class="st1" x="134.7" y="91.5" width="51.9" height=".9"/>
      <rect class="st1" x="134.7" y="90.7" width="51.9" height=".9"/>
      <rect class="st1" x="134.7" y="89.8" width="51.9" height=".9"/>
      <rect class="st1" x="134.7" y="89" width="51.9" height=".9"/>
      <rect class="st1" x="134.7" y="88.1" width="51.9" height=".9"/>
      <rect class="st1" x="134.7" y="87.3" width="51.9" height=".9"/>
      <rect class="st1" x="134.7" y="86.4" width="51.9" height=".9"/>
      <rect class="st1" x="134.7" y="85.6" width="51.9" height=".9"/>
      <rect class="st1" x="134.7" y="84.7" width="51.9" height=".9"/>
      <rect class="st1" x="134.7" y="84.7" width="51.9" height=".9"/>
      <rect class="st1" x="134.7" y="83.8" width="51.9" height=".9"/>
      <rect class="st1" x="134.7" y="83" width="51.9" height=".9"/>
      <rect class="st1" x="134.7" y="82.1" width="51.9" height=".9"/>
      <rect class="st1" x="134.7" y="81.3" width="51.9" height=".9"/>
      <rect class="st1" x="134.7" y="80.4" width="51.9" height=".9"/>
      <rect class="st1" x="134.7" y="79.6" width="51.9" height=".9"/>
      <rect class="st1" x="134.7" y="78.7" width="51.9" height=".9"/>
      <rect class="st1" x="134.7" y="77.9" width="51.9" height=".9"/>
      <rect class="st1" x="134.7" y="77.9" width="51.9" height=".9"/>
      <rect class="st1" x="134.7" y="77" width="51.9" height=".9"/>
      <rect class="st1" x="134.7" y="76.2" width="51.9" height=".9"/>
      <rect class="st1" x="134.7" y="75.3" width="51.9" height=".9"/>
      <rect class="st1" x="134.7" y="74.5" width="51.9" height=".9"/>
      <rect class="st1" x="134.7" y="73.6" width="51.9" height=".9"/>
      <rect class="st1" x="134.7" y="72.8" width="51.9" height=".9"/>
      <rect class="st1" x="134.7" y="71.9" width="51.9" height=".9"/>
      <rect class="st1" x="134.7" y="71.1" width="51.9" height=".9"/>
      <rect class="st1" x="134.7" y="71.1" width="51.9" height=".9"/>
      <rect class="st1" x="134.7" y="70.2" width="51.9" height=".9"/>
      <rect class="st1" x="134.7" y="69.4" width="51.9" height=".9"/>
      <rect class="st1" x="134.7" y="68.5" width="51.9" height=".9"/>
      <rect class="st1" x="134.7" y="67.7" width="51.9" height=".9"/>
      <rect class="st1" x="134.7" y="66.8" width="51.9" height=".9"/>
      <rect class="st1" x="134.7" y="66" width="51.9" height=".9"/>
      <rect class="st1" x="134.7" y="65.1" width="51.9" height=".9"/>
      <rect class="st1" x="134.7" y="64.3" width="51.9" height=".9"/>
      <rect class="st1" x="134.7" y="64.3" width="51.9" height=".9"/>
      <rect class="st1" x="134.7" y="63.4" width="51.9" height=".9"/>
      <rect class="st1" x="134.7" y="62.6" width="51.9" height=".9"/>
      <rect class="st1" x="134.7" y="61.7" width="51.9" height=".9"/>
      <rect class="st1" x="134.7" y="60.9" width="51.9" height=".9"/>
      <rect class="st1" x="134.7" y="60" width="51.9" height=".9"/>
      <rect class="st1" x="134.7" y="59.2" width="51.9" height=".9"/>
      <rect class="st1" x="134.7" y="58.3" width="51.9" height=".9"/>
      <rect class="st1" x="134.7" y="57.5" width="51.9" height=".9"/>
      <rect class="st1" x="134.7" y="57.5" width="51.9" height=".9"/>
      <rect class="st1" x="134.7" y="56.6" width="51.9" height=".9"/>
      <rect class="st1" x="134.7" y="55.8" width="51.9" height=".9"/>
      <rect class="st1" x="134.7" y="54.9" width="51.9" height=".9"/>
      <rect class="st1" x="134.7" y="54.1" width="51.9" height=".9"/>
      <rect class="st1" x="134.7" y="53.2" width="51.9" height=".9"/>
      <rect class="st1" x="134.7" y="52.4" width="51.9" height=".9"/>
      <rect class="st1" x="134.7" y="51.5" width="51.9" height=".9"/>
      <rect class="st1" x="134.7" y="50.7" width="51.9" height=".9"/>
      <rect class="st1" x="134.7" y="50.7" width="51.9" height=".9"/>
      <rect class="st1" x="134.7" y="49.8" width="51.9" height=".9"/>
      <rect class="st1" x="134.7" y="49" width="51.9" height=".9"/>
      <rect class="st1" x="134.7" y="48.1" width="51.9" height=".9"/>
      <rect class="st1" x="134.7" y="47.3" width="51.9" height=".9"/>
      <rect class="st1" x="134.7" y="46.4" width="51.9" height=".9"/>
    </g>
  </g>
  <g>
    <path class="st1" d="M262.6,84.7h14.3c1,0,1.8,0,2.7.3.8,0,1.4.3,2.1.8.6.5,1.2,1,1.4,2.1.2.8.4,1.8.2,3.1-.2,1.6-.6,2.6-1.2,3.4-.6.8-1.2,1.6-1.8,2.1-.8.3-1.6.5-2.5.8-1,.3-1.8.3-2.7.3h-30.4l-1.9,11.9h35.9c5,0,9.2-1.8,12.6-5.4,3.2-3.3,5.2-7.9,6-13.5.4-2.5.4-5.1.2-7.4-.4-2.3-1.2-4.3-2.2-5.9-1.2-1.8-2.6-3.1-4.4-3.8-1.8-1-4-1.5-6.6-1.5h-14.5c-.8,0-1.6,0-2.5-.3-.8,0-1.6-.3-2.3-.8-.6-.5-1-1-1.2-1.8-.4-1-.4-2.1-.2-3.4s.6-2.6,1.2-3.4c.4-.8,1-1.3,1.8-1.8.8-.5,1.6-.8,2.5-1,.8,0,1.8-.3,2.7-.3h27.6l1.8-11.9h-32.8c-2.6,0-5.1.5-7.1,1.3-2.2,1-4,2.3-5.7,3.8-1.6,1.8-2.8,3.8-4,6.2-1,2.3-1.6,4.6-2.2,7.4-.8,5.4,0,10,2.2,13.3,2.2,3.6,5.9,5.4,11.1,5.4h0Z"/>
    <g class="st11">
      <path class="st1" d="M242.6,109.4h58.5-58.5Z"/>
      <rect class="st1" x="242.8" y="108.5" width="58.7" height=".9"/>
      <rect class="st1" x="242.8" y="107.7" width="58.7" height=".9"/>
      <rect class="st1" x="242.8" y="106.8" width="58.7" height=".9"/>
      <rect class="st1" x="242.8" y="106.8" width="58.7" height=".9"/>
      <rect class="st1" x="242.8" y="106" width="58.7" height=".9"/>
      <rect class="st1" x="242.8" y="105.1" width="58.7" height=".9"/>
      <rect class="st1" x="242.8" y="104.3" width="58.7" height=".9"/>
      <rect class="st1" x="242.8" y="103.4" width="58.7" height=".9"/>
      <rect class="st1" x="242.8" y="102.6" width="58.7" height=".9"/>
      <rect class="st1" x="242.8" y="101.7" width="58.7" height=".9"/>
      <rect class="st1" x="242.8" y="100.9" width="58.7" height=".9"/>
      <rect class="st1" x="242.8" y="100" width="58.7" height=".9"/>
      <rect class="st1" x="242.8" y="99.2" width="58.7" height=".9"/>
      <rect class="st1" x="242.8" y="99.2" width="58.7" height=".9"/>
      <rect class="st1" x="242.8" y="98.3" width="58.7" height=".9"/>
      <rect class="st1" x="242.8" y="97.5" width="58.7" height=".9"/>
      <rect class="st1" x="242.8" y="96.6" width="58.7" height=".9"/>
      <rect class="st1" x="242.8" y="95.8" width="58.7" height=".9"/>
      <rect class="st1" x="242.8" y="94.9" width="58.7" height=".9"/>
      <rect class="st1" x="242.8" y="94.1" width="58.7" height=".9"/>
      <rect class="st1" x="242.8" y="93.2" width="58.7" height=".9"/>
      <rect class="st1" x="242.8" y="92.4" width="58.7" height=".9"/>
      <rect class="st1" x="242.8" y="92.4" width="58.7" height=".9"/>
      <rect class="st1" x="242.8" y="91.5" width="58.7" height=".9"/>
      <rect class="st1" x="242.8" y="90.7" width="58.7" height=".9"/>
      <rect class="st1" x="242.8" y="89.8" width="58.7" height=".9"/>
      <rect class="st1" x="242.8" y="89" width="58.7" height=".9"/>
      <rect class="st1" x="242.8" y="88.1" width="58.7" height=".9"/>
      <rect class="st1" x="242.8" y="87.3" width="58.7" height=".9"/>
      <rect class="st1" x="242.8" y="86.4" width="58.7" height=".9"/>
      <rect class="st1" x="242.8" y="85.6" width="58.7" height=".9"/>
      <rect class="st1" x="242.8" y="84.7" width="58.7" height=".9"/>
      <rect class="st1" x="242.8" y="84.7" width="58.7" height=".9"/>
      <rect class="st1" x="242.8" y="83.8" width="58.7" height=".9"/>
      <rect class="st1" x="242.8" y="83" width="58.7" height=".9"/>
      <rect class="st1" x="242.8" y="82.1" width="58.7" height=".9"/>
      <rect class="st1" x="242.8" y="81.3" width="58.7" height=".9"/>
      <rect class="st1" x="242.8" y="80.4" width="58.7" height=".9"/>
      <rect class="st1" x="242.8" y="79.6" width="58.7" height=".9"/>
      <rect class="st1" x="242.8" y="78.7" width="58.7" height=".9"/>
      <rect class="st1" x="242.8" y="77.9" width="58.7" height=".9"/>
      <rect class="st1" x="242.8" y="77.9" width="58.7" height=".9"/>
      <rect class="st1" x="242.8" y="77" width="58.7" height=".9"/>
      <rect class="st1" x="242.8" y="76.2" width="58.7" height=".9"/>
      <rect class="st1" x="242.8" y="75.3" width="58.7" height=".9"/>
      <rect class="st1" x="242.8" y="74.5" width="58.7" height=".9"/>
      <rect class="st1" x="242.8" y="73.6" width="58.7" height=".9"/>
      <rect class="st1" x="242.8" y="72.8" width="58.7" height=".9"/>
      <rect class="st1" x="242.8" y="71.9" width="58.7" height=".9"/>
      <rect class="st1" x="242.8" y="71.1" width="58.7" height=".9"/>
      <rect class="st1" x="242.8" y="70.2" width="58.7" height=".9"/>
      <rect class="st1" x="242.8" y="70.2" width="58.7" height=".9"/>
      <rect class="st1" x="242.8" y="69.4" width="58.7" height=".9"/>
      <rect class="st1" x="242.8" y="68.5" width="58.7" height=".9"/>
      <rect class="st1" x="242.8" y="67.7" width="58.7" height=".9"/>
      <rect class="st1" x="242.8" y="66.8" width="58.7" height=".9"/>
      <rect class="st1" x="242.8" y="66" width="58.7" height=".9"/>
      <rect class="st1" x="242.8" y="65.1" width="58.7" height=".9"/>
      <rect class="st1" x="242.8" y="64.3" width="58.7" height=".9"/>
      <rect class="st1" x="242.8" y="63.4" width="58.7" height=".9"/>
      <rect class="st1" x="242.8" y="63.4" width="58.7" height=".9"/>
      <rect class="st1" x="242.8" y="62.6" width="58.7" height=".9"/>
      <rect class="st1" x="242.8" y="61.7" width="58.7" height=".9"/>
      <rect class="st1" x="242.8" y="60.9" width="58.7" height=".9"/>
      <rect class="st1" x="242.8" y="60" width="58.7" height=".9"/>
      <rect class="st1" x="242.8" y="59.2" width="58.7" height=".9"/>
      <rect class="st1" x="242.8" y="58.3" width="58.7" height=".9"/>
      <rect class="st1" x="242.8" y="57.5" width="58.7" height=".9"/>
      <rect class="st1" x="242.8" y="56.6" width="58.7" height=".9"/>
      <rect class="st1" x="242.8" y="56.6" width="58.7" height=".9"/>
      <rect class="st1" x="242.8" y="55.8" width="58.7" height=".9"/>
      <rect class="st1" x="242.8" y="54.9" width="58.7" height=".9"/>
      <rect class="st1" x="242.8" y="54.1" width="58.7" height=".9"/>
      <rect class="st1" x="242.8" y="53.2" width="58.7" height=".9"/>
      <rect class="st1" x="242.8" y="52.4" width="58.7" height=".9"/>
      <rect class="st1" x="242.8" y="51.5" width="58.7" height=".9"/>
      <rect class="st1" x="242.8" y="50.7" width="58.7" height=".9"/>
      <rect class="st1" x="242.8" y="49.8" width="58.7" height=".9"/>
      <rect class="st1" x="242.8" y="49" width="58.7" height=".9"/>
      <rect class="st1" x="242.8" y="49" width="58.7" height=".9"/>
      <rect class="st1" x="242.8" y="48.1" width="58.7" height=".9"/>
      <rect class="st1" x="242.8" y="47.3" width="58.7" height=".9"/>
      <rect class="st1" x="242.8" y="46.4" width="58.7" height=".9"/>
    </g>
  </g>
  <polygon class="st1" points="281.1 109.4 170.2 109.4 167.6 96.6 284.1 96.8 281.1 109.4"/>
  <g class="st6">
    <g class="st6">
      <path class="st14" d="M76.1,148.7c-.6,1.8-2.8,3.7-4.2,4.8-7.3,5.9-18.1,11.1-27.6,14.6-.3.4-.3.5-.6.9,4.8,2.2,17.5,7.2,22.2,4.8.8-.4,2.3,1.8,1.2,2.3-5.4,2.8-18.9-2.9-24.5-5.6-1.8,2.8-3.3,5.3-4.6,7.7-.5.9-.9,2.1-.9,2.6s-.2.7-.5.7c-.5.1-1.8-.5-2-1.2-.2-.6.2-1.5.5-2.2,1.1-2.1,3.2-5.2,5.4-8.6-1.2-.6-1.1-.6-1.2-1.1-.2-.6-.3-1.1.8-1.4.6-.1,1.8-.4,2.4-.6,1.2-1.7,2-2.9,3.2-4.5-.9-.4-.5-1.2-.3-1.2,1.1-.3,7.8-8.2,8.3-8.7.2-.2,2.7.1,1.3,1.9-3.1,3.7-5.9,7.2-8.6,11.1,5.3-2.2,16.5-7.5,23-12.5,1.3-1,5.4-4.3,4.8-6.5-.9-3.3-11.6-2.2-15.1-1.3-4.6,1.1-6.8,2-10,3.5-3.5,1.6-8.7,4.4-11.4,6.4-.3.3-1.2.9-1.3,1.3-.3,1-3.4-.2-1.9-1.7,1.6-1.7,7.9-5.2,12.1-7.2,3.9-1.8,6.4-2.8,11.2-3.9,2.1-.6,4.2-.9,6.4-1.1,9.3-.8,13,3.2,11.8,6.8Z"/>
      <path class="st14" d="M80.4,164.8c-4.3,4-9.7,7.2-12.4,7.6-1,.1-2,0-2.9-.3-1.2-.6-2.2-1.8-2.1-3.2.3-3.7,6.4-9.5,9.9-10.8.7-.3,1.5-.4,2.2-.2.7.1,1.4.6,1.6,1.3.2.5,0,1.1-.2,1.5-1.1,2.5-5.6,6.6-7.8,7.4-1,.3-2,.3-2.8-.4-1,2-.5,2.9,0,3,1.1.3,3.1-.5,4.2-1,3.5-1.5,5.7-3.7,8.5-6.3.4-.4,1.1-.2,1.5,0,.6.4.7,1,.4,1.2ZM67,165.9c.2.1.3.3.4.5,2.2-1,6-4.7,6.8-6.6-2.5,1-5.5,3.9-7.3,6.2Z"/>
      <path class="st14" d="M95.7,165.5c-3.9,2-9.2,5.2-13.1,7.4.4,1.8-.1,3.2-1.4,4.4-1.5,1.4-4.6,3.2-6.5,3.1-1.4-.1-2.2-1.7-2.1-2.4.4-2.3,5.3-4.9,7.3-6.2-.7-2.2-2.6-4.1-1.5-7.5.7-2.5,3.7-5.1,6.1-6.3,2.6-1.3,5,.3,5.2,2.3.3-.4.8-1.3,1.1-1.6.3-.2.5-.3.8-.3,1,0,2,1.2,1.3,1.8-1.7,1.5-3.4,3.1-3.9,3.9,0,.3-.4.4-.7.4-.6.1-1.6-.3-1.8-1-.1-1.1.9-2,.9-3.4s-.3-.9-1-.6c-1.4.6-3.5,2.1-4.6,3.3-2.9,3.6-1,5.7,0,7.8,5.2-2.9,8.3-5.1,12.9-7.2.9-.4,1.5.9,1.5,1.6,0,.3-.2.5-.4.5ZM79.8,174.5c-.9.6-4.4,3.1-5.2,3.9,1.4-.5,4.5-2.5,5.2-3.9Z"/>
      <path class="st14" d="M125.1,153.1c-6,0-12.1.6-18.2,1.1-2.8,2.8-5.4,4.9-6.7,5.8-2.7,3.5-4.3,6.1-5.2,7.7-.5.9-1.4,2.9-1.4,4,.5,0,1.1-.2,3.9-1.6,3.7-1.9,7.1-4.2,10.8-6.8.5-.3,1.1-.2,1.5.1.6.4.7.9.4,1.1-4.1,2.9-8.4,5.9-13,8-.9.4-1.9.8-2.9.7-1.2,0-2.8-.8-2.9-2.2-.2-2.6,3.3-7.5,4.9-9.8-.3-.2-.6-.5-.6-.8s.1-.4.3-.5c.8-.4,1.5-.8,2.2-1.3,1-1.3,2.1-2.7,3.3-4.1-.4,0-.9,0-1.3.1,0,.3,0,.5-.5.4-2.2.1-4.4.6-6.9.9-1.2.1-1.6.2-2.1.4-.1,0-.4.6-.5.5-.2,0-.2-.4-.3-.5-.2-.5-.2-1.2,0-1.7.2-.6.9-.9,1.5-1,2.8-.6,7.3-1.1,12-1.5,1.9-2.2,3.9-4.4,5.7-6.2,1-1,2-1.9,3.2-2.6,1.4-.7,3.1.5,2.8,1.1-.6,1.3-1.6,2.5-3.2,4.2-.9,1-1.9,2-2.8,2.9,6.7-.5,12.9-.7,15-.7s1,1.9.8,1.9Z"/>
      <path class="st14" d="M122.1,164.7c0,.2-.2.4-.3.5-3.1,1.9-5.4,2.1-7.1,2.3-1.4,2.5-5.1,6-7.9,6.4-.8.1-1.6,0-2.2-.3-3.4-2,3-9.3,3.9-10.8,0-.1,0-.3,0-.4,0-.2.3-.4.5-.4.9-1.3,2.4-2.9,3.1-3.1,1-.4,2,.5,2,1.1,0,.2-.2.5-.4.5-.3.1-1.7,1.3-1.9,1.7,1.4.3,3.9,1.3,3.5,3.3,1.2-.2,2.2-.4,4.9-1.9.2-.1.6,0,.8,0,.5.1,1.1.6,1.1,1.1ZM112.1,167.5c-.9-.1-1.5-.5-2-1-.3-.4-.4-.7-.5-1.2-.9,1.3-3.8,5.4-3.9,6.9.4.9,4.7-2.3,6.5-4.7ZM111.7,164c0,.6,0,1.2.2,1.7.4,0,.6,0,1,0,0-.2.2-.4.2-.6.2-.8-.8-1-1.4-1.1Z"/>
      <path class="st14" d="M141.6,160.4c0,.2-.3.3-.5.3-.6.1-1.7-.5-1.7-1.1.2-.6-.7-.4-1.1-.3-3.1.5-12.5,3.5-19.3,12.3-.2.2-.5.2-.7.2s-.5,0-.7-.2c-.7-.4-1-.8-.9-1.1,1.5-3.1,1.2-1.7,3.6-6.4-.2-.3-.2-.5,0-.7.9-1.2,3.5-4.8,4.4-6,.2-.2.5-.2.7-.2.3,0,.5.1.7.2.7.4.8.9.7,1.1-1.9,2.8-2,3.1-3.8,6.1,5.4-4.8,13-7.9,15.6-7.7.9,0,2,1.3,2.6,1.9.4.5.5,1,.4,1.6Z"/>
      <path class="st14" d="M156.3,164.8c-4.3,4-9.7,7.2-12.4,7.6-1,.1-2,0-2.9-.3-1.2-.6-2.2-1.8-2.1-3.2.3-3.7,6.4-9.5,9.9-10.8.7-.3,1.5-.4,2.2-.2.7.1,1.4.6,1.6,1.3.2.5,0,1.1-.2,1.5-1.1,2.5-5.6,6.6-7.8,7.4-1,.3-2,.3-2.8-.4-1,2-.5,2.9,0,3,1.1.3,3.1-.5,4.2-1,3.5-1.5,5.7-3.7,8.5-6.3.4-.4,1.1-.2,1.5,0,.6.4.7,1,.4,1.2ZM142.9,165.9c.2.1.3.3.4.5,2.2-1,6-4.7,6.8-6.6-2.5,1-5.5,3.9-7.3,6.2Z"/>
      <path class="st14" d="M159,170.3c-.5,1.2-.5,1.2-1,1.8-.1.1-.4,0-.6,0-.3,0-1.6-.6-1.4-1,.2-.6.6-1.2.9-1.8.2-.4,1.3-.1,1.8.4,0,0,.3.3.2.5Z"/>
      <path class="st14" d="M216.6,148.7c-.6,1.8-2.8,3.7-4.2,4.8-7.3,5.9-18.1,11.1-27.6,14.6-.3.4-.3.5-.6.9,4.8,2.2,17.5,7.2,22.2,4.8.8-.4,2.3,1.8,1.2,2.3-5.4,2.8-18.9-2.9-24.5-5.6-1.8,2.8-3.3,5.3-4.6,7.7-.5.9-.9,2.1-.9,2.6s-.2.7-.5.7c-.5.1-1.8-.5-2-1.2-.2-.6.2-1.5.5-2.2,1.1-2.1,3.2-5.2,5.4-8.6-1.2-.6-1.1-.6-1.2-1.1-.2-.6-.3-1.1.8-1.4.6-.1,1.8-.4,2.4-.6,1.2-1.7,2-2.9,3.2-4.5-.9-.4-.5-1.2-.3-1.2,1.1-.3,7.8-8.2,8.3-8.7.2-.2,2.7.1,1.3,1.9-3.1,3.7-5.9,7.2-8.6,11.1,5.3-2.2,16.5-7.5,23-12.5,1.3-1,5.4-4.3,4.8-6.5-.9-3.3-11.6-2.2-15.1-1.3-4.6,1.1-6.8,2-10,3.5-3.5,1.6-8.7,4.4-11.4,6.4-.3.3-1.2.9-1.3,1.3-.3,1-3.4-.2-1.9-1.7,1.6-1.7,7.9-5.2,12.1-7.2,3.9-1.8,6.4-2.8,11.2-3.9,2.1-.6,4.2-.9,6.4-1.1,9.3-.8,13,3.2,11.8,6.8Z"/>
      <path class="st14" d="M220.9,164.8c-4.3,4-9.7,7.2-12.4,7.6-1,.1-2,0-2.9-.3-1.2-.6-2.2-1.8-2.1-3.2.3-3.7,6.4-9.5,9.9-10.8.7-.3,1.5-.4,2.2-.2.7.1,1.4.6,1.6,1.3.2.5,0,1.1-.2,1.5-1.1,2.5-5.6,6.6-7.8,7.4-1,.3-2,.3-2.8-.4-1,2-.5,2.9,0,3,1.1.3,3.1-.5,4.2-1,3.5-1.5,5.7-3.7,8.5-6.3.4-.4,1.1-.2,1.5,0,.6.4.7,1,.4,1.2ZM207.5,165.9c.2.1.3.3.4.5,2.2-1,6-4.7,6.8-6.6-2.5,1-5.5,3.9-7.3,6.2Z"/>
      <path class="st14" d="M231.3,165.1c-5.7,1.5-7.1,1.9-10.5,2.6,1.5,1.7,1.8,3.6,1.1,6.1-1.1,4.2-5.9,8.8-8.8,10.5-1.4.8-3.2-.1-3.7-1.5-.8-2,.9-5.6,2.4-8.6.9-1.8,2-3.6,3.3-5.4-.7.1-1.7.5-2,.2-.5-.7-.2-1.6.9-1.9.9-.2,1.8-.4,2.6-.5,0,0,1.1-1.5,1.2-1.6,3.6-4.8,5.3-6.5,9-11.1,0,0,.1,0,.2-.1.3-.3,1.5.2,1.9.6,0,0,.3.3.2.4-.7,1-.8,2.4-.8,3.6h0c.2.3.2.5,0,.6-.5,0-1.5-.4-1.9-.8-3,3.6-3.6,4.2-6.4,7.9,3.4-.6,4.8-1,10.4-2.5.9-.2,1.3.7,1.3,1.2,0,.2-.1.4-.3.4ZM218.3,168.1c-7.6,10.8-7.1,14.1-6.8,14.8,2.1-1.2,4-3.2,5.7-5.3,1.4-1.7,2.4-3.5,3-5.4.4-2.8-1.6-4.2-1.9-4.1Z"/>
      <path class="st14" d="M251.6,160.4c0,.2-.3.3-.5.3-.6.1-1.7-.5-1.7-1.1.2-.6-.7-.4-1.1-.3-3.1.5-12.5,3.5-19.3,12.3-.2.2-.5.2-.7.2s-.5,0-.7-.2c-.7-.4-1-.8-.9-1.1,1.5-3.1,1.2-1.7,3.6-6.4-.2-.3-.2-.5,0-.7.9-1.2,3.5-4.8,4.4-6,.2-.2.5-.2.7-.2.3,0,.5.1.7.2.7.4.8.9.7,1.1-1.9,2.8-2,3.1-3.8,6.1,5.4-4.8,13-7.9,15.6-7.7.9,0,2,1.3,2.6,1.9.4.5.5,1,.4,1.6Z"/>
      <path class="st14" d="M266.3,164.8c-4.3,4-9.7,7.2-12.4,7.6-1,.1-2,0-2.9-.3-1.2-.6-2.2-1.8-2.1-3.2.3-3.7,6.4-9.5,9.9-10.8.7-.3,1.5-.4,2.2-.2.7.1,1.4.6,1.6,1.3.2.5,0,1.1-.2,1.5-1.1,2.5-5.6,6.6-7.8,7.4-1,.3-2,.3-2.8-.4-1,2-.5,2.9,0,3,1.1.3,3.1-.5,4.2-1,3.5-1.5,5.7-3.7,8.5-6.3.4-.4,1.1-.2,1.5,0,.6.4.7,1,.4,1.2ZM252.9,165.9c.2.1.3.3.4.5,2.2-1,6-4.7,6.8-6.6-2.5,1-5.5,3.9-7.3,6.2Z"/>
      <path class="st14" d="M281.5,165.5c-3.9,2-9.2,5.2-13.1,7.4.4,1.8-.1,3.2-1.4,4.4-1.5,1.4-4.6,3.2-6.5,3.1-1.4-.1-2.2-1.7-2.1-2.4.4-2.3,5.3-4.9,7.3-6.2-.7-2.2-2.6-4.1-1.5-7.5.7-2.5,3.7-5.1,6.1-6.3,2.6-1.3,5,.3,5.2,2.3.3-.4.8-1.3,1.1-1.6.3-.2.5-.3.8-.3,1,0,2,1.2,1.3,1.8-1.7,1.5-3.4,3.1-3.9,3.9,0,.3-.4.4-.7.4-.6.1-1.6-.3-1.8-1-.1-1.1.9-2,.9-3.4s-.3-.9-1-.6c-1.4.6-3.5,2.1-4.6,3.3-2.9,3.6-1,5.7,0,7.8,5.2-2.9,8.3-5.1,12.9-7.2.9-.4,1.5.9,1.5,1.6,0,.3-.2.5-.4.5ZM265.7,174.5c-.9.6-4.4,3.1-5.2,3.9,1.4-.5,4.5-2.5,5.2-3.9Z"/>
      <path class="st14" d="M302.4,164.6c0,.2-.1.5-.3.6-3.2,3.1-5.6,5.8-7.9,6.6-1.2.4-2.3-.8-2.9-1.6-.7-.8,2.1-6.2,1.9-6.6.2-.6-6.3,2.8-10.9,6.9-1.1,1-3.7,3.7-4.6,3.6-.3,0-1.3-.4-1.7-.7-.4-.3-1.8.4,3.4-7.9-.5-.3-.6-.6-.4-.6.4-.1.7-.5,1-.7-.3.3.2-.2.8-.8,1.8-2.6,6.8-9.4,8.8-11.9,2.5-3.3,3.3-4.5,4.6-4.8.4,0,.9,0,1.3.3.2,0,.8.6.3,1.4-.9,1.6-8.4,11.4-12.7,15.8-.6.6-2.7,4.6-3.2,5.5,2.8-2.4,10.8-7.5,11.7-7.9,2.2-1,3.9.9,3.9,2.2,0,.7-1.9,4.9-1.8,5.4,1.3-.1,3.4-2.3,7.3-5.6.4-.4,1.4.4,1.5,1.1Z"/>
      <path class="st14" d="M305.6,170.3c-.5,1.2-.5,1.2-1,1.8-.1.1-.4,0-.6,0-.3,0-1.6-.6-1.4-1,.2-.6.6-1.2.9-1.8.2-.4,1.3-.1,1.8.4,0,0,.3.3.2.5Z"/>
      <path class="st14" d="M363.2,148.7c-.6,1.8-2.8,3.7-4.2,4.8-7.3,5.9-18.1,11.1-27.6,14.6-.3.4-.3.5-.6.9,4.8,2.2,17.5,7.2,22.2,4.8.8-.4,2.3,1.8,1.2,2.3-5.4,2.8-18.9-2.9-24.5-5.6-1.8,2.8-3.3,5.3-4.6,7.7-.5.9-.9,2.1-.9,2.6s-.2.7-.5.7c-.5.1-1.8-.5-2-1.2-.2-.6.2-1.5.5-2.2,1.1-2.1,3.2-5.2,5.4-8.6-1.2-.6-1.1-.6-1.2-1.1-.2-.6-.3-1.1.8-1.4.6-.1,1.8-.4,2.4-.6,1.2-1.7,2-2.9,3.2-4.5-.9-.4-.5-1.2-.3-1.2,1.1-.3,7.8-8.2,8.3-8.7.2-.2,2.7.1,1.3,1.9-3.1,3.7-5.9,7.2-8.6,11.1,5.3-2.2,16.5-7.5,23-12.5,1.3-1,5.4-4.3,4.8-6.5-.9-3.3-11.6-2.2-15.1-1.3-4.6,1.1-6.8,2-10,3.5-3.5,1.6-8.7,4.4-11.4,6.4-.3.3-1.2.9-1.3,1.3-.3,1-3.4-.2-1.9-1.7,1.6-1.7,7.9-5.2,12.1-7.2,3.9-1.8,6.4-2.8,11.2-3.9,2.1-.6,4.2-.9,6.4-1.1,9.3-.8,13,3.2,11.8,6.8Z"/>
      <path class="st14" d="M367.5,164.8c-4.3,4-9.7,7.2-12.4,7.6-1,.1-2,0-2.9-.3-1.2-.6-2.2-1.8-2.1-3.2.3-3.7,6.4-9.5,9.9-10.8.7-.3,1.5-.4,2.2-.2.7.1,1.4.6,1.6,1.3.2.5,0,1.1-.2,1.5-1.1,2.5-5.6,6.6-7.8,7.4-1,.3-2,.3-2.8-.4-1,2-.5,2.9,0,3,1.1.3,3.1-.5,4.2-1,3.5-1.5,5.7-3.7,8.5-6.3.4-.4,1.1-.2,1.5,0,.6.4.7,1,.4,1.2ZM354.1,165.9c.2.1.3.3.4.5,2.2-1,6-4.7,6.8-6.6-2.5,1-5.5,3.9-7.3,6.2Z"/>
      <path class="st14" d="M386.6,164.7c-1.5,1.2-6.1,5.1-7.8,6-1.5.7-3.1.4-4.2-.7-1.1-1.1.2-6.4.1-7-2.4.9-8.2,6.1-11.6,9.8-.4.4-2.3-.3-2.1-1.1.3-1.3,1.3-2.7,2-3.8,2.5-3.9,4.2-6.6,6.7-10.3.3-.4.9-.2,1.3,0,.7.3,1,.8.9,1-2.2,3.6-4.5,6-6.2,8.9,1.4-1.2,5.5-5,7.2-5.7.6-.3,1.2-.5,1.8-.4.6,0,1.2.4,1.7.9,1.6,1.7-.7,5.6-.2,7.4,0,0,.4,0,.8-.3,1.6-.9,6.8-4.9,8-5.9.8-.5,2.2.8,1.5,1.3Z"/>
      <path class="st14" d="M399.3,164.8c-4.3,4-9.7,7.2-12.4,7.6-1,.1-2,0-2.9-.3-1.2-.6-2.2-1.8-2.1-3.2.3-3.7,6.4-9.5,9.9-10.8.7-.3,1.5-.4,2.2-.2.7.1,1.4.6,1.6,1.3.2.5,0,1.1-.2,1.5-1.1,2.5-5.6,6.6-7.8,7.4-1,.3-2,.3-2.8-.4-1,2-.5,2.9,0,3,1.1.3,3.1-.5,4.2-1,3.5-1.5,5.7-3.7,8.5-6.3.4-.4,1.1-.2,1.5,0,.6.4.7,1,.4,1.2ZM385.9,165.9c.2.1.3.3.4.5,2.2-1,6-4.7,6.8-6.6-2.5,1-5.5,3.9-7.3,6.2Z"/>
      <path class="st14" d="M423.3,160.3c-2.3,4.4-9,10.4-13,12-2.2.9-4.5-1.5-4.1-2.9.2-.9,2.8-5.1,3.4-6.5-2.2,1.6-8.4,7.3-11.4,8.9-1.2.7-2.6,1.7-3.8,1-.9-.5-1.7-1.2-1.5-2.4.7-2.8,5.3-8.3,7.5-10.5.6-.6,2.5.2,2.2,1.5,0,.3-.5.4-.8.4-2.1,2.1-3.4,3.8-5.3,6.9-.3.6-.9,1.3-.9,2,1.7-.4,8.4-6.6,11.2-8.5.8-.6,2-1.4,2.9-1.8,1.1-.4,2.7-.3,2.9,1.2,0,.5-3,5.8-3.7,7.3-.4,1-.7,1.4-.5,1.6.2.2,1.5-.5,1.8-.6,4.4-2.3,12.5-10.9,11.7-12.1,0-1.6,2.8-.2,1.5,2.4Z"/>
      <path class="st14" d="M429.4,170.3c-.5,1.2-.5,1.2-1,1.8-.1.1-.4,0-.6,0-.3,0-1.6-.6-1.4-1,.2-.6.6-1.2.9-1.8.2-.4,1.3-.1,1.8.4,0,0,.3.3.2.5Z"/>
    </g>
  </g>
  <line class="st0" x1="640.4" y1="126.7" x2="641.4" y2="126.7"/>
</svg>