<?xml version="1.0" encoding="UTF-8"?>
<svg id="Layer_1" data-name="Layer 1" xmlns="http://www.w3.org/2000/svg" viewBox="0 0 2442.74 2203.61">
  <defs>
    <style>
      .cls-1 {
        fill: #dd997a;
      }

      .cls-2 {
        fill: #3c728c;
      }

      .cls-3 {
        fill: #5ba8aa;
      }
    </style>
  </defs>
  <g>
    <path class="cls-1" d="M1149.74,669.66l3.95,6.84c2.46,4.27,7.92,5.74,12.19,3.28h0c4.29-2.46,5.76-7.94,3.29-12.22l-3.95-6.84c-2.46-4.27-7.92-5.74-12.19-3.28h0c-4.29,2.46-5.76,7.94-3.29,12.22Z"/>
    <rect class="cls-1" x="1324.1" y="625.16" width="36.45" height="17.95" rx="8.98" ry="8.98"/>
    <path class="cls-1" d="M1218.13,509.87h0c-2.46-4.29-7.94-5.76-12.22-3.29l-6.84,3.95c-4.27,2.46-5.74,7.92-3.28,12.19h0c2.46,4.29,7.94,5.76,12.22,3.29l6.84-3.95c4.27-2.46,5.74-7.92,3.28-12.19Z"/>
    <path class="cls-1" d="M1059.38,477.41l-3.95-6.84c-2.46-4.27-7.92-5.74-12.19-3.28h0c-4.29,2.46-5.76,7.94-3.29,12.22l3.95,6.84c2.46,4.27,7.92,5.74,12.19,3.28h0c4.29-2.46,5.76-7.94,3.29-12.22Z"/>
    <path class="cls-1" d="M1018.2,583.92c2.1,20.61,11.34,39.11,25.21,52.98,3.29,3.29,6.84,6.32,10.62,9.06l-17.03,29.5c-2.47,4.28-1.01,9.75,3.27,12.23h0c4.28,2.48,9.77,1.02,12.24-3.27l17.03-29.49c8.34,3.74,17.38,6.22,26.86,7.19v32.51c0,4.96,4.02,8.98,8.98,8.98h0c4.96,0,8.98-4.02,8.98-8.98v-32.51c20.61-2.1,39.11-11.34,52.98-25.21,3.3-3.29,6.33-6.85,9.07-10.63l29.52,17.04c4.28,2.47,9.75,1,12.22-3.29h0c2.46-4.27,.99-9.73-3.28-12.19l-29.5-17.03c3.75-8.35,6.23-17.39,7.2-26.88h181.46c4.96,0,8.98-4.02,8.98-8.98h0c0-4.96-4.02-8.98-8.98-8.98h-181.46c-2.1-20.61-11.34-39.11-25.21-52.98-3.29-3.29-6.85-6.33-10.63-9.07l17.04-29.51c2.47-4.28,1-9.75-3.29-12.22h0c-4.27-2.46-9.73-.99-12.19,3.28l-17.04,29.5c-8.35-3.75-17.39-6.23-26.88-7.2v-45.9c0-4.96-4.02-8.98-8.98-8.98h0c-4.96,0-8.98,4.02-8.98,8.98v45.9c-20.61,2.1-39.11,11.34-52.98,25.21-3.29,3.29-6.32,6.84-9.06,10.62l-29.5-17.03c-4.28-2.47-9.75-1.01-12.23,3.27h0c-2.48,4.28-1.02,9.77,3.27,12.24l29.49,17.03c-3.75,8.34-6.22,17.38-7.19,26.86h-72.53c-3.76,5.89-7.37,11.87-10.84,17.95h83.37Zm37.9-58.24c12.61-12.61,30.03-20.41,49.27-20.41s36.66,7.8,49.27,20.41c12.61,12.61,20.41,30.03,20.41,49.27s-7.8,36.66-20.41,49.27c-12.61,12.61-30.03,20.41-49.27,20.41s-36.66-7.8-49.27-20.41c-12.61-12.61-20.41-30.03-20.41-49.27s7.8-36.66,20.41-49.27Z"/>
    <rect class="cls-1" x="1288.78" y="625.16" width="18.92" height="17.95" rx="8.98" ry="8.98"/>
    <rect class="cls-1" x="1332.78" y="507.16" width="18.92" height="17.95" rx="8.98" ry="8.98"/>
    <path class="cls-1" d="M989.8,641.69h0c2.48,4.28,7.95,5.74,12.23,3.27l9.63-5.56c4.29-2.48,5.75-7.96,3.27-12.24h0c-2.48-4.28-7.95-5.74-12.23-3.27l-9.63,5.56c-4.29,2.47-5.75,7.96-3.27,12.24Z"/>
    <path class="cls-1" d="M949.67,513.04s-.04,.05-.06,.07c.02-.02,.04-.05,.06-.07Z"/>
    <rect class="cls-1" x="1407.55" y="565.97" width="36.45" height="17.95" rx="8.98" ry="8.98"/>
    <path class="cls-1" d="M953.73,508.53c-.45,.49-.89,.98-1.33,1.47,.44-.49,.89-.98,1.33-1.47Z"/>
    <path class="cls-1" d="M958.27,503.65c-.92,.97-1.83,1.95-2.74,2.93,.91-.98,1.82-1.96,2.74-2.93Z"/>
    <rect class="cls-1" x="1380.71" y="624.8" width="108" height="18" rx="9" ry="9"/>
    <rect class="cls-1" x="1369.71" y="506.8" width="122" height="18" rx="9" ry="9"/>
  </g>
  <g>
    <g>
      <path class="cls-1" d="M1144.94,70.77c39.09,0,70.77-31.69,70.77-70.77,0,39.09,31.69,70.77,70.77,70.77-39.09,0-70.77,31.69-70.77,70.77,0-39.09-31.69-70.77-70.77-70.77Z"/>
      <path class="cls-1" d="M940.25,133.9c39.09,0,70.77-31.69,70.77-70.77,0,39.09,31.69,70.77,70.77,70.77-39.09,0-70.77,31.69-70.77,70.77,0-39.09-31.69-70.77-70.77-70.77Z"/>
      <path class="cls-1" d="M1491.18,133.9c-39.09,0-70.77-31.69-70.77-70.77,0,39.09-31.69,70.77-70.77,70.77,39.09,0,70.77,31.69,70.77,70.77,0-39.09,31.69-70.77,70.77-70.77Z"/>
    </g>
    <g>
      <path class="cls-1" d="M513.41,1258.94h-64.95c-4.22,0-7.64-3.42-7.64-7.64s3.42-7.64,7.64-7.64h64.95c4.22,0,7.64,3.42,7.64,7.64s-3.42,7.64-7.64,7.64Z"/>
      <path class="cls-1" d="M1982.96,1258.94h-64.95c-4.22,0-7.64-3.42-7.64-7.64s3.42-7.64,7.64-7.64h64.95c4.22,0,7.64,3.42,7.64,7.64s-3.42,7.64-7.64,7.64Z"/>
    </g>
  </g>
  <path class="cls-3" d="M1489.71,939.38v-25.19h-58.79v-182.8c0-6.95-5.64-12.59-12.59-12.59s-12.59,5.64-12.59,12.59v89.52h-81.43l-17.51,43.32s-.02,.04-.02,.06l-20.16,49.89h-51.98v-121.62h107.83v-62.32h-240.85v62.32h107.83v121.62h-61.97l-20.15-49.87s-.02-.06-.03-.09l-17.5-43.31h-81.43v-89.52c0-6.95-5.64-12.59-12.59-12.59s-12.59,5.64-12.59,12.59v182.8h-61.46v25.19h548Zm-148.42-93.27h64.45v10.46h-68.67l4.23-10.46Zm-14.41,35.65h78.85v32.44h-91.96l13.11-32.44Zm-200.08-114.37v-11.94h190.48v11.94h-190.48Zm-98.45,78.72h64.45l4.23,10.46h-68.67v-10.46Zm0,35.65h78.85l13.11,32.44h-91.96v-32.44Z"/>
  <path class="cls-2" d="M1215.71,219.8c41.73,0,82.19,8.17,120.27,24.27,36.79,15.56,69.84,37.85,98.23,66.23,28.39,28.39,50.67,61.43,66.23,98.23,16.11,38.08,24.27,78.54,24.27,120.27v244c0,41.73-8.17,82.19-24.27,120.27-15.56,36.79-37.85,69.84-66.23,98.23-28.39,28.39-61.43,50.67-98.23,66.23-38.08,16.11-78.54,24.27-120.27,24.27s-82.19-8.17-120.27-24.27c-36.79-15.56-69.84-37.85-98.23-66.23-28.39-28.39-50.67-61.43-66.23-98.23-16.11-38.08-24.27-78.54-24.27-120.27v-244c0-41.73,8.17-82.19,24.27-120.27,15.56-36.79,37.85-69.84,66.23-98.23,28.39-28.39,61.43-50.67,98.23-66.23,38.08-16.11,78.54-24.27,120.27-24.27h0m0-25h0c-184.46,0-334,149.54-334,334v244c0,184.46,149.54,334,334,334h0c184.46,0,334-149.54,334-334v-244c0-184.46-149.54-334-334-334h0Z"/>
  <path class="cls-3" d="M1364.76,993.3h-297.06c-6.9,0-12.5-5.6-12.5-12.5s5.6-12.5,12.5-12.5h297.06c6.9,0,12.5,5.6,12.5,12.5s-5.6,12.5-12.5,12.5Z"/>
  <path class="cls-3" d="M1280.21,1043.3h-127.52c-6.9,0-12.5-5.6-12.5-12.5s5.6-12.5,12.5-12.5h127.52c6.9,0,12.5,5.6,12.5,12.5s-5.6,12.5-12.5,12.5Z"/>
  <path class="cls-2" d="M1215.71,219.8c41.73,0,82.19,8.17,120.27,24.27,36.79,15.56,69.84,37.85,98.23,66.23,28.39,28.39,50.67,61.43,66.23,98.23,16.11,38.08,24.27,78.54,24.27,120.27v244c0,41.73-8.17,82.19-24.27,120.27-15.56,36.79-37.85,69.84-66.23,98.23-28.39,28.39-61.43,50.67-98.23,66.23-38.08,16.11-78.54,24.27-120.27,24.27s-82.19-8.17-120.27-24.27c-36.79-15.56-69.84-37.85-98.23-66.23-28.39-28.39-50.67-61.43-66.23-98.23-16.11-38.08-24.27-78.54-24.27-120.27v-244c0-41.73,8.17-82.19,24.27-120.27,15.56-36.79,37.85-69.84,66.23-98.23,28.39-28.39,61.43-50.67,98.23-66.23,38.08-16.11,78.54-24.27,120.27-24.27h0m0-25h0c-184.46,0-334,149.54-334,334v244c0,184.46,149.54,334,334,334h0c184.46,0,334-149.54,334-334v-244c0-184.46-149.54-334-334-334h0Z"/>
  <path class="cls-3" d="M1416.53,327.99c-53.64-53.64-124.96-83.18-200.82-83.18s-147.18,29.54-200.82,83.18c-53.64,53.64-83.18,124.96-83.18,200.82v244c0,51.06,13.4,100.06,38.51,143h29.45c-27.95-42.04-42.97-91.36-42.97-143v-244c0-41.51,9.71-81.53,28.04-117.47,9.93,6.7,21.52,10.24,33.55,10.24,19.27,0,37.1-9.1,48.42-24.54,11.32,15.43,29.15,24.54,48.42,24.54,21.85,0,41.93-11.95,52.47-30.84,10.54,18.89,30.62,30.84,52.47,30.84,20.64,0,39.68-10.55,50.67-27.8,10.99,17.25,30.03,27.8,50.67,27.8s41.16-11.53,51.85-29.74c10.7,18.21,30.56,29.74,51.85,29.74,8.33,0,16.41-1.69,24.02-5.01l.1-.04c16.66,34.59,25.47,72.75,25.47,112.27v244c0,51.64-15.02,100.96-42.97,143h29.45c25.11-42.94,38.51-91.94,38.51-143v-244c0-75.86-29.54-147.18-83.18-200.82Zm-361.46,.83v32.7c0,2.3,.15,4.7,.44,7.15-3.42,17.84-19,30.75-37.21,30.75-.85,0-1.7-.03-2.54-.09-.1,0-.19,0-.29-.02-.8-.06-1.6-.15-2.39-.26-.13-.02-.26-.03-.39-.05-.78-.12-1.55-.25-2.31-.42-.13-.03-.26-.06-.39-.09-.77-.17-1.54-.37-2.29-.59-.1-.03-.2-.06-.3-.09-.79-.24-1.57-.49-2.34-.78-.03,0-.05-.02-.08-.03-.77-.29-1.54-.61-2.29-.95-.07-.03-.13-.06-.2-.09-.73-.34-1.45-.71-2.16-1.09-.11-.06-.22-.11-.32-.17-.69-.38-1.37-.79-2.04-1.22-.06-.04-.11-.07-.17-.11,10.35-16.57,22.63-32.02,36.54-45.93,6.54-6.54,13.49-12.78,20.73-18.62Zm97.97,32.7c0,20.9-17,37.9-37.9,37.9-18.21,0-33.79-12.91-37.21-30.75,.3-2.47,.44-4.81,.44-7.15v-49.43c23.06-14.68,48.16-25.47,74.67-32.09v81.52Zm283.04,36.27c-.78,.24-1.57,.45-2.36,.64-.15,.04-.3,.06-.45,.1-.73,.16-1.46,.3-2.19,.42-.13,.02-.26,.05-.4,.07-.81,.12-1.63,.21-2.45,.28-.18,.02-.37,.03-.55,.04-.84,.06-1.69,.09-2.53,.09-20.9,0-37.9-17-37.9-37.9v-23.44c3.36,3.03,6.66,6.17,9.86,9.36,15.14,15.14,28.32,32.05,39.2,50.28-.07,.02-.14,.05-.22,.07Zm-76.75-36.27c0,20.9-17,37.9-37.9,37.9s-37.9-17-37.9-37.9v-80.18c27.05,7.36,52.53,19.08,75.8,34.88v45.31Zm-101.34,0c0,20.9-17,37.9-37.9,37.9s-37.9-17-37.9-37.9v-87.03c11.12-1.44,22.4-2.18,33.53-2.18,14.18,0,28.39,1.16,42.26,3.44v85.76Z"/>
  <path class="cls-3" d="M1215.71,1107.19c-184.03,0-333.75-149.72-333.75-333.75v-244.58c0-184.03,149.72-333.75,333.75-333.75s333.75,149.72,333.75,333.75v244.58c0,184.03-149.72,333.75-333.75,333.75Zm0-886.61c-169.99,0-308.28,138.29-308.28,308.28v244.58c0,169.99,138.29,308.28,308.28,308.28s308.28-138.29,308.28-308.28v-244.58c0-169.99-138.29-308.28-308.28-308.28Z"/>
  <g>
    <path class="cls-3" d="M1409.69,2120c-29.16,0-43.85-15.42-56.8-29.03-11.66-12.24-20.86-21.91-40.2-21.91s-28.54,9.67-40.2,21.91c-12.95,13.61-27.63,29.03-56.79,29.03s-43.84-15.42-56.8-29.03c-11.66-12.24-20.86-21.91-40.2-21.91s-28.54,9.67-40.19,21.91c-12.95,13.61-27.64,29.03-56.79,29.03s-43.84-15.42-56.79-29.03c-11.65-12.24-20.86-21.91-40.19-21.91-6.33,0-11.46-5.13-11.46-11.46s5.13-11.46,11.46-11.46c29.16,0,43.84,15.42,56.79,29.03,11.65,12.24,20.86,21.91,40.19,21.91s28.54-9.67,40.19-21.91c12.95-13.61,27.64-29.03,56.79-29.03s43.84,15.42,56.8,29.03c11.66,12.24,20.86,21.91,40.2,21.91s28.54-9.67,40.19-21.91c12.95-13.61,27.64-29.03,56.79-29.03s43.85,15.42,56.8,29.03c11.66,12.24,20.86,21.91,40.2,21.91s28.55-9.67,40.2-21.91c12.95-13.6,27.64-29.03,56.8-29.03,6.33,0,11.46,5.13,11.46,11.46s-5.13,11.46-11.46,11.46c-19.34,0-28.54,9.67-40.2,21.91-12.96,13.61-27.64,29.03-56.8,29.03Z"/>
    <path class="cls-3" d="M1409.69,2203.61c-29.16,0-43.85-15.42-56.8-29.03-11.66-12.24-20.86-21.91-40.2-21.91s-28.54,9.67-40.2,21.91c-12.95,13.61-27.63,29.03-56.79,29.03s-43.84-15.42-56.8-29.03c-11.66-12.24-20.86-21.91-40.2-21.91s-28.54,9.67-40.19,21.91c-12.95,13.61-27.64,29.03-56.79,29.03s-43.84-15.42-56.79-29.03c-11.65-12.24-20.86-21.91-40.19-21.91-6.33,0-11.46-5.13-11.46-11.46s5.13-11.46,11.46-11.46c29.16,0,43.84,15.42,56.79,29.03,11.65,12.24,20.86,21.91,40.19,21.91s28.54-9.67,40.19-21.91c12.95-13.61,27.64-29.03,56.79-29.03s43.84,15.42,56.8,29.03c11.66,12.24,20.86,21.91,40.2,21.91s28.54-9.67,40.19-21.91c12.95-13.61,27.64-29.03,56.79-29.03s43.85,15.42,56.8,29.03c11.66,12.24,20.86,21.91,40.2,21.91s28.55-9.67,40.2-21.91c12.95-13.6,27.64-29.03,56.8-29.03,6.33,0,11.46,5.13,11.46,11.46s-5.13,11.46-11.46,11.46c-19.34,0-28.54,9.67-40.2,21.91-12.96,13.61-27.64,29.03-56.8,29.03Z"/>
  </g>
  <g>
    <path class="cls-1" d="M420.23,2077.14c3.45,0,6.26-2.81,6.26-6.26s-2.81-6.26-6.26-6.26h-34.24c-3.58,0-6.49,2.91-6.49,6.49v50.22c0,3.58,2.91,6.49,6.49,6.49h34.24c3.45,0,6.26-2.81,6.26-6.26s-2.81-6.26-6.26-6.26h-27.75v-11h22.35c3.45,0,6.26-2.81,6.26-6.26s-2.81-6.26-6.26-6.26h-22.35v-14.6h27.75Z"/>
    <path class="cls-1" d="M480.77,2089.91l-.96-.17c-7.37-1.33-10.92-2.13-10.93-5.9,0-1.68,.65-3.23,1.89-4.48,1.42-1.42,4.29-3.12,9.91-3.12,5.12,0,10.28,1.44,15.78,4.41,.91,.5,1.95,.76,2.99,.76,3.46,0,6.28-2.82,6.28-6.28,0-2.33-1.28-4.45-3.33-5.55-7.3-3.89-14.43-5.87-21.18-5.87-12.18,0-25.3,6.44-25.32,20.59-.03,15.28,14.54,17.66,24.18,19.23l.35,.06c8.74,1.43,12.94,2.29,12.97,6.13,.01,1.29-.42,2.36-1.33,3.28-2.33,2.35-7.45,3.19-11.12,3.19-4.9,0-10.36-1.56-16.69-4.77-1.97-1-4.26-.91-6.15,.24-1.89,1.16-3.02,3.17-3.02,5.38s1.24,4.4,3.24,5.52h0c7.05,3.91,15.16,6.15,22.25,6.15,11.88,0,25.75-5.07,25.75-19.36s-14.78-17.48-25.57-19.43Z"/>
    <path class="cls-1" d="M582.86,2064.61h-44.37c-3.45,0-6.26,2.81-6.26,6.26s2.81,6.26,6.26,6.26h15.69v44.18c0,3.58,2.91,6.49,6.49,6.49s6.49-2.91,6.49-6.49v-44.18h15.69c3.45,0,6.26-2.81,6.26-6.26s-2.81-6.26-6.26-6.26Z"/>
    <path class="cls-1" d="M640.78,2064.61h-19.26c-3.58,0-6.49,2.91-6.49,6.49v50.22c0,3.58,2.91,6.49,6.49,6.49h19.27c17.67,0,32.04-14.17,32.04-31.6s-14.38-31.6-32.05-31.6Zm0,50.67h-12.77v-38.14h12.77c10.51,0,19.07,8.55,19.07,19.07s-8.55,19.07-19.07,19.07Z"/>
    <path class="cls-1" d="M1826.19,2115.7h-14.78c13.84-8.78,20.59-18.14,20.6-28.56,0-5.87-2.01-11-5.83-14.82-4.33-4.33-10.77-6.72-18.14-6.72-12.73,0-21.45,7.23-22.75,18.87-.19,1.68,.36,3.37,1.49,4.63,1.13,1.27,2.75,1.99,4.45,1.99,2.97,0,5.51-2.22,5.92-5.16,.73-5.4,4.4-8.13,10.9-8.13,3.87,0,6.9,1,8.79,2.89,1.56,1.57,2.35,3.74,2.34,6.47-.02,10.73-15.31,22.29-30.42,28.98-2.3,.94-3.79,3.16-3.79,5.65,0,3.36,2.74,6.1,6.1,6.1h35.13c3.37,0,6.1-2.74,6.1-6.1s-2.74-6.1-6.1-6.1Z"/>
    <path class="cls-1" d="M1885.77,2065.51c-15.88,0-25.75,12.11-25.75,31.6s9.87,31.6,25.75,31.6,25.75-12.11,25.75-31.6-9.87-31.6-25.75-31.6Zm0,51.03c-9.55,0-12.95-10.04-12.95-19.43s3.4-19.43,12.95-19.43,12.95,10.04,12.95,19.43-3.4,19.43-12.95,19.43Z"/>
    <path class="cls-1" d="M1952.46,2066.41h-9.85c-3.36,0-6.08,2.73-6.08,6.08s2.73,6.08,6.08,6.08h3.46v42.83c0,3.53,2.87,6.4,6.4,6.4s6.4-2.87,6.4-6.4v-48.6c0-3.53-2.87-6.4-6.4-6.4Z"/>
    <path class="cls-1" d="M2027.76,2096.57c3.8-3.17,5.8-7.62,5.8-12.97,0-11.16-8.66-18.1-22.6-18.1s-22.6,6.94-22.6,18.1c0,5.35,2,9.8,5.8,12.97-4.39,3.24-6.7,7.96-6.7,13.71,0,11.36,9,18.42,23.5,18.42s23.5-7.06,23.5-18.42c0-5.76-2.31-10.47-6.7-13.71Zm-16.8-18.9c4.74,0,9.8,1.68,9.8,6.38s-5.06,6.38-9.8,6.38-9.8-1.68-9.8-6.38,5.06-6.38,9.8-6.38Zm0,38.86c-5.17,0-10.7-1.83-10.7-6.96s5.53-6.96,10.7-6.96,10.7,1.83,10.7,6.96-5.53,6.96-10.7,6.96Z"/>
  </g>
  <g>
    <path class="cls-1" d="M765.03,1204.78c4.07,1.79,5.93,6.55,4.13,10.61l-33.16,74.7c-1.34,3.03-4.31,4.79-7.42,4.81s-6.08-1.78-7.43-4.81l-25.8-58.13-25.8,58.13c-1.34,3.03-4.31,4.79-7.43,4.81s-6.08-1.78-7.43-4.81l-33.16-74.7c-1.8-4.06,.06-8.82,4.13-10.61,4.07-1.79,8.83,.06,10.61,4.13l25.84,58.88,25.84-58.88c1.33-3.02,4.29-4.82,7.39-4.81h0c3.1,0,6.06,1.79,7.39,4.81l25.84,58.88,25.84-58.88c1.79-4.07,6.54-5.92,10.61-4.13h0Z"/>
    <path class="cls-1" d="M876.81,1286.48c0,4.27-3.46,7.72-7.72,7.72h-50.23c-4.45,0-8.05-3.61-8.05-8.05v-73.66c0-4.45,3.61-8.05,8.05-8.05h50.23c4.26,0,7.72,3.46,7.72,7.72s-3.46,7.72-7.72,7.72h-42.17v24.35h34.25c4.27,0,7.72,3.46,7.72,7.72s-3.46,7.72-7.72,7.72h-34.25v19.07h42.17c4.26,0,7.72,3.46,7.72,7.72Z"/>
    <path class="cls-1" d="M925.69,1286.68c-2.39-1.33-4.01-3.89-4.01-6.82,0-5.8,6.14-9.59,11.32-6.95,7.67,3.89,16.33,7.16,25.15,7.16,6.34,0,19.81-1.72,19.73-10.96-.06-6.99-7.58-8.35-20.26-10.42-13.73-2.24-34.79-5.41-34.75-26.84,.04-20.68,19.57-28.74,35.68-28.74,11.01,0,21.61,3.76,30.38,8.44,2.44,1.3,4.1,3.88,4.1,6.84,0,4.28-3.47,7.75-7.75,7.75-1.33,0-2.59-.34-3.68-.93-6.96-3.76-14.84-6.65-23.84-6.65-13.46,0-18.81,6.47-18.78,12.62,.04,7.31,7.54,8.34,18.65,10.35,16.76,3.04,36.3,7.13,36.3,27.06,0,21.78-23.23,26.93-36.3,26.93-10.42,0-21.99-3.32-31.93-8.84Z"/>
    <path class="cls-1" d="M1115.33,1212.16c0,4.26-3.46,7.72-7.72,7.72h-24.49v66.27c0,4.45-3.61,8.05-8.05,8.05s-8.05-3.61-8.05-8.05v-66.27h-24.49c-4.27,0-7.72-3.46-7.72-7.72s3.46-7.72,7.72-7.72h65.08c4.26,0,7.72,3.46,7.72,7.72Z"/>
    <path class="cls-1" d="M1250.01,1286.68c-2.39-1.33-4.01-3.89-4.01-6.82,0-5.8,6.14-9.59,11.32-6.95,7.67,3.89,16.33,7.16,25.15,7.16,6.34,0,19.81-1.72,19.73-10.96-.06-6.99-7.58-8.35-20.26-10.42-13.73-2.24-34.79-5.41-34.75-26.84,.04-20.68,19.57-28.74,35.68-28.74,11.01,0,21.61,3.76,30.38,8.44,2.44,1.3,4.1,3.88,4.1,6.84,0,4.28-3.47,7.75-7.75,7.75-1.33,0-2.59-.34-3.68-.93-6.96-3.76-14.84-6.65-23.84-6.65-13.46,0-18.81,6.47-18.78,12.62,.04,7.31,7.54,8.34,18.65,10.35,16.76,3.04,36.3,7.13,36.3,27.06,0,21.78-23.23,26.93-36.3,26.93-10.42,0-21.99-3.32-31.93-8.84Z"/>
    <path class="cls-1" d="M1446.25,1212.52v73.66c0,4.45-3.6,8.05-8.05,8.05s-8.05-3.61-8.05-8.05v-27.46h-50.95v27.43c0,4.45-3.61,8.05-8.05,8.05s-8.05-3.61-8.05-8.05v-73.66c0-4.45,3.61-8.05,8.05-8.05s8.05,3.61,8.05,8.05v30.12h50.95v-30.1c0-4.45,3.61-8.05,8.05-8.05s8.05,3.61,8.05,8.05Z"/>
    <path class="cls-1" d="M1489.81,1249.32c0-25.52,20.98-46.2,46.86-46.2s46.86,20.69,46.86,46.2-20.98,46.2-46.86,46.2-46.86-20.69-46.86-46.2Zm77.62,0c0-16.99-13.77-30.76-30.76-30.76s-30.76,13.77-30.76,30.76,13.77,30.76,30.76,30.76,30.76-13.77,30.76-30.76Z"/>
    <path class="cls-1" d="M1689.42,1282.29c2.34,3.78,1.17,8.74-2.61,11.08-3.78,2.34-8.75,1.17-11.08-2.61l-15.34-24.8h-17.18v20.2c0,4.45-3.61,8.05-8.05,8.05s-8.05-3.61-8.05-8.05v-73.66c0-4.45,3.61-8.05,8.05-8.05h29.57c17.18,0,31.02,13.74,31.02,30.7,0,12.5-7.41,23.21-18.12,28.06l11.81,19.1Zm-46.22-31.78h21.52c8.26,0,14.92-6.84,14.92-15.34s-6.66-15.28-14.92-15.28h-21.52v30.62Z"/>
    <path class="cls-1" d="M1806.61,1286.48c0,4.27-3.46,7.72-7.72,7.72h-50.23c-4.45,0-8.05-3.61-8.05-8.05v-73.66c0-4.45,3.61-8.05,8.05-8.05h50.23c4.27,0,7.72,3.46,7.72,7.72s-3.46,7.72-7.72,7.72h-42.17v24.35h34.25c4.26,0,7.72,3.46,7.72,7.72s-3.46,7.72-7.72,7.72h-34.25v19.07h42.17c4.27,0,7.72,3.46,7.72,7.72Z"/>
  </g>
  <g>
    <path class="cls-3" d="M212.36,1679.78c27.39,25.28,34.41,55.84,34.41,83.51,0,75.77-49.49,128.09-128.27,128.09-33.56,0-89.05-9.59-115.97-37.43-5.1-21.15-2.51-64.78,7.92-95.5h6.02c-6.88,70.59,37.81,115.76,98.77,112.37,50-2.78,91.79-37.05,91.79-91.8,0-26.77-9.76-47.95-26.88-63.83l-131.21-121.86c-27.71-25.29-37.13-58.37-37.13-84.88,0-57.74,42.3-115.76,120.39-115.76,17.98,0,40.55,3.06,58.75,7.03h27.14v84.05h-6.6c.16-43.82-34.39-70.53-77.07-70.53-50.47,0-84.25,37.03-84.25,78.77,0,17.86,5.99,43.16,27.58,63.16l134.61,124.61Z"/>
    <path class="cls-3" d="M703.86,1881.79l.11-6.85h8.67c23.8,0,43.14-18.93,43.86-42.55v-177.39H476.18v176.86c.45,23.86,19.9,43.07,43.87,43.07h8.67l.11,6.85h-149.87l.11-6.85h8.67c23.97,0,43.43-19.21,43.88-43.07v-380c-.6-23.73-19.99-42.79-43.87-42.79h-8.67l-.11-6.83h149.85l-.11,6.83h-8.67c-23.83,0-43.2,18.99-43.87,42.65v182.73h280.31v-183.17c-.9-23.46-20.17-42.22-43.85-42.22h-8.67l-.11-6.83h149.85l-.11,6.83h-8.67c-23.97,0-43.43,19.21-43.87,43.07v379.71c.45,23.86,19.9,43.07,43.87,43.07h8.67l.11,6.85h-149.86Z"/>
    <path class="cls-3" d="M1376.13,1831.8c13.85,30.49,39.19,43.13,60.17,43.13h5.73v6.85h-154.25v-6.79h6.02c17.69,0,36.03-15.58,26.03-43l-43.81-116.67h-184.5l-45.89,117.08c-9.67,27.15,8.59,42.59,26.19,42.59h6.02v6.79h-137.88v-6.85h6.17c20.83,0,46.16-12.62,60.01-43.08l155.34-368.6s25.37-55.49,25.37-70.55h6.17l183.12,439.11Zm-107.83-137.03l-82.56-219.85-86.17,219.85h168.73Z"/>
    <path class="cls-3" d="M1759.58,1402.36c146.31,0,246.01,95.96,246.01,239.93s-99.7,239.52-246.01,239.52h-231.9l.11-6.85h8.67c23.95,0,43.38-19.17,43.88-42.98v-383.7c0-22.03-20.97-39.2-43.63-39.2h-8.67l-.11-6.79,231.65,.06Zm-134.64,458.63h134.64c117.41,0,194.63-87.48,194.63-218.7s-77.91-219.36-194.63-219.36h-134.64v438.06Z"/>
    <path class="cls-3" d="M2402.87,1881.79h-283.97l.11-6.85h8.67c23.97,0,43.43-19.21,43.88-43.07v-383.55c-2.34-22.05-20.97-39.24-43.64-39.24h-8.67l-.11-6.81h200.18c29.52-.28,68.96-7.1,81.66-12.46v86.49l-6.92-.1v-12.21c0-21.73-16.95-39.47-38.35-40.77h-139.65v211.77h115.76c18.35-.34,33.13-15.3,33.13-33.74v-10.09l6.69-.09v108.41l-6.69-.08v-10.09c0-18.21-14.4-33.02-32.42-33.74h-116.48v205.25h98.24c72.58,0,100.46-37.54,121.6-89.7h6.85l-39.87,110.67Z"/>
  </g>
</svg>